<svg width="76" height="56" viewBox="0 0 76 56" fill="none" xmlns="http://www.w3.org/2000/svg">
<path d="M70.3138 37.8131H22.9734V45.21H23.0056C22.9734 47.577 36.9841 51.1276 46.6436 51.1276C61.0278 51.1276 70.3138 47.577 70.2816 45.21H70.3138V37.8131Z" fill="url(#paint0_linear_43_60)"/>
<path d="M70.3138 37.8131H22.9734V45.21H23.0056C22.9734 47.577 36.9841 51.1276 46.6436 51.1276C61.0278 51.1276 70.3138 47.577 70.2816 45.21H70.3138V37.8131Z" fill="url(#paint1_radial_43_60)" style="mix-blend-mode:overlay"/>
<ellipse cx="46.6436" cy="37.8131" rx="23.6702" ry="5.62167" fill="url(#paint2_linear_43_60)"/>
<ellipse cx="46.6436" cy="37.8131" rx="23.6702" ry="5.62167" fill="url(#paint3_radial_43_60)" style="mix-blend-mode:overlay"/>
<g filter="url(#filter0_ii_43_60)">
<path d="M66.6722 37.5172C66.6722 40.1317 57.7051 42.2513 46.6436 42.2513C35.5821 42.2513 26.615 40.1317 26.615 37.5172C26.615 34.9027 35.5821 32.7832 46.6436 32.7832C57.7051 32.7832 66.6722 34.9027 66.6722 37.5172Z" fill="url(#paint4_linear_43_60)"/>
<path d="M66.6722 37.5172C66.6722 40.1317 57.7051 42.2513 46.6436 42.2513C35.5821 42.2513 26.615 40.1317 26.615 37.5172C26.615 34.9027 35.5821 32.7832 46.6436 32.7832C57.7051 32.7832 66.6722 34.9027 66.6722 37.5172Z" fill="url(#paint5_radial_43_60)" style="mix-blend-mode:overlay"/>
<path d="M66.6722 37.5172C66.6722 40.1317 57.7051 42.2513 46.6436 42.2513C35.5821 42.2513 26.615 40.1317 26.615 37.5172C26.615 34.9027 35.5821 32.7832 46.6436 32.7832C57.7051 32.7832 66.6722 34.9027 66.6722 37.5172Z" fill="black" fill-opacity="0.08"/>
</g>
<path d="M70.3138 29.7652H22.9734V37.1622H23.0056C22.9734 39.5292 36.9841 43.0797 46.6436 43.0797C61.0278 43.0797 70.3138 39.5292 70.2816 37.1622H70.3138V29.7652Z" fill="url(#paint6_linear_43_60)"/>
<path d="M70.3138 29.7652H22.9734V37.1622H23.0056C22.9734 39.5292 36.9841 43.0797 46.6436 43.0797C61.0278 43.0797 70.3138 39.5292 70.2816 37.1622H70.3138V29.7652Z" fill="url(#paint7_radial_43_60)" style="mix-blend-mode:overlay"/>
<ellipse cx="46.6436" cy="29.7652" rx="23.6702" ry="5.62167" fill="url(#paint8_linear_43_60)"/>
<ellipse cx="46.6436" cy="29.7652" rx="23.6702" ry="5.62167" fill="url(#paint9_radial_43_60)" style="mix-blend-mode:overlay"/>
<g filter="url(#filter1_ii_43_60)">
<path d="M66.6722 29.4694C66.6722 32.0839 57.7051 34.2034 46.6436 34.2034C35.5821 34.2034 26.615 32.0839 26.615 29.4694C26.615 26.8548 35.5821 24.7353 46.6436 24.7353C57.7051 24.7353 66.6722 26.8548 66.6722 29.4694Z" fill="url(#paint10_linear_43_60)"/>
<path d="M66.6722 29.4694C66.6722 32.0839 57.7051 34.2034 46.6436 34.2034C35.5821 34.2034 26.615 32.0839 26.615 29.4694C26.615 26.8548 35.5821 24.7353 46.6436 24.7353C57.7051 24.7353 66.6722 26.8548 66.6722 29.4694Z" fill="url(#paint11_radial_43_60)" style="mix-blend-mode:overlay"/>
<path d="M66.6722 29.4694C66.6722 32.0839 57.7051 34.2034 46.6436 34.2034C35.5821 34.2034 26.615 32.0839 26.615 29.4694C26.615 26.8548 35.5821 24.7353 46.6436 24.7353C57.7051 24.7353 66.6722 26.8548 66.6722 29.4694Z" fill="black" fill-opacity="0.08"/>
</g>
<path d="M70.3138 21.7173H22.9734V29.1143H23.0056C22.9734 31.4813 36.9841 35.0318 46.6436 35.0318C61.0278 35.0318 70.3138 31.4813 70.2816 29.1143H70.3138V21.7173Z" fill="url(#paint12_linear_43_60)"/>
<path d="M70.3138 21.7173H22.9734V29.1143H23.0056C22.9734 31.4813 36.9841 35.0318 46.6436 35.0318C61.0278 35.0318 70.3138 31.4813 70.2816 29.1143H70.3138V21.7173Z" fill="url(#paint13_radial_43_60)" style="mix-blend-mode:overlay"/>
<ellipse cx="46.6436" cy="21.7173" rx="23.6702" ry="5.62167" fill="url(#paint14_linear_43_60)"/>
<ellipse cx="46.6436" cy="21.7173" rx="23.6702" ry="5.62167" fill="url(#paint15_radial_43_60)" style="mix-blend-mode:overlay"/>
<g filter="url(#filter2_ii_43_60)">
<path d="M66.6722 21.4214C66.6722 24.036 57.7051 26.1555 46.6436 26.1555C35.5821 26.1555 26.615 24.036 26.615 21.4214C26.615 18.8069 35.5821 16.6874 46.6436 16.6874C57.7051 16.6874 66.6722 18.8069 66.6722 21.4214Z" fill="url(#paint16_linear_43_60)"/>
<path d="M66.6722 21.4214C66.6722 24.036 57.7051 26.1555 46.6436 26.1555C35.5821 26.1555 26.615 24.036 26.615 21.4214C26.615 18.8069 35.5821 16.6874 46.6436 16.6874C57.7051 16.6874 66.6722 18.8069 66.6722 21.4214Z" fill="url(#paint17_radial_43_60)" style="mix-blend-mode:overlay"/>
<path d="M66.6722 21.4214C66.6722 24.036 57.7051 26.1555 46.6436 26.1555C35.5821 26.1555 26.615 24.036 26.615 21.4214C26.615 18.8069 35.5821 16.6874 46.6436 16.6874C57.7051 16.6874 66.6722 18.8069 66.6722 21.4214Z" fill="black" fill-opacity="0.08"/>
</g>
<path d="M71.2606 13.6695H23.9202V21.0664H23.9524C23.9202 23.4334 37.931 26.984 47.5904 26.984C61.9746 26.984 71.2606 23.4334 71.2284 21.0664H71.2606V13.6695Z" fill="url(#paint18_linear_43_60)"/>
<path d="M71.2606 13.6695H23.9202V21.0664H23.9524C23.9202 23.4334 37.931 26.984 47.5904 26.984C61.9746 26.984 71.2606 23.4334 71.2284 21.0664H71.2606V13.6695Z" fill="url(#paint19_radial_43_60)" style="mix-blend-mode:overlay"/>
<ellipse cx="47.5904" cy="13.6695" rx="23.6702" ry="5.62167" fill="url(#paint20_linear_43_60)"/>
<ellipse cx="47.5904" cy="13.6695" rx="23.6702" ry="5.62167" fill="url(#paint21_radial_43_60)" style="mix-blend-mode:overlay"/>
<g filter="url(#filter3_ii_43_60)">
<path d="M67.619 13.3736C67.619 15.9882 58.6519 18.1077 47.5904 18.1077C36.5289 18.1077 27.5618 15.9882 27.5618 13.3736C27.5618 10.7591 36.5289 8.63959 47.5904 8.63959C58.6519 8.63959 67.619 10.7591 67.619 13.3736Z" fill="url(#paint22_linear_43_60)"/>
<path d="M67.619 13.3736C67.619 15.9882 58.6519 18.1077 47.5904 18.1077C36.5289 18.1077 27.5618 15.9882 27.5618 13.3736C27.5618 10.7591 36.5289 8.63959 47.5904 8.63959C58.6519 8.63959 67.619 10.7591 67.619 13.3736Z" fill="url(#paint23_radial_43_60)" style="mix-blend-mode:overlay"/>
<path d="M67.619 13.3736C67.619 15.9882 58.6519 18.1077 47.5904 18.1077C36.5289 18.1077 27.5618 15.9882 27.5618 13.3736C27.5618 10.7591 36.5289 8.63959 47.5904 8.63959C58.6519 8.63959 67.619 10.7591 67.619 13.3736Z" fill="black" fill-opacity="0.08"/>
</g>
<path d="M75.0478 5.62161H27.7074V13.0185H27.7396C27.7074 15.3856 41.7182 18.9361 51.3776 18.9361C65.7618 18.9361 75.0478 15.3856 75.0156 13.0185H75.0478V5.62161Z" fill="url(#paint24_linear_43_60)"/>
<path d="M75.0478 5.62161H27.7074V13.0185H27.7396C27.7074 15.3856 41.7182 18.9361 51.3776 18.9361C65.7618 18.9361 75.0478 15.3856 75.0156 13.0185H75.0478V5.62161Z" fill="url(#paint25_radial_43_60)" style="mix-blend-mode:overlay"/>
<ellipse cx="51.3776" cy="5.62161" rx="23.6702" ry="5.62167" fill="url(#paint26_linear_43_60)"/>
<ellipse cx="51.3776" cy="5.62161" rx="23.6702" ry="5.62167" fill="url(#paint27_radial_43_60)" style="mix-blend-mode:overlay"/>
<g filter="url(#filter4_ii_43_60)">
<path d="M71.4062 5.32574C71.4062 7.94028 62.4391 10.0598 51.3776 10.0598C40.3161 10.0598 31.349 7.94028 31.349 5.32574C31.349 2.71121 40.3161 0.591705 51.3776 0.591705C62.4391 0.591705 71.4062 2.71121 71.4062 5.32574Z" fill="url(#paint28_linear_43_60)"/>
<path d="M71.4062 5.32574C71.4062 7.94028 62.4391 10.0598 51.3776 10.0598C40.3161 10.0598 31.349 7.94028 31.349 5.32574C31.349 2.71121 40.3161 0.591705 51.3776 0.591705C62.4391 0.591705 71.4062 2.71121 71.4062 5.32574Z" fill="url(#paint29_radial_43_60)" style="mix-blend-mode:overlay"/>
<path d="M71.4062 5.32574C71.4062 7.94028 62.4391 10.0598 51.3776 10.0598C40.3161 10.0598 31.349 7.94028 31.349 5.32574C31.349 2.71121 40.3161 0.591705 51.3776 0.591705C62.4391 0.591705 71.4062 2.71121 71.4062 5.32574Z" fill="black" fill-opacity="0.08"/>
</g>
<g filter="url(#filter5_f_43_60)">
<path d="M6.23466 51.3287L23.3806 7.20238L30.2754 9.88144L30.2637 9.91148C32.4817 10.7387 30.7167 25.0842 27.2182 34.0878C22.0084 47.4954 15.3357 54.865 13.1411 53.9777L13.1294 54.0077L6.23466 51.3287Z" fill="black" fill-opacity="0.2"/>
<path d="M6.23466 51.3287C9.12863 52.4532 15.3129 43.4867 20.0476 31.3016C24.7824 19.1165 26.2746 8.32688 23.3806 7.20238C20.4867 6.07789 14.3024 15.0443 9.56765 27.2294C4.83292 39.4146 3.34069 50.2042 6.23466 51.3287Z" fill="black" fill-opacity="0.2"/>
<path d="M7.27779 47.8272C9.71482 48.7741 14.9382 41.1835 18.9445 30.873C22.9508 20.5625 24.223 11.4365 21.7859 10.4896C19.3489 9.5426 14.1255 17.1333 10.1192 27.4438C6.11292 37.7543 4.84077 46.8802 7.27779 47.8272Z" fill="black" fill-opacity="0.2"/>
</g>
<path d="M5.28783 46.5946L22.4338 2.46829L29.3285 5.14735L29.3169 5.17739C31.5349 6.00465 29.7698 20.3501 26.2713 29.3537C21.0616 42.7613 14.3889 50.1309 12.1942 49.2436L12.1826 49.2736L5.28783 46.5946Z" fill="url(#paint30_linear_43_60)"/>
<path d="M5.28783 46.5946L22.4338 2.46829L29.3285 5.14735L29.3169 5.17739C31.5349 6.00465 29.7698 20.3501 26.2713 29.3537C21.0616 42.7613 14.3889 50.1309 12.1942 49.2436L12.1826 49.2736L5.28783 46.5946Z" fill="url(#paint31_radial_43_60)" style="mix-blend-mode:overlay"/>
<ellipse rx="23.6702" ry="5.62167" transform="matrix(-0.362185 0.932106 0.932106 0.362185 13.8608 24.5314)" fill="url(#paint32_linear_43_60)"/>
<ellipse rx="23.6702" ry="5.62167" transform="matrix(-0.362185 0.932106 0.932106 0.362185 13.8608 24.5314)" fill="url(#paint33_radial_43_60)" style="mix-blend-mode:overlay"/>
<g filter="url(#filter6_ii_43_60)">
<path d="M6.33094 43.093C8.76797 44.04 13.9913 36.4493 17.9976 26.1388C22.004 15.8283 23.2761 6.70238 20.8391 5.75543C18.4021 4.80848 13.1787 12.3991 9.17238 22.7096C5.16607 33.0201 3.89392 42.1461 6.33094 43.093Z" fill="url(#paint34_linear_43_60)"/>
<path d="M6.33094 43.093C8.76797 44.04 13.9913 36.4493 17.9976 26.1388C22.004 15.8283 23.2761 6.70238 20.8391 5.75543C18.4021 4.80848 13.1787 12.3991 9.17238 22.7096C5.16607 33.0201 3.89392 42.1461 6.33094 43.093Z" fill="url(#paint35_radial_43_60)" style="mix-blend-mode:overlay"/>
<path d="M6.33094 43.093C8.76797 44.04 13.9913 36.4493 17.9976 26.1388C22.004 15.8283 23.2761 6.70238 20.8391 5.75543C18.4021 4.80848 13.1787 12.3991 9.17238 22.7096C5.16607 33.0201 3.89392 42.1461 6.33094 43.093Z" fill="black" fill-opacity="0.08"/>
</g>
<defs>
<filter id="filter0_ii_43_60" x="26.615" y="32.7832" width="40.0573" height="10.983" filterUnits="userSpaceOnUse" color-interpolation-filters="sRGB">
<feFlood flood-opacity="0" result="BackgroundImageFix"/>
<feBlend mode="normal" in="SourceGraphic" in2="BackgroundImageFix" result="shape"/>
<feColorMatrix in="SourceAlpha" type="matrix" values="0 0 0 0 0 0 0 0 0 0 0 0 0 0 0 0 0 0 127 0" result="hardAlpha"/>
<feOffset dy="1.51489"/>
<feGaussianBlur stdDeviation="1.51489"/>
<feComposite in2="hardAlpha" operator="arithmetic" k2="-1" k3="1"/>
<feColorMatrix type="matrix" values="0 0 0 0 0 0 0 0 0 0 0 0 0 0 0 0 0 0 0.4 0"/>
<feBlend mode="normal" in2="shape" result="effect1_innerShadow_43_60"/>
<feColorMatrix in="SourceAlpha" type="matrix" values="0 0 0 0 0 0 0 0 0 0 0 0 0 0 0 0 0 0 127 0" result="hardAlpha"/>
<feOffset dy="1.51489"/>
<feGaussianBlur stdDeviation="0.189362"/>
<feComposite in2="hardAlpha" operator="arithmetic" k2="-1" k3="1"/>
<feColorMatrix type="matrix" values="0 0 0 0 0 0 0 0 0 0 0 0 0 0 0 0 0 0 0.8 0"/>
<feBlend mode="normal" in2="effect1_innerShadow_43_60" result="effect2_innerShadow_43_60"/>
</filter>
<filter id="filter1_ii_43_60" x="26.615" y="24.7353" width="40.0573" height="10.983" filterUnits="userSpaceOnUse" color-interpolation-filters="sRGB">
<feFlood flood-opacity="0" result="BackgroundImageFix"/>
<feBlend mode="normal" in="SourceGraphic" in2="BackgroundImageFix" result="shape"/>
<feColorMatrix in="SourceAlpha" type="matrix" values="0 0 0 0 0 0 0 0 0 0 0 0 0 0 0 0 0 0 127 0" result="hardAlpha"/>
<feOffset dy="1.51489"/>
<feGaussianBlur stdDeviation="1.51489"/>
<feComposite in2="hardAlpha" operator="arithmetic" k2="-1" k3="1"/>
<feColorMatrix type="matrix" values="0 0 0 0 0 0 0 0 0 0 0 0 0 0 0 0 0 0 0.4 0"/>
<feBlend mode="normal" in2="shape" result="effect1_innerShadow_43_60"/>
<feColorMatrix in="SourceAlpha" type="matrix" values="0 0 0 0 0 0 0 0 0 0 0 0 0 0 0 0 0 0 127 0" result="hardAlpha"/>
<feOffset dy="1.51489"/>
<feGaussianBlur stdDeviation="0.189362"/>
<feComposite in2="hardAlpha" operator="arithmetic" k2="-1" k3="1"/>
<feColorMatrix type="matrix" values="0 0 0 0 0 0 0 0 0 0 0 0 0 0 0 0 0 0 0.8 0"/>
<feBlend mode="normal" in2="effect1_innerShadow_43_60" result="effect2_innerShadow_43_60"/>
</filter>
<filter id="filter2_ii_43_60" x="26.615" y="16.6874" width="40.0573" height="10.983" filterUnits="userSpaceOnUse" color-interpolation-filters="sRGB">
<feFlood flood-opacity="0" result="BackgroundImageFix"/>
<feBlend mode="normal" in="SourceGraphic" in2="BackgroundImageFix" result="shape"/>
<feColorMatrix in="SourceAlpha" type="matrix" values="0 0 0 0 0 0 0 0 0 0 0 0 0 0 0 0 0 0 127 0" result="hardAlpha"/>
<feOffset dy="1.51489"/>
<feGaussianBlur stdDeviation="1.51489"/>
<feComposite in2="hardAlpha" operator="arithmetic" k2="-1" k3="1"/>
<feColorMatrix type="matrix" values="0 0 0 0 0 0 0 0 0 0 0 0 0 0 0 0 0 0 0.4 0"/>
<feBlend mode="normal" in2="shape" result="effect1_innerShadow_43_60"/>
<feColorMatrix in="SourceAlpha" type="matrix" values="0 0 0 0 0 0 0 0 0 0 0 0 0 0 0 0 0 0 127 0" result="hardAlpha"/>
<feOffset dy="1.51489"/>
<feGaussianBlur stdDeviation="0.189362"/>
<feComposite in2="hardAlpha" operator="arithmetic" k2="-1" k3="1"/>
<feColorMatrix type="matrix" values="0 0 0 0 0 0 0 0 0 0 0 0 0 0 0 0 0 0 0.8 0"/>
<feBlend mode="normal" in2="effect1_innerShadow_43_60" result="effect2_innerShadow_43_60"/>
</filter>
<filter id="filter3_ii_43_60" x="27.5618" y="8.63959" width="40.0573" height="10.983" filterUnits="userSpaceOnUse" color-interpolation-filters="sRGB">
<feFlood flood-opacity="0" result="BackgroundImageFix"/>
<feBlend mode="normal" in="SourceGraphic" in2="BackgroundImageFix" result="shape"/>
<feColorMatrix in="SourceAlpha" type="matrix" values="0 0 0 0 0 0 0 0 0 0 0 0 0 0 0 0 0 0 127 0" result="hardAlpha"/>
<feOffset dy="1.51489"/>
<feGaussianBlur stdDeviation="1.51489"/>
<feComposite in2="hardAlpha" operator="arithmetic" k2="-1" k3="1"/>
<feColorMatrix type="matrix" values="0 0 0 0 0 0 0 0 0 0 0 0 0 0 0 0 0 0 0.4 0"/>
<feBlend mode="normal" in2="shape" result="effect1_innerShadow_43_60"/>
<feColorMatrix in="SourceAlpha" type="matrix" values="0 0 0 0 0 0 0 0 0 0 0 0 0 0 0 0 0 0 127 0" result="hardAlpha"/>
<feOffset dy="1.51489"/>
<feGaussianBlur stdDeviation="0.189362"/>
<feComposite in2="hardAlpha" operator="arithmetic" k2="-1" k3="1"/>
<feColorMatrix type="matrix" values="0 0 0 0 0 0 0 0 0 0 0 0 0 0 0 0 0 0 0.8 0"/>
<feBlend mode="normal" in2="effect1_innerShadow_43_60" result="effect2_innerShadow_43_60"/>
</filter>
<filter id="filter4_ii_43_60" x="31.349" y="0.591705" width="40.0573" height="10.983" filterUnits="userSpaceOnUse" color-interpolation-filters="sRGB">
<feFlood flood-opacity="0" result="BackgroundImageFix"/>
<feBlend mode="normal" in="SourceGraphic" in2="BackgroundImageFix" result="shape"/>
<feColorMatrix in="SourceAlpha" type="matrix" values="0 0 0 0 0 0 0 0 0 0 0 0 0 0 0 0 0 0 127 0" result="hardAlpha"/>
<feOffset dy="1.51489"/>
<feGaussianBlur stdDeviation="1.51489"/>
<feComposite in2="hardAlpha" operator="arithmetic" k2="-1" k3="1"/>
<feColorMatrix type="matrix" values="0 0 0 0 0 0 0 0 0 0 0 0 0 0 0 0 0 0 0.4 0"/>
<feBlend mode="normal" in2="shape" result="effect1_innerShadow_43_60"/>
<feColorMatrix in="SourceAlpha" type="matrix" values="0 0 0 0 0 0 0 0 0 0 0 0 0 0 0 0 0 0 127 0" result="hardAlpha"/>
<feOffset dy="1.51489"/>
<feGaussianBlur stdDeviation="0.189362"/>
<feComposite in2="hardAlpha" operator="arithmetic" k2="-1" k3="1"/>
<feColorMatrix type="matrix" values="0 0 0 0 0 0 0 0 0 0 0 0 0 0 0 0 0 0 0.8 0"/>
<feBlend mode="normal" in2="effect1_innerShadow_43_60" result="effect2_innerShadow_43_60"/>
</filter>
<filter id="filter5_f_43_60" x="3.24374" y="5.59229" width="29.5166" height="49.9722" filterUnits="userSpaceOnUse" color-interpolation-filters="sRGB">
<feFlood flood-opacity="0" result="BackgroundImageFix"/>
<feBlend mode="normal" in="SourceGraphic" in2="BackgroundImageFix" result="shape"/>
<feGaussianBlur stdDeviation="0.757446" result="effect1_foregroundBlur_43_60"/>
</filter>
<filter id="filter6_ii_43_60" x="5.09303" y="5.67563" width="16.984" height="39.0121" filterUnits="userSpaceOnUse" color-interpolation-filters="sRGB">
<feFlood flood-opacity="0" result="BackgroundImageFix"/>
<feBlend mode="normal" in="SourceGraphic" in2="BackgroundImageFix" result="shape"/>
<feColorMatrix in="SourceAlpha" type="matrix" values="0 0 0 0 0 0 0 0 0 0 0 0 0 0 0 0 0 0 127 0" result="hardAlpha"/>
<feOffset dy="1.51489"/>
<feGaussianBlur stdDeviation="1.51489"/>
<feComposite in2="hardAlpha" operator="arithmetic" k2="-1" k3="1"/>
<feColorMatrix type="matrix" values="0 0 0 0 0 0 0 0 0 0 0 0 0 0 0 0 0 0 0.4 0"/>
<feBlend mode="normal" in2="shape" result="effect1_innerShadow_43_60"/>
<feColorMatrix in="SourceAlpha" type="matrix" values="0 0 0 0 0 0 0 0 0 0 0 0 0 0 0 0 0 0 127 0" result="hardAlpha"/>
<feOffset dy="1.51489"/>
<feGaussianBlur stdDeviation="0.189362"/>
<feComposite in2="hardAlpha" operator="arithmetic" k2="-1" k3="1"/>
<feColorMatrix type="matrix" values="0 0 0 0 0 0 0 0 0 0 0 0 0 0 0 0 0 0 0.8 0"/>
<feBlend mode="normal" in2="effect1_innerShadow_43_60" result="effect2_innerShadow_43_60"/>
</filter>
<linearGradient id="paint0_linear_43_60" x1="20.9705" y1="46.9853" x2="74.3195" y2="45.21" gradientUnits="userSpaceOnUse">
<stop offset="0.0535929" stop-color="#576265"/>
<stop offset="0.190214" stop-color="#9EA1A1"/>
<stop offset="0.233916" stop-color="#848B8A"/>
<stop offset="0.393482" stop-color="#576265"/>
<stop offset="0.654251" stop-color="#576265"/>
<stop offset="0.751303" stop-color="#6F7879"/>
<stop offset="0.838665" stop-color="#929797"/>
<stop offset="0.895833" stop-color="#757A7B"/>
<stop offset="1" stop-color="#576265"/>
</linearGradient>
<radialGradient id="paint1_radial_43_60" cx="0" cy="0" r="1" gradientUnits="userSpaceOnUse" gradientTransform="translate(22.9734 36.6604) rotate(26.147) scale(24.1817 23.4221)">
<stop stop-color="white"/>
<stop offset="1" stop-color="white" stop-opacity="0"/>
</radialGradient>
<linearGradient id="paint2_linear_43_60" x1="44.9867" y1="27.9308" x2="42.8564" y2="53.2579" gradientUnits="userSpaceOnUse">
<stop offset="0.0265024" stop-color="#737A79"/>
<stop offset="0.271293" stop-color="#848B8A"/>
<stop offset="1" stop-color="#CCD2D2"/>
</linearGradient>
<radialGradient id="paint3_radial_43_60" cx="0" cy="0" r="1" gradientUnits="userSpaceOnUse" gradientTransform="translate(22.9734 31.218) rotate(22.5164) scale(23.4984 20.3538)">
<stop stop-color="white"/>
<stop offset="1" stop-color="white" stop-opacity="0"/>
</radialGradient>
<linearGradient id="paint4_linear_43_60" x1="34.9906" y1="50.5358" x2="44.9134" y2="10.3935" gradientUnits="userSpaceOnUse">
<stop offset="0.0677083" stop-color="#576265"/>
<stop offset="0.21875" stop-color="#9EA1A1"/>
<stop offset="0.453125" stop-color="#848B8A"/>
<stop offset="0.524381" stop-color="#576265"/>
<stop offset="0.796875" stop-color="#576265"/>
<stop offset="0.895833" stop-color="#757A7B"/>
<stop offset="1" stop-color="#576265"/>
</linearGradient>
<radialGradient id="paint5_radial_43_60" cx="0" cy="0" r="1" gradientUnits="userSpaceOnUse" gradientTransform="translate(26.615 31.9635) rotate(22.4193) scale(19.8693 17.1521)">
<stop stop-color="white"/>
<stop offset="1" stop-color="white" stop-opacity="0"/>
</radialGradient>
<linearGradient id="paint6_linear_43_60" x1="20.9705" y1="38.9374" x2="74.3195" y2="37.1622" gradientUnits="userSpaceOnUse">
<stop offset="0.0535929" stop-color="#576265"/>
<stop offset="0.190214" stop-color="#9EA1A1"/>
<stop offset="0.233916" stop-color="#848B8A"/>
<stop offset="0.393482" stop-color="#576265"/>
<stop offset="0.654251" stop-color="#576265"/>
<stop offset="0.751303" stop-color="#6F7879"/>
<stop offset="0.838665" stop-color="#929797"/>
<stop offset="0.895833" stop-color="#757A7B"/>
<stop offset="1" stop-color="#576265"/>
</linearGradient>
<radialGradient id="paint7_radial_43_60" cx="0" cy="0" r="1" gradientUnits="userSpaceOnUse" gradientTransform="translate(22.9734 28.6126) rotate(26.147) scale(24.1817 23.4221)">
<stop stop-color="white"/>
<stop offset="1" stop-color="white" stop-opacity="0"/>
</radialGradient>
<linearGradient id="paint8_linear_43_60" x1="44.9867" y1="19.8829" x2="42.8564" y2="45.21" gradientUnits="userSpaceOnUse">
<stop offset="0.0265024" stop-color="#737A79"/>
<stop offset="0.271293" stop-color="#848B8A"/>
<stop offset="1" stop-color="#CCD2D2"/>
</linearGradient>
<radialGradient id="paint9_radial_43_60" cx="0" cy="0" r="1" gradientUnits="userSpaceOnUse" gradientTransform="translate(22.9734 23.1702) rotate(22.5164) scale(23.4984 20.3538)">
<stop stop-color="white"/>
<stop offset="1" stop-color="white" stop-opacity="0"/>
</radialGradient>
<linearGradient id="paint10_linear_43_60" x1="34.9906" y1="42.488" x2="44.9134" y2="2.3457" gradientUnits="userSpaceOnUse">
<stop offset="0.0677083" stop-color="#576265"/>
<stop offset="0.21875" stop-color="#9EA1A1"/>
<stop offset="0.453125" stop-color="#848B8A"/>
<stop offset="0.524381" stop-color="#576265"/>
<stop offset="0.796875" stop-color="#576265"/>
<stop offset="0.895833" stop-color="#757A7B"/>
<stop offset="1" stop-color="#576265"/>
</linearGradient>
<radialGradient id="paint11_radial_43_60" cx="0" cy="0" r="1" gradientUnits="userSpaceOnUse" gradientTransform="translate(26.615 23.9156) rotate(22.4193) scale(19.8693 17.1521)">
<stop stop-color="white"/>
<stop offset="1" stop-color="white" stop-opacity="0"/>
</radialGradient>
<linearGradient id="paint12_linear_43_60" x1="20.9705" y1="30.8895" x2="74.3195" y2="29.1143" gradientUnits="userSpaceOnUse">
<stop offset="0.0535929" stop-color="#576265"/>
<stop offset="0.190214" stop-color="#9EA1A1"/>
<stop offset="0.233916" stop-color="#848B8A"/>
<stop offset="0.393482" stop-color="#576265"/>
<stop offset="0.654251" stop-color="#576265"/>
<stop offset="0.751303" stop-color="#6F7879"/>
<stop offset="0.838665" stop-color="#929797"/>
<stop offset="0.895833" stop-color="#757A7B"/>
<stop offset="1" stop-color="#576265"/>
</linearGradient>
<radialGradient id="paint13_radial_43_60" cx="0" cy="0" r="1" gradientUnits="userSpaceOnUse" gradientTransform="translate(22.9734 20.5646) rotate(26.147) scale(24.1817 23.4221)">
<stop stop-color="white"/>
<stop offset="1" stop-color="white" stop-opacity="0"/>
</radialGradient>
<linearGradient id="paint14_linear_43_60" x1="44.9867" y1="11.835" x2="42.8564" y2="37.1621" gradientUnits="userSpaceOnUse">
<stop offset="0.0265024" stop-color="#737A79"/>
<stop offset="0.271293" stop-color="#848B8A"/>
<stop offset="1" stop-color="#CCD2D2"/>
</linearGradient>
<radialGradient id="paint15_radial_43_60" cx="0" cy="0" r="1" gradientUnits="userSpaceOnUse" gradientTransform="translate(22.9734 15.1223) rotate(22.5164) scale(23.4984 20.3538)">
<stop stop-color="white"/>
<stop offset="1" stop-color="white" stop-opacity="0"/>
</radialGradient>
<linearGradient id="paint16_linear_43_60" x1="34.9906" y1="34.4401" x2="44.9134" y2="-5.70222" gradientUnits="userSpaceOnUse">
<stop offset="0.0677083" stop-color="#576265"/>
<stop offset="0.21875" stop-color="#9EA1A1"/>
<stop offset="0.453125" stop-color="#848B8A"/>
<stop offset="0.524381" stop-color="#576265"/>
<stop offset="0.796875" stop-color="#576265"/>
<stop offset="0.895833" stop-color="#757A7B"/>
<stop offset="1" stop-color="#576265"/>
</linearGradient>
<radialGradient id="paint17_radial_43_60" cx="0" cy="0" r="1" gradientUnits="userSpaceOnUse" gradientTransform="translate(26.615 15.8677) rotate(22.4193) scale(19.8693 17.1521)">
<stop stop-color="white"/>
<stop offset="1" stop-color="white" stop-opacity="0"/>
</radialGradient>
<linearGradient id="paint18_linear_43_60" x1="21.9173" y1="22.8417" x2="75.2663" y2="21.0664" gradientUnits="userSpaceOnUse">
<stop offset="0.0535929" stop-color="#576265"/>
<stop offset="0.190214" stop-color="#9EA1A1"/>
<stop offset="0.233916" stop-color="#848B8A"/>
<stop offset="0.393482" stop-color="#576265"/>
<stop offset="0.654251" stop-color="#576265"/>
<stop offset="0.751303" stop-color="#6F7879"/>
<stop offset="0.838665" stop-color="#929797"/>
<stop offset="0.895833" stop-color="#757A7B"/>
<stop offset="1" stop-color="#576265"/>
</linearGradient>
<radialGradient id="paint19_radial_43_60" cx="0" cy="0" r="1" gradientUnits="userSpaceOnUse" gradientTransform="translate(23.9202 12.5168) rotate(26.147) scale(24.1817 23.4221)">
<stop stop-color="white"/>
<stop offset="1" stop-color="white" stop-opacity="0"/>
</radialGradient>
<linearGradient id="paint20_linear_43_60" x1="45.9335" y1="3.78716" x2="43.8032" y2="29.1143" gradientUnits="userSpaceOnUse">
<stop offset="0.0265024" stop-color="#737A79"/>
<stop offset="0.271293" stop-color="#848B8A"/>
<stop offset="1" stop-color="#CCD2D2"/>
</linearGradient>
<radialGradient id="paint21_radial_43_60" cx="0" cy="0" r="1" gradientUnits="userSpaceOnUse" gradientTransform="translate(23.9202 7.07443) rotate(22.5164) scale(23.4984 20.3538)">
<stop stop-color="white"/>
<stop offset="1" stop-color="white" stop-opacity="0"/>
</radialGradient>
<linearGradient id="paint22_linear_43_60" x1="35.9374" y1="26.3922" x2="45.8602" y2="-13.75" gradientUnits="userSpaceOnUse">
<stop offset="0.0677083" stop-color="#576265"/>
<stop offset="0.21875" stop-color="#9EA1A1"/>
<stop offset="0.453125" stop-color="#848B8A"/>
<stop offset="0.524381" stop-color="#576265"/>
<stop offset="0.796875" stop-color="#576265"/>
<stop offset="0.895833" stop-color="#757A7B"/>
<stop offset="1" stop-color="#576265"/>
</linearGradient>
<radialGradient id="paint23_radial_43_60" cx="0" cy="0" r="1" gradientUnits="userSpaceOnUse" gradientTransform="translate(27.5618 7.81991) rotate(22.4193) scale(19.8693 17.1521)">
<stop stop-color="white"/>
<stop offset="1" stop-color="white" stop-opacity="0"/>
</radialGradient>
<linearGradient id="paint24_linear_43_60" x1="25.7046" y1="14.7938" x2="79.0535" y2="13.0185" gradientUnits="userSpaceOnUse">
<stop offset="0.0535929" stop-color="#576265"/>
<stop offset="0.190214" stop-color="#9EA1A1"/>
<stop offset="0.233916" stop-color="#848B8A"/>
<stop offset="0.393482" stop-color="#576265"/>
<stop offset="0.654251" stop-color="#576265"/>
<stop offset="0.751303" stop-color="#6F7879"/>
<stop offset="0.838665" stop-color="#929797"/>
<stop offset="0.895833" stop-color="#757A7B"/>
<stop offset="1" stop-color="#576265"/>
</linearGradient>
<radialGradient id="paint25_radial_43_60" cx="0" cy="0" r="1" gradientUnits="userSpaceOnUse" gradientTransform="translate(27.7074 4.46895) rotate(26.147) scale(24.1817 23.4221)">
<stop stop-color="white"/>
<stop offset="1" stop-color="white" stop-opacity="0"/>
</radialGradient>
<linearGradient id="paint26_linear_43_60" x1="49.7207" y1="-4.2607" x2="47.5904" y2="21.0664" gradientUnits="userSpaceOnUse">
<stop offset="0.0265024" stop-color="#737A79"/>
<stop offset="0.271293" stop-color="#848B8A"/>
<stop offset="1" stop-color="#CCD2D2"/>
</linearGradient>
<radialGradient id="paint27_radial_43_60" cx="0" cy="0" r="1" gradientUnits="userSpaceOnUse" gradientTransform="translate(27.7074 -0.973424) rotate(22.5164) scale(23.4984 20.3538)">
<stop stop-color="white"/>
<stop offset="1" stop-color="white" stop-opacity="0"/>
</radialGradient>
<linearGradient id="paint28_linear_43_60" x1="39.7246" y1="18.3444" x2="49.6474" y2="-21.7979" gradientUnits="userSpaceOnUse">
<stop offset="0.0677083" stop-color="#576265"/>
<stop offset="0.21875" stop-color="#9EA1A1"/>
<stop offset="0.453125" stop-color="#848B8A"/>
<stop offset="0.524381" stop-color="#576265"/>
<stop offset="0.796875" stop-color="#576265"/>
<stop offset="0.895833" stop-color="#757A7B"/>
<stop offset="1" stop-color="#576265"/>
</linearGradient>
<radialGradient id="paint29_radial_43_60" cx="0" cy="0" r="1" gradientUnits="userSpaceOnUse" gradientTransform="translate(31.349 -0.227969) rotate(22.4193) scale(19.8693 17.1521)">
<stop stop-color="white"/>
<stop offset="1" stop-color="white" stop-opacity="0"/>
</radialGradient>
<linearGradient id="paint30_linear_43_60" x1="31.7087" y1="3.92344" x2="10.7317" y2="53.0074" gradientUnits="userSpaceOnUse">
<stop offset="0.0535929" stop-color="#576265"/>
<stop offset="0.190214" stop-color="#9EA1A1"/>
<stop offset="0.233916" stop-color="#848B8A"/>
<stop offset="0.393482" stop-color="#576265"/>
<stop offset="0.654251" stop-color="#576265"/>
<stop offset="0.751303" stop-color="#6F7879"/>
<stop offset="0.838665" stop-color="#929797"/>
<stop offset="0.895833" stop-color="#757A7B"/>
<stop offset="1" stop-color="#576265"/>
</linearGradient>
<radialGradient id="paint31_radial_43_60" cx="0" cy="0" r="1" gradientUnits="userSpaceOnUse" gradientTransform="translate(21.3594 2.05081) rotate(85.0875) scale(24.1817 23.4221)">
<stop stop-color="white"/>
<stop offset="1" stop-color="white" stop-opacity="0"/>
</radialGradient>
<linearGradient id="paint32_linear_43_60" x1="22.0133" y1="-4.26064" x2="19.883" y2="21.0665" gradientUnits="userSpaceOnUse">
<stop offset="0.0265024" stop-color="#737A79"/>
<stop offset="0.271293" stop-color="#848B8A"/>
<stop offset="1" stop-color="#CCD2D2"/>
</linearGradient>
<radialGradient id="paint33_radial_43_60" cx="0" cy="0" r="1" gradientUnits="userSpaceOnUse" gradientTransform="translate(-1.04361e-06 -0.973363) rotate(22.5164) scale(23.4984 20.3538)">
<stop stop-color="white"/>
<stop offset="1" stop-color="white" stop-opacity="0"/>
</radialGradient>
<linearGradient id="paint34_linear_43_60" x1="29.9403" y1="18.2775" x2="-11.0705" y2="12.9877" gradientUnits="userSpaceOnUse">
<stop offset="0.0677083" stop-color="#576265"/>
<stop offset="0.21875" stop-color="#9EA1A1"/>
<stop offset="0.453125" stop-color="#848B8A"/>
<stop offset="0.524381" stop-color="#576265"/>
<stop offset="0.796875" stop-color="#576265"/>
<stop offset="0.895833" stop-color="#757A7B"/>
<stop offset="1" stop-color="#576265"/>
</linearGradient>
<radialGradient id="paint35_radial_43_60" cx="0" cy="0" r="1" gradientUnits="userSpaceOnUse" gradientTransform="translate(15.6624 3.74396) rotate(88.8151) scale(19.8693 17.1521)">
<stop stop-color="white"/>
<stop offset="1" stop-color="white" stop-opacity="0"/>
</radialGradient>
</defs>
</svg>
