<svg width="7" height="14" viewBox="0 0 7 14" fill="none" xmlns="http://www.w3.org/2000/svg">
<path fill-rule="evenodd" clip-rule="evenodd" d="M3.69205 0.934479C5.21613 0.908458 6.61023 1.89397 6.70548 3.41529C6.7471 4.08015 6.69991 4.6527 6.26274 5.06265C6.04377 5.26799 5.70175 5.38505 5.40485 5.50543C5.31829 6.16779 5.22444 6.82957 5.15877 7.49484C5.02349 8.86514 4.40094 10.1472 4.18729 11.5064C3.95392 12.9911 3.86201 13.4618 3.78749 13.5534C3.67225 13.6949 3.46414 13.6904 3.34393 13.5437C3.2885 13.476 3.09642 12.7554 3.01319 12.3028C2.95862 12.0061 2.92135 11.4012 2.93473 11.0295C2.96773 10.1107 3.59419 9.28324 3.48523 8.34583C3.44556 8.0046 3.39922 7.72135 3.39384 7.32262C3.38432 6.61769 3.50839 6.13035 3.61227 5.54118C3.44716 5.35338 3.30863 5.1807 3.34898 4.94746C3.37955 4.77097 3.46801 4.6749 3.7799 4.47957C4.39689 4.09314 4.08915 3.34129 3.28733 3.22975C2.8041 3.16252 2.23359 3.37726 2.28479 3.76216C2.30565 3.91876 2.41065 3.98667 2.72186 4.04475C3.00263 4.09715 3.06356 4.12991 3.09549 4.24575C3.10861 4.29336 3.084 4.35558 3.00355 4.4782C2.77819 4.82178 2.33471 4.85984 1.88791 4.78105C1.10624 4.50181 0.679371 3.99911 0.80699 3.28738C1.03114 2.0377 2.23839 0.959298 3.69205 0.934479Z" fill="#2109B5"/>
</svg>
