<svg width="13" height="13" viewBox="0 0 13 13" fill="none" xmlns="http://www.w3.org/2000/svg">
<path fill-rule="evenodd" clip-rule="evenodd" d="M6.24079 0.219593C6.31549 0.282634 6.50817 0.529807 6.59342 0.672038C7.0252 1.39224 6.98689 2.10192 6.47788 2.81222C6.32447 3.02629 6.18618 3.16335 6.12358 3.16335C6.06508 3.16335 5.99681 3.09949 5.84818 2.90575C5.24946 2.12521 5.23234 1.31947 5.79777 0.530459C5.95118 0.316386 6.08946 0.179321 6.15206 0.179321C6.17459 0.179321 6.21451 0.197451 6.24079 0.219593ZM10.4618 1.58259C10.5241 1.64069 10.5117 1.78217 10.4124 2.14778C10.1616 3.07057 9.56812 3.74522 8.6728 4.12529C8.27838 4.29275 7.85539 4.40674 7.40506 4.46698C7.05097 4.51434 7.00814 4.44952 7.10603 4.01428C7.25242 3.36321 7.62529 2.73541 8.08983 2.35782C8.54873 1.98484 9.26778 1.68528 9.9763 1.57189C10.2971 1.52056 10.3976 1.52276 10.4618 1.58259ZM2.36275 1.58242C3.06863 1.7095 3.7389 1.99457 4.18581 2.35782C4.65035 2.73541 5.02322 3.36321 5.16962 4.01428C5.2675 4.44952 5.22467 4.51434 4.87059 4.46698C3.62175 4.29992 2.69412 3.76984 2.20125 2.94161C1.99469 2.59448 1.83367 2.14768 1.78153 1.77693C1.74598 1.52419 1.84853 1.48986 2.36275 1.58242ZM11.2852 4.00448C11.5545 4.03988 11.961 4.14365 12.0754 4.20621C12.1122 4.22632 12.1423 4.26075 12.1423 4.28272C12.1423 4.37124 11.7721 4.71926 11.4735 4.9116C10.971 5.23515 10.3681 5.37934 9.75776 5.32194C9.37366 5.2858 8.79128 5.14084 8.73799 5.06807C8.69453 5.00874 8.76593 4.91034 9.0086 4.69522C9.43269 4.31925 9.91141 4.08379 10.4182 4.00184C10.6868 3.95841 10.9404 3.95919 11.2852 4.00448ZM1.87228 4.00004C2.37395 4.08936 2.85208 4.32738 3.26478 4.69321C3.50954 4.91017 3.5812 5.00864 3.53766 5.06807C3.48436 5.14084 2.90199 5.2858 2.51788 5.32194C1.73151 5.39591 0.999052 5.14565 0.397418 4.59747C0.0590286 4.28914 0.0582266 4.24495 0.389095 4.1373C0.820375 3.99695 1.50111 3.93396 1.87228 4.00004ZM8.14426 5.94743C9.14691 6.12464 9.91831 6.53491 10.4014 7.14792C10.6819 7.50382 10.9629 8.16093 11.0031 8.55467C11.0177 8.69821 11.0124 8.72326 10.9579 8.76458C10.9008 8.80789 10.8772 8.80919 10.6497 8.78176C9.76716 8.67526 8.9707 8.35 8.45613 7.88595C7.9951 7.47019 7.65962 6.85179 7.53522 6.18831C7.478 5.88324 7.57158 5.84623 8.14426 5.94743ZM4.72633 5.95636C4.7656 6.00691 4.76777 6.04259 4.74042 6.18831C4.61602 6.85179 4.28054 7.47019 3.81951 7.88595C3.30494 8.35 2.50849 8.67526 1.62592 8.78176C1.39847 8.80919 1.37481 8.80789 1.31773 8.76458C1.26328 8.72326 1.2579 8.69821 1.27252 8.55467C1.31271 8.16093 1.59379 7.50382 1.87425 7.14792C2.36055 6.53082 3.13482 6.12066 4.13941 5.94796C4.54474 5.87827 4.66703 5.88003 4.72633 5.95636Z" fill="#92B509"/>
<path d="M6.31094 4.70991C6.39717 5.3833 6.4747 5.96476 6.4832 6.00205C6.49836 6.06857 6.50118 6.06714 6.63423 5.92682C7.03608 5.50296 7.54037 5.17103 8.0105 5.02103C8.10042 4.99232 8.18002 4.96884 8.18736 4.96884C8.19473 4.96882 8.12116 5.01797 8.02387 5.078C7.38672 5.47137 6.9349 6.1678 6.77468 7.00338C6.6875 7.45818 6.55495 8.75475 6.68661 9.8685C6.79497 10.7852 7.24442 12.1764 7.24888 12.1793L4.99314 12.1764C4.99314 12.1764 5.46537 10.9251 5.59439 10.0959C5.80001 8.77458 5.61196 7.33872 5.42011 6.68652C5.21424 5.98663 4.77683 5.39611 4.19006 5.02589C4.11432 4.97812 4.13364 4.98121 4.3246 5.04733C4.7697 5.20145 5.25306 5.52029 5.58726 5.88023C5.68475 5.98522 5.77283 6.06288 5.78302 6.05283C5.79319 6.04277 5.8716 5.48726 5.95727 4.81836C6.04297 4.14946 6.12231 3.57595 6.1336 3.54388C6.1454 3.51043 6.22102 4.00771 6.31094 4.70991Z" fill="#92B509"/>
</svg>
