<svg width="12" height="13" viewBox="0 0 12 13" fill="none" xmlns="http://www.w3.org/2000/svg">
<path fill-rule="evenodd" clip-rule="evenodd" d="M10.6937 0.7304C12.658 1.88598 12.3578 4.88069 10.1287 6.36801C9.51816 6.77528 9.01869 7.26637 9.01869 7.45934C9.01869 8.06536 9.79266 8.85156 10.7546 9.2227L11.6804 9.57978L10.9282 9.75795C10.5143 9.85607 10.1759 10.0024 10.1759 10.0834C10.1759 10.1647 10.4622 10.4967 10.8124 10.8217L11.4489 11.4124L10.4086 11.2576C9.04901 11.0551 8.06072 10.4116 7.63 9.44929L7.28282 8.67339L5.89412 10.0586C4.16218 11.7865 3.29193 12.3805 2.49112 12.3818C0.440703 12.385 -0.774871 9.92934 0.560363 8.48192C1.47089 7.49448 3.33174 7.835 3.61064 9.04001C3.79811 9.84904 3.11673 10.9311 2.48371 10.8297C1.81922 10.7233 1.68127 10.1233 2.28235 9.95293C2.95263 9.76297 2.895 9.16423 2.18792 8.97176C1.00914 8.65106 0.42103 10.2204 1.43247 10.9883C2.17218 11.5502 2.93781 11.4704 3.59004 10.763C4.70771 9.55143 4.08905 8.0764 2.06872 7.13387C1.40978 6.82672 0.928368 6.45082 0.979518 6.28344C1.02997 6.11857 2.28189 5.29399 3.76154 4.45083C5.33633 3.55372 6.99212 2.38284 7.75405 1.62776C9.12956 0.264907 9.63829 0.109576 10.6937 0.7304ZM8.48775 2.24005C7.61703 3.11759 7.61356 3.12863 8.08086 3.55071C8.33985 3.78484 8.68402 4.39813 8.84534 4.91381L9.13858 5.85107L9.8945 5.35271C11.1726 4.51005 11.4633 2.96527 10.5335 1.95749C9.78826 1.14947 9.53529 1.18435 8.48775 2.24005ZM4.38391 5.23426C3.49607 5.71883 2.76955 6.15948 2.76955 6.21318C2.76955 6.26688 3.13894 6.54693 3.59027 6.83576C4.0747 7.14567 4.57486 7.75746 4.81094 8.3296L5.21111 9.29823L6.30471 8.25482C7.48557 7.12835 7.63069 6.57077 7.05623 5.36676C6.7697 4.76576 6.51834 4.51457 6.06192 4.37254C6.02697 4.36175 5.27175 4.74945 4.38391 5.23426Z" fill="#B56509"/>
</svg>
