<svg width="26" height="26" viewBox="0 0 26 26" fill="none" xmlns="http://www.w3.org/2000/svg">
<path fill-rule="evenodd" clip-rule="evenodd" d="M14.4163 15.9882C14.6063 16.8872 15.4163 18.1182 15.4163 18.1182H11.4163C11.4163 18.1182 12.1286 17.3888 12.4163 16.8157C13.1007 15.4518 12.4163 12.9082 12.4163 12.9082C4.62443 15.0899 2.87273 2.11815 11.1663 2.11815C14.0559 -2.16283 21.1627 1.44255 19.0563 6.38816C22.4876 9.65989 18.6482 15.3889 14.4163 13.8582C14.4163 13.8582 14.2442 15.1743 14.4163 15.9882ZM2.545 6.68843C0.821729 6.68843 0.544998 7.71736 0.544998 7.71736V11.6884H4.545V7.71736C4.545 7.71736 4.26827 6.68843 2.545 6.68843ZM25.545 7.71736C25.545 7.71736 25.2683 6.68843 23.545 6.68843C21.8217 6.68843 21.545 7.71736 21.545 7.71736V11.6884H25.545V7.71736ZM4.6485 15.6884C2.92523 15.6884 2.6485 16.7174 2.6485 16.7174V20.6884H6.6485V16.7174C6.6485 16.7174 6.37177 15.6884 4.6485 15.6884ZM23.4395 16.7174C23.4395 16.7174 23.1628 15.6884 21.4395 15.6884C19.7162 15.6884 19.4395 16.7174 19.4395 16.7174V20.6884H23.4395V16.7174ZM13.044 20.2175C11.3207 20.2175 11.044 21.2464 11.044 21.2464V25.2175H15.044V21.2464C15.044 21.2464 14.7673 20.2175 13.044 20.2175Z" fill="#333333"/>
</svg>
