<svg width="20" height="21" viewBox="0 0 20 21" fill="none" xmlns="http://www.w3.org/2000/svg">
<path fill-rule="evenodd" clip-rule="evenodd" d="M6.97079 1.13488C6.82774 1.52497 6.59977 2.1947 6.46412 2.62333C6.06905 3.87152 5.87252 3.93076 5.53934 2.90214C5.38296 2.41961 5.18934 1.99982 5.10905 1.96896C5.02876 1.93809 4.91919 2.27279 4.86542 2.71276C4.8118 3.15258 4.70252 3.75123 4.62281 4.04304C4.54296 4.33503 4.46499 4.74998 4.44934 4.96538C4.41673 5.41804 4.00035 6.06808 3.47905 6.48086C3.23832 6.6714 3.06629 7.02929 2.96615 7.54769C2.84861 8.15652 2.73745 8.3544 2.4589 8.44983C2.26281 8.51707 1.62934 8.73097 1.05151 8.92518C0.0671627 9.25604 0.000785828 9.3081 0.000785828 9.75008C0.000785828 10.3337 1.05571 12.0231 1.13267 11.5627C1.16992 11.34 1.27368 11.2938 1.56934 11.3682C2.23021 11.5342 2.296 11.5756 2.4605 11.9296C2.59731 12.2238 2.56774 12.301 2.25687 12.464C1.98079 12.6089 1.8431 12.6067 1.68397 12.4545C1.51441 12.2925 1.45615 12.3209 1.37818 12.6035C1.30789 12.8586 1.41195 13.1263 1.76455 13.5968C2.02992 13.951 2.31238 14.276 2.39209 14.319C2.4718 14.3621 3.12397 14.259 3.84137 14.09C4.55876 13.9208 5.81789 13.7312 6.63963 13.6687L8.13354 13.5549L8.81354 14.3137C9.18745 14.731 9.70557 15.1952 9.96455 15.345C10.4251 15.6115 10.6419 16.0234 10.2246 15.8389C10.0505 15.7621 10.0373 15.841 10.149 16.2897C10.264 16.751 10.2079 17.0295 9.78035 18.1193C9.26658 19.4296 9.20861 19.7169 9.36412 20.1836C9.48455 20.5451 9.67847 20.5154 10.2046 20.0551C10.9722 19.3834 11.5967 19.0797 13.8414 18.2869C15.8156 17.5894 16.0156 17.4837 16.0189 17.1353C16.0231 16.6923 16.4398 16.2792 17.4646 15.7015C17.8631 15.477 18.4119 15.0667 18.6843 14.7901L19.1793 14.287L18.7893 14.1162C18.5747 14.0224 18.3659 13.8457 18.3253 13.7237C18.2846 13.6018 18.5453 12.9971 18.9046 12.3803C19.5414 11.2869 20.0008 9.93545 20.0008 9.15493C20.0008 8.61535 19.8535 8.66523 19.0505 9.47728C18.5934 9.93945 18.3867 10.0734 18.4567 9.86187C18.8759 8.59566 18.997 7.88505 18.9577 6.92301L18.9138 5.84834L18.5128 6.72429C18.2922 7.20615 18.0719 7.60024 18.0231 7.60024C17.9744 7.60024 17.9766 7.23501 18.028 6.78853C18.1156 6.02887 18.0914 5.94278 17.6511 5.44724C16.9246 4.62951 15.8835 4.14299 13.9954 3.73888C12.4143 3.40035 12.1341 3.38533 10.7428 3.56436C9.90542 3.67197 9.1547 3.83582 9.07441 3.92825C8.76441 4.28514 8.59542 4.04955 8.20716 2.71994C7.42644 0.0460329 7.38818 -0.00302064 6.97079 1.13488Z" fill="#F5F5F5"/>
</svg>
