<svg width="81" height="8" viewBox="0 0 81 8" fill="none" xmlns="http://www.w3.org/2000/svg">
<path d="M13.6812 0.448465C13.8051 0.390071 13.9436 0.359497 14.0844 0.359497H67.0911C67.2319 0.359497 67.3705 0.390071 67.4943 0.448465L80.0668 6.37471C80.8422 6.74017 80.5447 7.76731 79.6636 7.76731H1.51192C0.630789 7.76731 0.333359 6.74017 1.10867 6.37472L13.6812 0.448465Z" fill="#240A0A"/>
<path fill-rule="evenodd" clip-rule="evenodd" d="M14.2989 1.84106L4.86956 6.28575H76.306L66.8766 1.84106H14.2989ZM14.0844 0.359497C13.9436 0.359497 13.8051 0.390071 13.6812 0.448465L1.10867 6.37472C0.333359 6.74017 0.630789 7.76731 1.51192 7.76731H79.6636C80.5447 7.76731 80.8422 6.74017 80.0668 6.37471L67.4943 0.448465C67.3705 0.390071 67.2319 0.359497 67.0911 0.359497H14.0844Z" fill="url(#paint0_linear_362_3482)"/>
<path fill-rule="evenodd" clip-rule="evenodd" d="M14.2989 1.84106L4.86956 6.28575H76.306L66.8766 1.84106H14.2989ZM14.0844 0.359497C13.9436 0.359497 13.8051 0.390071 13.6812 0.448465L1.10867 6.37472C0.333359 6.74017 0.630789 7.76731 1.51192 7.76731H79.6636C80.5447 7.76731 80.8422 6.74017 80.0668 6.37471L67.4943 0.448465C67.3705 0.390071 67.2319 0.359497 67.0911 0.359497H14.0844Z" fill="url(#paint1_radial_362_3482)" style="mix-blend-mode:overlay"/>
<path fill-rule="evenodd" clip-rule="evenodd" d="M14.2989 1.84106L4.86956 6.28575H76.306L66.8766 1.84106H14.2989ZM14.0844 0.359497C13.9436 0.359497 13.8051 0.390071 13.6812 0.448465L1.10867 6.37472C0.333359 6.74017 0.630789 7.76731 1.51192 7.76731H79.6636C80.5447 7.76731 80.8422 6.74017 80.0668 6.37471L67.4943 0.448465C67.3705 0.390071 67.2319 0.359497 67.0911 0.359497H14.0844Z" fill="#AD800C" style="mix-blend-mode:color"/>
<defs>
<linearGradient id="paint0_linear_362_3482" x1="-1.84573" y1="5.2675" x2="6.47564" y2="-21.7636" gradientUnits="userSpaceOnUse">
<stop offset="0.0677083" stop-color="#576265"/>
<stop offset="0.21875" stop-color="#9EA1A1"/>
<stop offset="0.453125" stop-color="#848B8A"/>
<stop offset="0.524381" stop-color="#576265"/>
<stop offset="0.796875" stop-color="#576265"/>
<stop offset="0.895833" stop-color="#757A7B"/>
<stop offset="1" stop-color="#576265"/>
</linearGradient>
<radialGradient id="paint1_radial_362_3482" cx="0" cy="0" r="1" gradientUnits="userSpaceOnUse" gradientTransform="translate(-1.84574 -0.281815) rotate(8.6628) scale(39.3633 14.3514)">
<stop stop-color="white"/>
<stop offset="1" stop-color="white" stop-opacity="0"/>
</radialGradient>
</defs>
</svg>
