<svg width="81" height="33" viewBox="0 0 81 33" fill="none" xmlns="http://www.w3.org/2000/svg">
<path d="M13.6812 25.4485C13.8051 25.3901 13.9436 25.3595 14.0844 25.3595H67.0911C67.2319 25.3595 67.3705 25.3901 67.4943 25.4485L80.0668 31.3747C80.8422 31.7402 80.5447 32.7673 79.6636 32.7673H1.51192C0.630789 32.7673 0.333359 31.7402 1.10867 31.3747L13.6812 25.4485Z" fill="#240A0A"/>
<path fill-rule="evenodd" clip-rule="evenodd" d="M14.2989 26.8411L4.86956 31.2857H76.306L66.8766 26.8411H14.2989ZM14.0844 25.3595C13.9436 25.3595 13.8051 25.3901 13.6812 25.4485L1.10867 31.3747C0.333359 31.7402 0.630789 32.7673 1.51192 32.7673H79.6636C80.5447 32.7673 80.8422 31.7402 80.0668 31.3747L67.4943 25.4485C67.3705 25.3901 67.2319 25.3595 67.0911 25.3595H14.0844Z" fill="url(#paint0_linear_362_3481)"/>
<path fill-rule="evenodd" clip-rule="evenodd" d="M14.2989 26.8411L4.86956 31.2857H76.306L66.8766 26.8411H14.2989ZM14.0844 25.3595C13.9436 25.3595 13.8051 25.3901 13.6812 25.4485L1.10867 31.3747C0.333359 31.7402 0.630789 32.7673 1.51192 32.7673H79.6636C80.5447 32.7673 80.8422 31.7402 80.0668 31.3747L67.4943 25.4485C67.3705 25.3901 67.2319 25.3595 67.0911 25.3595H14.0844Z" fill="url(#paint1_radial_362_3481)" style="mix-blend-mode:overlay"/>
<path fill-rule="evenodd" clip-rule="evenodd" d="M14.2989 26.8411L4.86956 31.2857H76.306L66.8766 26.8411H14.2989ZM14.0844 25.3595C13.9436 25.3595 13.8051 25.3901 13.6812 25.4485L1.10867 31.3747C0.333359 31.7402 0.630789 32.7673 1.51192 32.7673H79.6636C80.5447 32.7673 80.8422 31.7402 80.0668 31.3747L67.4943 25.4485C67.3705 25.3901 67.2319 25.3595 67.0911 25.3595H14.0844Z" fill="#AD800C" style="mix-blend-mode:color"/>
<path d="M13.6812 23.6418C13.8051 23.5834 13.9436 23.5528 14.0844 23.5528H67.0911C67.2319 23.5528 67.3705 23.5834 67.4943 23.6418L80.0668 29.568C80.8422 29.9335 80.5447 30.9606 79.6636 30.9606H1.51192C0.630789 30.9606 0.333359 29.9335 1.10867 29.568L13.6812 23.6418Z" fill="#240A0A"/>
<path fill-rule="evenodd" clip-rule="evenodd" d="M14.2989 25.0344L4.86956 29.479H76.306L66.8766 25.0344H14.2989ZM14.0844 23.5528C13.9436 23.5528 13.8051 23.5834 13.6812 23.6418L1.10867 29.568C0.333359 29.9335 0.630789 30.9606 1.51192 30.9606H79.6636C80.5447 30.9606 80.8422 29.9335 80.0668 29.568L67.4943 23.6418C67.3705 23.5834 67.2319 23.5528 67.0911 23.5528H14.0844Z" fill="url(#paint2_linear_362_3481)"/>
<path fill-rule="evenodd" clip-rule="evenodd" d="M14.2989 25.0344L4.86956 29.479H76.306L66.8766 25.0344H14.2989ZM14.0844 23.5528C13.9436 23.5528 13.8051 23.5834 13.6812 23.6418L1.10867 29.568C0.333359 29.9335 0.630789 30.9606 1.51192 30.9606H79.6636C80.5447 30.9606 80.8422 29.9335 80.0668 29.568L67.4943 23.6418C67.3705 23.5834 67.2319 23.5528 67.0911 23.5528H14.0844Z" fill="url(#paint3_radial_362_3481)" style="mix-blend-mode:overlay"/>
<path fill-rule="evenodd" clip-rule="evenodd" d="M14.2989 25.0344L4.86956 29.479H76.306L66.8766 25.0344H14.2989ZM14.0844 23.5528C13.9436 23.5528 13.8051 23.5834 13.6812 23.6418L1.10867 29.568C0.333359 29.9335 0.630789 30.9606 1.51192 30.9606H79.6636C80.5447 30.9606 80.8422 29.9335 80.0668 29.568L67.4943 23.6418C67.3705 23.5834 67.2319 23.5528 67.0911 23.5528H14.0844Z" fill="#AD800C" style="mix-blend-mode:color"/>
<path d="M13.6812 21.8352C13.8051 21.7768 13.9436 21.7462 14.0844 21.7462H67.0911C67.2319 21.7462 67.3705 21.7768 67.4943 21.8352L80.0668 27.7614C80.8422 28.1269 80.5447 29.154 79.6636 29.154H1.51192C0.630789 29.154 0.333359 28.1269 1.10867 27.7614L13.6812 21.8352Z" fill="#240A0A"/>
<path fill-rule="evenodd" clip-rule="evenodd" d="M14.2989 23.2277L4.86956 27.6724H76.306L66.8766 23.2277H14.2989ZM14.0844 21.7462C13.9436 21.7462 13.8051 21.7768 13.6812 21.8352L1.10867 27.7614C0.333359 28.1269 0.630789 29.154 1.51192 29.154H79.6636C80.5447 29.154 80.8422 28.1269 80.0668 27.7614L67.4943 21.8352C67.3705 21.7768 67.2319 21.7462 67.0911 21.7462H14.0844Z" fill="url(#paint4_linear_362_3481)"/>
<path fill-rule="evenodd" clip-rule="evenodd" d="M14.2989 23.2277L4.86956 27.6724H76.306L66.8766 23.2277H14.2989ZM14.0844 21.7462C13.9436 21.7462 13.8051 21.7768 13.6812 21.8352L1.10867 27.7614C0.333359 28.1269 0.630789 29.154 1.51192 29.154H79.6636C80.5447 29.154 80.8422 28.1269 80.0668 27.7614L67.4943 21.8352C67.3705 21.7768 67.2319 21.7462 67.0911 21.7462H14.0844Z" fill="url(#paint5_radial_362_3481)" style="mix-blend-mode:overlay"/>
<path fill-rule="evenodd" clip-rule="evenodd" d="M14.2989 23.2277L4.86956 27.6724H76.306L66.8766 23.2277H14.2989ZM14.0844 21.7462C13.9436 21.7462 13.8051 21.7768 13.6812 21.8352L1.10867 27.7614C0.333359 28.1269 0.630789 29.154 1.51192 29.154H79.6636C80.5447 29.154 80.8422 28.1269 80.0668 27.7614L67.4943 21.8352C67.3705 21.7768 67.2319 21.7462 67.0911 21.7462H14.0844Z" fill="#AD800C" style="mix-blend-mode:color"/>
<path d="M13.6812 20.0286C13.8051 19.9702 13.9436 19.9396 14.0844 19.9396H67.0911C67.2319 19.9396 67.3705 19.9702 67.4943 20.0286L80.0668 25.9548C80.8422 26.3203 80.5447 27.3474 79.6636 27.3474H1.51192C0.630789 27.3474 0.333359 26.3203 1.10867 25.9548L13.6812 20.0286Z" fill="#240A0A"/>
<path fill-rule="evenodd" clip-rule="evenodd" d="M14.2989 21.4212L4.86956 25.8659H76.306L66.8766 21.4212H14.2989ZM14.0844 19.9396C13.9436 19.9396 13.8051 19.9702 13.6812 20.0286L1.10867 25.9548C0.333359 26.3203 0.630789 27.3474 1.51192 27.3474H79.6636C80.5447 27.3474 80.8422 26.3203 80.0668 25.9548L67.4943 20.0286C67.3705 19.9702 67.2319 19.9396 67.0911 19.9396H14.0844Z" fill="url(#paint6_linear_362_3481)"/>
<path fill-rule="evenodd" clip-rule="evenodd" d="M14.2989 21.4212L4.86956 25.8659H76.306L66.8766 21.4212H14.2989ZM14.0844 19.9396C13.9436 19.9396 13.8051 19.9702 13.6812 20.0286L1.10867 25.9548C0.333359 26.3203 0.630789 27.3474 1.51192 27.3474H79.6636C80.5447 27.3474 80.8422 26.3203 80.0668 25.9548L67.4943 20.0286C67.3705 19.9702 67.2319 19.9396 67.0911 19.9396H14.0844Z" fill="url(#paint7_radial_362_3481)" style="mix-blend-mode:overlay"/>
<path fill-rule="evenodd" clip-rule="evenodd" d="M14.2989 21.4212L4.86956 25.8659H76.306L66.8766 21.4212H14.2989ZM14.0844 19.9396C13.9436 19.9396 13.8051 19.9702 13.6812 20.0286L1.10867 25.9548C0.333359 26.3203 0.630789 27.3474 1.51192 27.3474H79.6636C80.5447 27.3474 80.8422 26.3203 80.0668 25.9548L67.4943 20.0286C67.3705 19.9702 67.2319 19.9396 67.0911 19.9396H14.0844Z" fill="#AD800C" style="mix-blend-mode:color"/>
<path d="M13.6812 18.222C13.8051 18.1636 13.9436 18.133 14.0844 18.133H67.0911C67.2319 18.133 67.3705 18.1636 67.4943 18.222L80.0668 24.1482C80.8422 24.5137 80.5447 25.5408 79.6636 25.5408H1.51192C0.630789 25.5408 0.333359 24.5137 1.10867 24.1482L13.6812 18.222Z" fill="#240A0A"/>
<path fill-rule="evenodd" clip-rule="evenodd" d="M14.2989 19.6146L4.86956 24.0593H76.306L66.8766 19.6146H14.2989ZM14.0844 18.133C13.9436 18.133 13.8051 18.1636 13.6812 18.222L1.10867 24.1482C0.333359 24.5137 0.630789 25.5408 1.51192 25.5408H79.6636C80.5447 25.5408 80.8422 24.5137 80.0668 24.1482L67.4943 18.222C67.3705 18.1636 67.2319 18.133 67.0911 18.133H14.0844Z" fill="url(#paint8_linear_362_3481)"/>
<path fill-rule="evenodd" clip-rule="evenodd" d="M14.2989 19.6146L4.86956 24.0593H76.306L66.8766 19.6146H14.2989ZM14.0844 18.133C13.9436 18.133 13.8051 18.1636 13.6812 18.222L1.10867 24.1482C0.333359 24.5137 0.630789 25.5408 1.51192 25.5408H79.6636C80.5447 25.5408 80.8422 24.5137 80.0668 24.1482L67.4943 18.222C67.3705 18.1636 67.2319 18.133 67.0911 18.133H14.0844Z" fill="url(#paint9_radial_362_3481)" style="mix-blend-mode:overlay"/>
<path fill-rule="evenodd" clip-rule="evenodd" d="M14.2989 19.6146L4.86956 24.0593H76.306L66.8766 19.6146H14.2989ZM14.0844 18.133C13.9436 18.133 13.8051 18.1636 13.6812 18.222L1.10867 24.1482C0.333359 24.5137 0.630789 25.5408 1.51192 25.5408H79.6636C80.5447 25.5408 80.8422 24.5137 80.0668 24.1482L67.4943 18.222C67.3705 18.1636 67.2319 18.133 67.0911 18.133H14.0844Z" fill="#AD800C" style="mix-blend-mode:color"/>
<path d="M13.6812 16.4153C13.8051 16.3569 13.9436 16.3263 14.0844 16.3263H67.0911C67.2319 16.3263 67.3705 16.3569 67.4943 16.4153L80.0668 22.3415C80.8422 22.707 80.5447 23.7341 79.6636 23.7341H1.51192C0.630789 23.7341 0.333359 22.707 1.10867 22.3415L13.6812 16.4153Z" fill="#240A0A"/>
<path fill-rule="evenodd" clip-rule="evenodd" d="M14.2989 17.8079L4.86956 22.2526H76.306L66.8766 17.8079H14.2989ZM14.0844 16.3263C13.9436 16.3263 13.8051 16.3569 13.6812 16.4153L1.10867 22.3415C0.333359 22.707 0.630789 23.7341 1.51192 23.7341H79.6636C80.5447 23.7341 80.8422 22.707 80.0668 22.3415L67.4943 16.4153C67.3705 16.3569 67.2319 16.3263 67.0911 16.3263H14.0844Z" fill="url(#paint10_linear_362_3481)"/>
<path fill-rule="evenodd" clip-rule="evenodd" d="M14.2989 17.8079L4.86956 22.2526H76.306L66.8766 17.8079H14.2989ZM14.0844 16.3263C13.9436 16.3263 13.8051 16.3569 13.6812 16.4153L1.10867 22.3415C0.333359 22.707 0.630789 23.7341 1.51192 23.7341H79.6636C80.5447 23.7341 80.8422 22.707 80.0668 22.3415L67.4943 16.4153C67.3705 16.3569 67.2319 16.3263 67.0911 16.3263H14.0844Z" fill="url(#paint11_radial_362_3481)" style="mix-blend-mode:overlay"/>
<path fill-rule="evenodd" clip-rule="evenodd" d="M14.2989 17.8079L4.86956 22.2526H76.306L66.8766 17.8079H14.2989ZM14.0844 16.3263C13.9436 16.3263 13.8051 16.3569 13.6812 16.4153L1.10867 22.3415C0.333359 22.707 0.630789 23.7341 1.51192 23.7341H79.6636C80.5447 23.7341 80.8422 22.707 80.0668 22.3415L67.4943 16.4153C67.3705 16.3569 67.2319 16.3263 67.0911 16.3263H14.0844Z" fill="#AD800C" style="mix-blend-mode:color"/>
<path d="M13.6812 14.6087C13.8051 14.5503 13.9436 14.5197 14.0844 14.5197H67.0911C67.2319 14.5197 67.3705 14.5503 67.4943 14.6087L80.0668 20.535C80.8422 20.9004 80.5447 21.9276 79.6636 21.9276H1.51192C0.630789 21.9276 0.333359 20.9004 1.10867 20.535L13.6812 14.6087Z" fill="#240A0A"/>
<path fill-rule="evenodd" clip-rule="evenodd" d="M14.2989 16.0013L4.86956 20.446H76.306L66.8766 16.0013H14.2989ZM14.0844 14.5197C13.9436 14.5197 13.8051 14.5503 13.6812 14.6087L1.10867 20.535C0.333359 20.9004 0.630789 21.9276 1.51192 21.9276H79.6636C80.5447 21.9276 80.8422 20.9004 80.0668 20.535L67.4943 14.6087C67.3705 14.5503 67.2319 14.5197 67.0911 14.5197H14.0844Z" fill="url(#paint12_linear_362_3481)"/>
<path fill-rule="evenodd" clip-rule="evenodd" d="M14.2989 16.0013L4.86956 20.446H76.306L66.8766 16.0013H14.2989ZM14.0844 14.5197C13.9436 14.5197 13.8051 14.5503 13.6812 14.6087L1.10867 20.535C0.333359 20.9004 0.630789 21.9276 1.51192 21.9276H79.6636C80.5447 21.9276 80.8422 20.9004 80.0668 20.535L67.4943 14.6087C67.3705 14.5503 67.2319 14.5197 67.0911 14.5197H14.0844Z" fill="url(#paint13_radial_362_3481)" style="mix-blend-mode:overlay"/>
<path fill-rule="evenodd" clip-rule="evenodd" d="M14.2989 16.0013L4.86956 20.446H76.306L66.8766 16.0013H14.2989ZM14.0844 14.5197C13.9436 14.5197 13.8051 14.5503 13.6812 14.6087L1.10867 20.535C0.333359 20.9004 0.630789 21.9276 1.51192 21.9276H79.6636C80.5447 21.9276 80.8422 20.9004 80.0668 20.535L67.4943 14.6087C67.3705 14.5503 67.2319 14.5197 67.0911 14.5197H14.0844Z" fill="#AD800C" style="mix-blend-mode:color"/>
<path d="M13.6812 12.802C13.8051 12.7436 13.9436 12.713 14.0844 12.713H67.0911C67.2319 12.713 67.3705 12.7436 67.4943 12.802L80.0668 18.7282C80.8422 19.0937 80.5447 20.1208 79.6636 20.1208H1.51192C0.630789 20.1208 0.333359 19.0937 1.10867 18.7282L13.6812 12.802Z" fill="#240A0A"/>
<path fill-rule="evenodd" clip-rule="evenodd" d="M14.2989 14.1946L4.86956 18.6393H76.306L66.8766 14.1946H14.2989ZM14.0844 12.713C13.9436 12.713 13.8051 12.7436 13.6812 12.802L1.10867 18.7282C0.333359 19.0937 0.630789 20.1208 1.51192 20.1208H79.6636C80.5447 20.1208 80.8422 19.0937 80.0668 18.7282L67.4943 12.802C67.3705 12.7436 67.2319 12.713 67.0911 12.713H14.0844Z" fill="url(#paint14_linear_362_3481)"/>
<path fill-rule="evenodd" clip-rule="evenodd" d="M14.2989 14.1946L4.86956 18.6393H76.306L66.8766 14.1946H14.2989ZM14.0844 12.713C13.9436 12.713 13.8051 12.7436 13.6812 12.802L1.10867 18.7282C0.333359 19.0937 0.630789 20.1208 1.51192 20.1208H79.6636C80.5447 20.1208 80.8422 19.0937 80.0668 18.7282L67.4943 12.802C67.3705 12.7436 67.2319 12.713 67.0911 12.713H14.0844Z" fill="url(#paint15_radial_362_3481)" style="mix-blend-mode:overlay"/>
<path fill-rule="evenodd" clip-rule="evenodd" d="M14.2989 14.1946L4.86956 18.6393H76.306L66.8766 14.1946H14.2989ZM14.0844 12.713C13.9436 12.713 13.8051 12.7436 13.6812 12.802L1.10867 18.7282C0.333359 19.0937 0.630789 20.1208 1.51192 20.1208H79.6636C80.5447 20.1208 80.8422 19.0937 80.0668 18.7282L67.4943 12.802C67.3705 12.7436 67.2319 12.713 67.0911 12.713H14.0844Z" fill="#AD800C" style="mix-blend-mode:color"/>
<path d="M13.6812 10.9955C13.8051 10.9371 13.9436 10.9066 14.0844 10.9066H67.0911C67.2319 10.9066 67.3705 10.9371 67.4943 10.9955L80.0668 16.9218C80.8422 17.2872 80.5447 18.3144 79.6636 18.3144H1.51192C0.630789 18.3144 0.333359 17.2872 1.10867 16.9218L13.6812 10.9955Z" fill="#240A0A"/>
<path fill-rule="evenodd" clip-rule="evenodd" d="M14.2989 12.3881L4.86956 16.8328H76.306L66.8766 12.3881H14.2989ZM14.0844 10.9066C13.9436 10.9066 13.8051 10.9371 13.6812 10.9955L1.10867 16.9218C0.333359 17.2872 0.630789 18.3144 1.51192 18.3144H79.6636C80.5447 18.3144 80.8422 17.2872 80.0668 16.9218L67.4943 10.9955C67.3705 10.9371 67.2319 10.9066 67.0911 10.9066H14.0844Z" fill="url(#paint16_linear_362_3481)"/>
<path fill-rule="evenodd" clip-rule="evenodd" d="M14.2989 12.3881L4.86956 16.8328H76.306L66.8766 12.3881H14.2989ZM14.0844 10.9066C13.9436 10.9066 13.8051 10.9371 13.6812 10.9955L1.10867 16.9218C0.333359 17.2872 0.630789 18.3144 1.51192 18.3144H79.6636C80.5447 18.3144 80.8422 17.2872 80.0668 16.9218L67.4943 10.9955C67.3705 10.9371 67.2319 10.9066 67.0911 10.9066H14.0844Z" fill="url(#paint17_radial_362_3481)" style="mix-blend-mode:overlay"/>
<path fill-rule="evenodd" clip-rule="evenodd" d="M14.2989 12.3881L4.86956 16.8328H76.306L66.8766 12.3881H14.2989ZM14.0844 10.9066C13.9436 10.9066 13.8051 10.9371 13.6812 10.9955L1.10867 16.9218C0.333359 17.2872 0.630789 18.3144 1.51192 18.3144H79.6636C80.5447 18.3144 80.8422 17.2872 80.0668 16.9218L67.4943 10.9955C67.3705 10.9371 67.2319 10.9066 67.0911 10.9066H14.0844Z" fill="#AD800C" style="mix-blend-mode:color"/>
<path d="M13.6812 9.18882C13.8051 9.13043 13.9436 9.09985 14.0844 9.09985H67.0911C67.2319 9.09985 67.3705 9.13043 67.4943 9.18882L80.0668 15.1151C80.8422 15.4805 80.5447 16.5077 79.6636 16.5077H1.51192C0.630789 16.5077 0.333359 15.4805 1.10867 15.1151L13.6812 9.18882Z" fill="#240A0A"/>
<path fill-rule="evenodd" clip-rule="evenodd" d="M14.2989 10.5814L4.86956 15.0261H76.306L66.8766 10.5814H14.2989ZM14.0844 9.09985C13.9436 9.09985 13.8051 9.13043 13.6812 9.18882L1.10867 15.1151C0.333359 15.4805 0.630789 16.5077 1.51192 16.5077H79.6636C80.5447 16.5077 80.8422 15.4805 80.0668 15.1151L67.4943 9.18882C67.3705 9.13043 67.2319 9.09985 67.0911 9.09985H14.0844Z" fill="url(#paint18_linear_362_3481)"/>
<path fill-rule="evenodd" clip-rule="evenodd" d="M14.2989 10.5814L4.86956 15.0261H76.306L66.8766 10.5814H14.2989ZM14.0844 9.09985C13.9436 9.09985 13.8051 9.13043 13.6812 9.18882L1.10867 15.1151C0.333359 15.4805 0.630789 16.5077 1.51192 16.5077H79.6636C80.5447 16.5077 80.8422 15.4805 80.0668 15.1151L67.4943 9.18882C67.3705 9.13043 67.2319 9.09985 67.0911 9.09985H14.0844Z" fill="url(#paint19_radial_362_3481)" style="mix-blend-mode:overlay"/>
<path fill-rule="evenodd" clip-rule="evenodd" d="M14.2989 10.5814L4.86956 15.0261H76.306L66.8766 10.5814H14.2989ZM14.0844 9.09985C13.9436 9.09985 13.8051 9.13043 13.6812 9.18882L1.10867 15.1151C0.333359 15.4805 0.630789 16.5077 1.51192 16.5077H79.6636C80.5447 16.5077 80.8422 15.4805 80.0668 15.1151L67.4943 9.18882C67.3705 9.13043 67.2319 9.09985 67.0911 9.09985H14.0844Z" fill="#AD800C" style="mix-blend-mode:color"/>
<path d="M13.6812 7.38224C13.8051 7.32385 13.9436 7.29327 14.0844 7.29327H67.0911C67.2319 7.29327 67.3705 7.32385 67.4943 7.38224L80.0668 13.3085C80.8422 13.6739 80.5447 14.7011 79.6636 14.7011H1.51192C0.630789 14.7011 0.333359 13.6739 1.10867 13.3085L13.6812 7.38224Z" fill="#240A0A"/>
<path fill-rule="evenodd" clip-rule="evenodd" d="M14.2989 8.77484L4.86956 13.2195H76.306L66.8766 8.77484H14.2989ZM14.0844 7.29327C13.9436 7.29327 13.8051 7.32385 13.6812 7.38224L1.10867 13.3085C0.333359 13.6739 0.630789 14.7011 1.51192 14.7011H79.6636C80.5447 14.7011 80.8422 13.6739 80.0668 13.3085L67.4943 7.38224C67.3705 7.32385 67.2319 7.29327 67.0911 7.29327H14.0844Z" fill="url(#paint20_linear_362_3481)"/>
<path fill-rule="evenodd" clip-rule="evenodd" d="M14.2989 8.77484L4.86956 13.2195H76.306L66.8766 8.77484H14.2989ZM14.0844 7.29327C13.9436 7.29327 13.8051 7.32385 13.6812 7.38224L1.10867 13.3085C0.333359 13.6739 0.630789 14.7011 1.51192 14.7011H79.6636C80.5447 14.7011 80.8422 13.6739 80.0668 13.3085L67.4943 7.38224C67.3705 7.32385 67.2319 7.29327 67.0911 7.29327H14.0844Z" fill="url(#paint21_radial_362_3481)" style="mix-blend-mode:overlay"/>
<path fill-rule="evenodd" clip-rule="evenodd" d="M14.2989 8.77484L4.86956 13.2195H76.306L66.8766 8.77484H14.2989ZM14.0844 7.29327C13.9436 7.29327 13.8051 7.32385 13.6812 7.38224L1.10867 13.3085C0.333359 13.6739 0.630789 14.7011 1.51192 14.7011H79.6636C80.5447 14.7011 80.8422 13.6739 80.0668 13.3085L67.4943 7.38224C67.3705 7.32385 67.2319 7.29327 67.0911 7.29327H14.0844Z" fill="#AD800C" style="mix-blend-mode:color"/>
<path d="M13.6812 5.57554C13.8051 5.51715 13.9436 5.48657 14.0844 5.48657H67.0911C67.2319 5.48657 67.3705 5.51715 67.4943 5.57554L80.0668 11.5018C80.8422 11.8672 80.5447 12.8944 79.6636 12.8944H1.51192C0.630789 12.8944 0.333359 11.8672 1.10867 11.5018L13.6812 5.57554Z" fill="#240A0A"/>
<path fill-rule="evenodd" clip-rule="evenodd" d="M14.2989 6.96813L4.86956 11.4128H76.306L66.8766 6.96813H14.2989ZM14.0844 5.48657C13.9436 5.48657 13.8051 5.51715 13.6812 5.57554L1.10867 11.5018C0.333359 11.8672 0.630789 12.8944 1.51192 12.8944H79.6636C80.5447 12.8944 80.8422 11.8672 80.0668 11.5018L67.4943 5.57554C67.3705 5.51715 67.2319 5.48657 67.0911 5.48657H14.0844Z" fill="url(#paint22_linear_362_3481)"/>
<path fill-rule="evenodd" clip-rule="evenodd" d="M14.2989 6.96813L4.86956 11.4128H76.306L66.8766 6.96813H14.2989ZM14.0844 5.48657C13.9436 5.48657 13.8051 5.51715 13.6812 5.57554L1.10867 11.5018C0.333359 11.8672 0.630789 12.8944 1.51192 12.8944H79.6636C80.5447 12.8944 80.8422 11.8672 80.0668 11.5018L67.4943 5.57554C67.3705 5.51715 67.2319 5.48657 67.0911 5.48657H14.0844Z" fill="url(#paint23_radial_362_3481)" style="mix-blend-mode:overlay"/>
<path fill-rule="evenodd" clip-rule="evenodd" d="M14.2989 6.96813L4.86956 11.4128H76.306L66.8766 6.96813H14.2989ZM14.0844 5.48657C13.9436 5.48657 13.8051 5.51715 13.6812 5.57554L1.10867 11.5018C0.333359 11.8672 0.630789 12.8944 1.51192 12.8944H79.6636C80.5447 12.8944 80.8422 11.8672 80.0668 11.5018L67.4943 5.57554C67.3705 5.51715 67.2319 5.48657 67.0911 5.48657H14.0844Z" fill="#AD800C" style="mix-blend-mode:color"/>
<path d="M13.6812 3.76893C13.8051 3.71054 13.9436 3.67996 14.0844 3.67996H67.0911C67.2319 3.67996 67.3705 3.71054 67.4943 3.76893L80.0668 9.69518C80.8422 10.0606 80.5447 11.0878 79.6636 11.0878H1.51192C0.630789 11.0878 0.333359 10.0606 1.10867 9.69518L13.6812 3.76893Z" fill="#240A0A"/>
<path fill-rule="evenodd" clip-rule="evenodd" d="M14.2989 5.16152L4.86956 9.60621H76.306L66.8766 5.16152H14.2989ZM14.0844 3.67996C13.9436 3.67996 13.8051 3.71054 13.6812 3.76893L1.10867 9.69518C0.333359 10.0606 0.630789 11.0878 1.51192 11.0878H79.6636C80.5447 11.0878 80.8422 10.0606 80.0668 9.69518L67.4943 3.76893C67.3705 3.71054 67.2319 3.67996 67.0911 3.67996H14.0844Z" fill="url(#paint24_linear_362_3481)"/>
<path fill-rule="evenodd" clip-rule="evenodd" d="M14.2989 5.16152L4.86956 9.60621H76.306L66.8766 5.16152H14.2989ZM14.0844 3.67996C13.9436 3.67996 13.8051 3.71054 13.6812 3.76893L1.10867 9.69518C0.333359 10.0606 0.630789 11.0878 1.51192 11.0878H79.6636C80.5447 11.0878 80.8422 10.0606 80.0668 9.69518L67.4943 3.76893C67.3705 3.71054 67.2319 3.67996 67.0911 3.67996H14.0844Z" fill="url(#paint25_radial_362_3481)" style="mix-blend-mode:overlay"/>
<path fill-rule="evenodd" clip-rule="evenodd" d="M14.2989 5.16152L4.86956 9.60621H76.306L66.8766 5.16152H14.2989ZM14.0844 3.67996C13.9436 3.67996 13.8051 3.71054 13.6812 3.76893L1.10867 9.69518C0.333359 10.0606 0.630789 11.0878 1.51192 11.0878H79.6636C80.5447 11.0878 80.8422 10.0606 80.0668 9.69518L67.4943 3.76893C67.3705 3.71054 67.2319 3.67996 67.0911 3.67996H14.0844Z" fill="#AD800C" style="mix-blend-mode:color"/>
<path d="M13.6812 1.96229C13.8051 1.9039 13.9436 1.87332 14.0844 1.87332H67.0911C67.2319 1.87332 67.3705 1.9039 67.4943 1.96229L80.0668 7.88854C80.8422 8.25399 80.5447 9.28113 79.6636 9.28113H1.51192C0.630789 9.28113 0.333359 8.25399 1.10867 7.88854L13.6812 1.96229Z" fill="#240A0A"/>
<path fill-rule="evenodd" clip-rule="evenodd" d="M14.2989 3.35488L4.86956 7.79957H76.306L66.8766 3.35488H14.2989ZM14.0844 1.87332C13.9436 1.87332 13.8051 1.9039 13.6812 1.96229L1.10867 7.88854C0.333359 8.25399 0.630789 9.28113 1.51192 9.28113H79.6636C80.5447 9.28113 80.8422 8.25399 80.0668 7.88854L67.4943 1.96229C67.3705 1.9039 67.2319 1.87332 67.0911 1.87332H14.0844Z" fill="url(#paint26_linear_362_3481)"/>
<path fill-rule="evenodd" clip-rule="evenodd" d="M14.2989 3.35488L4.86956 7.79957H76.306L66.8766 3.35488H14.2989ZM14.0844 1.87332C13.9436 1.87332 13.8051 1.9039 13.6812 1.96229L1.10867 7.88854C0.333359 8.25399 0.630789 9.28113 1.51192 9.28113H79.6636C80.5447 9.28113 80.8422 8.25399 80.0668 7.88854L67.4943 1.96229C67.3705 1.9039 67.2319 1.87332 67.0911 1.87332H14.0844Z" fill="url(#paint27_radial_362_3481)" style="mix-blend-mode:overlay"/>
<path fill-rule="evenodd" clip-rule="evenodd" d="M14.2989 3.35488L4.86956 7.79957H76.306L66.8766 3.35488H14.2989ZM14.0844 1.87332C13.9436 1.87332 13.8051 1.9039 13.6812 1.96229L1.10867 7.88854C0.333359 8.25399 0.630789 9.28113 1.51192 9.28113H79.6636C80.5447 9.28113 80.8422 8.25399 80.0668 7.88854L67.4943 1.96229C67.3705 1.9039 67.2319 1.87332 67.0911 1.87332H14.0844Z" fill="#AD800C" style="mix-blend-mode:color"/>
<path d="M13.6812 0.155649C13.8051 0.0972551 13.9436 0.0666809 14.0844 0.0666809H67.0911C67.2319 0.0666809 67.3705 0.0972552 67.4943 0.155649L80.0668 6.0819C80.8422 6.44735 80.5447 7.47449 79.6636 7.47449H1.51192C0.630789 7.47449 0.333359 6.44735 1.10867 6.0819L13.6812 0.155649Z" fill="#240A0A"/>
<path fill-rule="evenodd" clip-rule="evenodd" d="M14.2989 1.54824L4.86956 5.99293H76.306L66.8766 1.54824H14.2989ZM14.0844 0.0666809C13.9436 0.0666809 13.8051 0.0972551 13.6812 0.155649L1.10867 6.0819C0.333359 6.44735 0.630789 7.47449 1.51192 7.47449H79.6636C80.5447 7.47449 80.8422 6.44735 80.0668 6.0819L67.4943 0.155649C67.3705 0.0972552 67.2319 0.0666809 67.0911 0.0666809H14.0844Z" fill="url(#paint28_linear_362_3481)"/>
<path fill-rule="evenodd" clip-rule="evenodd" d="M14.2989 1.54824L4.86956 5.99293H76.306L66.8766 1.54824H14.2989ZM14.0844 0.0666809C13.9436 0.0666809 13.8051 0.0972551 13.6812 0.155649L1.10867 6.0819C0.333359 6.44735 0.630789 7.47449 1.51192 7.47449H79.6636C80.5447 7.47449 80.8422 6.44735 80.0668 6.0819L67.4943 0.155649C67.3705 0.0972552 67.2319 0.0666809 67.0911 0.0666809H14.0844Z" fill="url(#paint29_radial_362_3481)" style="mix-blend-mode:overlay"/>
<path fill-rule="evenodd" clip-rule="evenodd" d="M14.2989 1.54824L4.86956 5.99293H76.306L66.8766 1.54824H14.2989ZM14.0844 0.0666809C13.9436 0.0666809 13.8051 0.0972551 13.6812 0.155649L1.10867 6.0819C0.333359 6.44735 0.630789 7.47449 1.51192 7.47449H79.6636C80.5447 7.47449 80.8422 6.44735 80.0668 6.0819L67.4943 0.155649C67.3705 0.0972552 67.2319 0.0666809 67.0911 0.0666809H14.0844Z" fill="#AD800C" style="mix-blend-mode:color"/>
<defs>
<linearGradient id="paint0_linear_362_3481" x1="-1.84573" y1="30.2675" x2="6.47564" y2="3.2364" gradientUnits="userSpaceOnUse">
<stop offset="0.0677083" stop-color="#576265"/>
<stop offset="0.21875" stop-color="#9EA1A1"/>
<stop offset="0.453125" stop-color="#848B8A"/>
<stop offset="0.524381" stop-color="#576265"/>
<stop offset="0.796875" stop-color="#576265"/>
<stop offset="0.895833" stop-color="#757A7B"/>
<stop offset="1" stop-color="#576265"/>
</linearGradient>
<radialGradient id="paint1_radial_362_3481" cx="0" cy="0" r="1" gradientUnits="userSpaceOnUse" gradientTransform="translate(-1.84574 24.7182) rotate(8.6628) scale(39.3633 14.3514)">
<stop stop-color="white"/>
<stop offset="1" stop-color="white" stop-opacity="0"/>
</radialGradient>
<linearGradient id="paint2_linear_362_3481" x1="-1.84573" y1="28.4608" x2="6.47564" y2="1.4297" gradientUnits="userSpaceOnUse">
<stop offset="0.0677083" stop-color="#576265"/>
<stop offset="0.21875" stop-color="#9EA1A1"/>
<stop offset="0.453125" stop-color="#848B8A"/>
<stop offset="0.524381" stop-color="#576265"/>
<stop offset="0.796875" stop-color="#576265"/>
<stop offset="0.895833" stop-color="#757A7B"/>
<stop offset="1" stop-color="#576265"/>
</linearGradient>
<radialGradient id="paint3_radial_362_3481" cx="0" cy="0" r="1" gradientUnits="userSpaceOnUse" gradientTransform="translate(-1.84574 22.9115) rotate(8.6628) scale(39.3633 14.3514)">
<stop stop-color="white"/>
<stop offset="1" stop-color="white" stop-opacity="0"/>
</radialGradient>
<linearGradient id="paint4_linear_362_3481" x1="-1.84573" y1="26.6542" x2="6.47564" y2="-0.376908" gradientUnits="userSpaceOnUse">
<stop offset="0.0677083" stop-color="#576265"/>
<stop offset="0.21875" stop-color="#9EA1A1"/>
<stop offset="0.453125" stop-color="#848B8A"/>
<stop offset="0.524381" stop-color="#576265"/>
<stop offset="0.796875" stop-color="#576265"/>
<stop offset="0.895833" stop-color="#757A7B"/>
<stop offset="1" stop-color="#576265"/>
</linearGradient>
<radialGradient id="paint5_radial_362_3481" cx="0" cy="0" r="1" gradientUnits="userSpaceOnUse" gradientTransform="translate(-1.84574 21.1049) rotate(8.6628) scale(39.3633 14.3514)">
<stop stop-color="white"/>
<stop offset="1" stop-color="white" stop-opacity="0"/>
</radialGradient>
<linearGradient id="paint6_linear_362_3481" x1="-1.84573" y1="24.8476" x2="6.47564" y2="-2.18349" gradientUnits="userSpaceOnUse">
<stop offset="0.0677083" stop-color="#576265"/>
<stop offset="0.21875" stop-color="#9EA1A1"/>
<stop offset="0.453125" stop-color="#848B8A"/>
<stop offset="0.524381" stop-color="#576265"/>
<stop offset="0.796875" stop-color="#576265"/>
<stop offset="0.895833" stop-color="#757A7B"/>
<stop offset="1" stop-color="#576265"/>
</linearGradient>
<radialGradient id="paint7_radial_362_3481" cx="0" cy="0" r="1" gradientUnits="userSpaceOnUse" gradientTransform="translate(-1.84574 19.2983) rotate(8.6628) scale(39.3633 14.3514)">
<stop stop-color="white"/>
<stop offset="1" stop-color="white" stop-opacity="0"/>
</radialGradient>
<linearGradient id="paint8_linear_362_3481" x1="-1.84573" y1="23.041" x2="6.47564" y2="-3.99007" gradientUnits="userSpaceOnUse">
<stop offset="0.0677083" stop-color="#576265"/>
<stop offset="0.21875" stop-color="#9EA1A1"/>
<stop offset="0.453125" stop-color="#848B8A"/>
<stop offset="0.524381" stop-color="#576265"/>
<stop offset="0.796875" stop-color="#576265"/>
<stop offset="0.895833" stop-color="#757A7B"/>
<stop offset="1" stop-color="#576265"/>
</linearGradient>
<radialGradient id="paint9_radial_362_3481" cx="0" cy="0" r="1" gradientUnits="userSpaceOnUse" gradientTransform="translate(-1.84574 17.4917) rotate(8.6628) scale(39.3633 14.3514)">
<stop stop-color="white"/>
<stop offset="1" stop-color="white" stop-opacity="0"/>
</radialGradient>
<linearGradient id="paint10_linear_362_3481" x1="-1.84573" y1="21.2343" x2="6.47564" y2="-5.79677" gradientUnits="userSpaceOnUse">
<stop offset="0.0677083" stop-color="#576265"/>
<stop offset="0.21875" stop-color="#9EA1A1"/>
<stop offset="0.453125" stop-color="#848B8A"/>
<stop offset="0.524381" stop-color="#576265"/>
<stop offset="0.796875" stop-color="#576265"/>
<stop offset="0.895833" stop-color="#757A7B"/>
<stop offset="1" stop-color="#576265"/>
</linearGradient>
<radialGradient id="paint11_radial_362_3481" cx="0" cy="0" r="1" gradientUnits="userSpaceOnUse" gradientTransform="translate(-1.84574 15.685) rotate(8.6628) scale(39.3633 14.3514)">
<stop stop-color="white"/>
<stop offset="1" stop-color="white" stop-opacity="0"/>
</radialGradient>
<linearGradient id="paint12_linear_362_3481" x1="-1.84573" y1="19.4277" x2="6.47564" y2="-7.60335" gradientUnits="userSpaceOnUse">
<stop offset="0.0677083" stop-color="#576265"/>
<stop offset="0.21875" stop-color="#9EA1A1"/>
<stop offset="0.453125" stop-color="#848B8A"/>
<stop offset="0.524381" stop-color="#576265"/>
<stop offset="0.796875" stop-color="#576265"/>
<stop offset="0.895833" stop-color="#757A7B"/>
<stop offset="1" stop-color="#576265"/>
</linearGradient>
<radialGradient id="paint13_radial_362_3481" cx="0" cy="0" r="1" gradientUnits="userSpaceOnUse" gradientTransform="translate(-1.84574 13.8784) rotate(8.6628) scale(39.3633 14.3514)">
<stop stop-color="white"/>
<stop offset="1" stop-color="white" stop-opacity="0"/>
</radialGradient>
<linearGradient id="paint14_linear_362_3481" x1="-1.84573" y1="17.621" x2="6.47564" y2="-9.41008" gradientUnits="userSpaceOnUse">
<stop offset="0.0677083" stop-color="#576265"/>
<stop offset="0.21875" stop-color="#9EA1A1"/>
<stop offset="0.453125" stop-color="#848B8A"/>
<stop offset="0.524381" stop-color="#576265"/>
<stop offset="0.796875" stop-color="#576265"/>
<stop offset="0.895833" stop-color="#757A7B"/>
<stop offset="1" stop-color="#576265"/>
</linearGradient>
<radialGradient id="paint15_radial_362_3481" cx="0" cy="0" r="1" gradientUnits="userSpaceOnUse" gradientTransform="translate(-1.84574 12.0717) rotate(8.6628) scale(39.3633 14.3514)">
<stop stop-color="white"/>
<stop offset="1" stop-color="white" stop-opacity="0"/>
</radialGradient>
<linearGradient id="paint16_linear_362_3481" x1="-1.84573" y1="15.8146" x2="6.47564" y2="-11.2165" gradientUnits="userSpaceOnUse">
<stop offset="0.0677083" stop-color="#576265"/>
<stop offset="0.21875" stop-color="#9EA1A1"/>
<stop offset="0.453125" stop-color="#848B8A"/>
<stop offset="0.524381" stop-color="#576265"/>
<stop offset="0.796875" stop-color="#576265"/>
<stop offset="0.895833" stop-color="#757A7B"/>
<stop offset="1" stop-color="#576265"/>
</linearGradient>
<radialGradient id="paint17_radial_362_3481" cx="0" cy="0" r="1" gradientUnits="userSpaceOnUse" gradientTransform="translate(-1.84574 10.2652) rotate(8.6628) scale(39.3633 14.3514)">
<stop stop-color="white"/>
<stop offset="1" stop-color="white" stop-opacity="0"/>
</radialGradient>
<linearGradient id="paint18_linear_362_3481" x1="-1.84573" y1="14.0079" x2="6.47564" y2="-13.0232" gradientUnits="userSpaceOnUse">
<stop offset="0.0677083" stop-color="#576265"/>
<stop offset="0.21875" stop-color="#9EA1A1"/>
<stop offset="0.453125" stop-color="#848B8A"/>
<stop offset="0.524381" stop-color="#576265"/>
<stop offset="0.796875" stop-color="#576265"/>
<stop offset="0.895833" stop-color="#757A7B"/>
<stop offset="1" stop-color="#576265"/>
</linearGradient>
<radialGradient id="paint19_radial_362_3481" cx="0" cy="0" r="1" gradientUnits="userSpaceOnUse" gradientTransform="translate(-1.84574 8.45854) rotate(8.6628) scale(39.3633 14.3514)">
<stop stop-color="white"/>
<stop offset="1" stop-color="white" stop-opacity="0"/>
</radialGradient>
<linearGradient id="paint20_linear_362_3481" x1="-1.84573" y1="12.2013" x2="6.47564" y2="-14.8298" gradientUnits="userSpaceOnUse">
<stop offset="0.0677083" stop-color="#576265"/>
<stop offset="0.21875" stop-color="#9EA1A1"/>
<stop offset="0.453125" stop-color="#848B8A"/>
<stop offset="0.524381" stop-color="#576265"/>
<stop offset="0.796875" stop-color="#576265"/>
<stop offset="0.895833" stop-color="#757A7B"/>
<stop offset="1" stop-color="#576265"/>
</linearGradient>
<radialGradient id="paint21_radial_362_3481" cx="0" cy="0" r="1" gradientUnits="userSpaceOnUse" gradientTransform="translate(-1.84574 6.65196) rotate(8.6628) scale(39.3633 14.3514)">
<stop stop-color="white"/>
<stop offset="1" stop-color="white" stop-opacity="0"/>
</radialGradient>
<linearGradient id="paint22_linear_362_3481" x1="-1.84573" y1="10.3946" x2="6.47564" y2="-16.6365" gradientUnits="userSpaceOnUse">
<stop offset="0.0677083" stop-color="#576265"/>
<stop offset="0.21875" stop-color="#9EA1A1"/>
<stop offset="0.453125" stop-color="#848B8A"/>
<stop offset="0.524381" stop-color="#576265"/>
<stop offset="0.796875" stop-color="#576265"/>
<stop offset="0.895833" stop-color="#757A7B"/>
<stop offset="1" stop-color="#576265"/>
</linearGradient>
<radialGradient id="paint23_radial_362_3481" cx="0" cy="0" r="1" gradientUnits="userSpaceOnUse" gradientTransform="translate(-1.84574 4.84526) rotate(8.6628) scale(39.3633 14.3514)">
<stop stop-color="white"/>
<stop offset="1" stop-color="white" stop-opacity="0"/>
</radialGradient>
<linearGradient id="paint24_linear_362_3481" x1="-1.84573" y1="8.58796" x2="6.47564" y2="-18.4431" gradientUnits="userSpaceOnUse">
<stop offset="0.0677083" stop-color="#576265"/>
<stop offset="0.21875" stop-color="#9EA1A1"/>
<stop offset="0.453125" stop-color="#848B8A"/>
<stop offset="0.524381" stop-color="#576265"/>
<stop offset="0.796875" stop-color="#576265"/>
<stop offset="0.895833" stop-color="#757A7B"/>
<stop offset="1" stop-color="#576265"/>
</linearGradient>
<radialGradient id="paint25_radial_362_3481" cx="0" cy="0" r="1" gradientUnits="userSpaceOnUse" gradientTransform="translate(-1.84574 3.03865) rotate(8.6628) scale(39.3633 14.3514)">
<stop stop-color="white"/>
<stop offset="1" stop-color="white" stop-opacity="0"/>
</radialGradient>
<linearGradient id="paint26_linear_362_3481" x1="-1.84573" y1="6.78132" x2="6.47564" y2="-20.2498" gradientUnits="userSpaceOnUse">
<stop offset="0.0677083" stop-color="#576265"/>
<stop offset="0.21875" stop-color="#9EA1A1"/>
<stop offset="0.453125" stop-color="#848B8A"/>
<stop offset="0.524381" stop-color="#576265"/>
<stop offset="0.796875" stop-color="#576265"/>
<stop offset="0.895833" stop-color="#757A7B"/>
<stop offset="1" stop-color="#576265"/>
</linearGradient>
<radialGradient id="paint27_radial_362_3481" cx="0" cy="0" r="1" gradientUnits="userSpaceOnUse" gradientTransform="translate(-1.84574 1.23201) rotate(8.6628) scale(39.3633 14.3514)">
<stop stop-color="white"/>
<stop offset="1" stop-color="white" stop-opacity="0"/>
</radialGradient>
<linearGradient id="paint28_linear_362_3481" x1="-1.84573" y1="4.97468" x2="6.47564" y2="-22.0564" gradientUnits="userSpaceOnUse">
<stop offset="0.0677083" stop-color="#576265"/>
<stop offset="0.21875" stop-color="#9EA1A1"/>
<stop offset="0.453125" stop-color="#848B8A"/>
<stop offset="0.524381" stop-color="#576265"/>
<stop offset="0.796875" stop-color="#576265"/>
<stop offset="0.895833" stop-color="#757A7B"/>
<stop offset="1" stop-color="#576265"/>
</linearGradient>
<radialGradient id="paint29_radial_362_3481" cx="0" cy="0" r="1" gradientUnits="userSpaceOnUse" gradientTransform="translate(-1.84574 -0.574631) rotate(8.6628) scale(39.3633 14.3514)">
<stop stop-color="white"/>
<stop offset="1" stop-color="white" stop-opacity="0"/>
</radialGradient>
</defs>
</svg>
