<svg width="119" height="92" viewBox="0 0 119 92" fill="none" xmlns="http://www.w3.org/2000/svg">
<rect width="44.435" height="66.6529" rx="8" transform="matrix(-0.939702 -0.342028 -0.34199 0.939691 111.863 22.3653)" fill="#240A0A"/>
<g opacity="0.6" filter="url(#filter0_f_387_1148)">
<path fill-rule="evenodd" clip-rule="evenodd" d="M110.213 24.774C110.562 23.8147 110.122 22.7738 109.229 22.449L72.071 8.92429C71.1787 8.59952 70.1724 9.1139 69.8233 10.0732L48.9629 67.3916C48.6138 68.3509 49.0541 69.3918 49.9463 69.7165L87.1048 83.2413C87.9971 83.5661 89.0034 83.0517 89.3525 82.0924L110.213 24.774ZM100.519 21.2458L79.5168 13.6014L76.609 21.5912C75.7944 23.8295 73.3257 24.9859 71.095 24.1739L67.0561 22.7039L53.4863 59.9898L57.5252 61.4599C59.7559 62.2718 60.9038 64.7445 60.0892 66.9828L58.6564 70.9198L79.659 78.5642L81.0918 74.6272C81.9065 72.3889 84.3751 71.2326 86.6058 72.0445L90.6448 73.5145L104.215 36.2286L100.176 34.7585C97.9449 33.9466 96.797 31.474 97.6116 29.2356L100.519 21.2458Z" fill="black"/>
</g>
<path fill-rule="evenodd" clip-rule="evenodd" d="M71.1263 9.56471L71.1261 9.56467L49.6341 68.6188L49.6343 68.6189L52.6302 60.387L56.8057 61.9068C59.1118 62.7461 60.3008 65.296 59.4616 67.602L57.9853 71.6584L79.6984 79.5614L81.1746 75.5052C82.0139 73.1991 84.5636 72.0101 86.8697 72.8495L91.0452 74.3692L109.541 23.5469L109.541 23.5468L105.026 35.9539L100.85 34.4342C98.5444 33.5948 97.3553 31.045 98.1946 28.7389L101.19 20.5073L79.4773 12.6043L76.4814 20.836C75.6422 23.1421 73.0924 24.3311 70.7863 23.4917L66.6108 21.9719L71.1263 9.56471ZM111.212 24.1548C111.571 23.1665 111.115 22.0931 110.193 21.7573L71.7774 7.77515C70.855 7.4394 69.8156 7.96842 69.4559 8.95675L47.9639 68.0109C47.6042 68.9992 48.0604 70.0726 48.9828 70.4083L87.3981 84.3905C88.3205 84.7262 89.3599 84.1972 89.7196 83.2089L111.212 24.1548Z" fill="url(#paint0_linear_387_1148)"/>
<path fill-rule="evenodd" clip-rule="evenodd" d="M71.1263 9.56471L71.1261 9.56467L49.6341 68.6188L49.6343 68.6189L52.6302 60.387L56.8057 61.9068C59.1118 62.7461 60.3008 65.296 59.4616 67.602L57.9853 71.6584L79.6984 79.5614L81.1746 75.5052C82.0139 73.1991 84.5636 72.0101 86.8697 72.8495L91.0452 74.3692L109.541 23.5469L109.541 23.5468L105.026 35.9539L100.85 34.4342C98.5444 33.5948 97.3553 31.045 98.1946 28.7389L101.19 20.5073L79.4773 12.6043L76.4814 20.836C75.6422 23.1421 73.0924 24.3311 70.7863 23.4917L66.6108 21.9719L71.1263 9.56471ZM111.212 24.1548C111.571 23.1665 111.115 22.0931 110.193 21.7573L71.7774 7.77515C70.855 7.4394 69.8156 7.96842 69.4559 8.95675L47.9639 68.0109C47.6042 68.9992 48.0604 70.0726 48.9828 70.4083L87.3981 84.3905C88.3205 84.7262 89.3599 84.1972 89.7196 83.2089L111.212 24.1548Z" fill="url(#paint1_radial_387_1148)" style="mix-blend-mode:overlay"/>
<path fill-rule="evenodd" clip-rule="evenodd" d="M71.1263 9.56471L71.1261 9.56467L49.6341 68.6188L49.6343 68.6189L52.6302 60.387L56.8057 61.9068C59.1118 62.7461 60.3008 65.296 59.4616 67.602L57.9853 71.6584L79.6984 79.5614L81.1746 75.5052C82.0139 73.1991 84.5636 72.0101 86.8697 72.8495L91.0452 74.3692L109.541 23.5469L109.541 23.5468L105.026 35.9539L100.85 34.4342C98.5444 33.5948 97.3553 31.045 98.1946 28.7389L101.19 20.5073L79.4773 12.6043L76.4814 20.836C75.6422 23.1421 73.0924 24.3311 70.7863 23.4917L66.6108 21.9719L71.1263 9.56471ZM111.212 24.1548C111.571 23.1665 111.115 22.0931 110.193 21.7573L71.7774 7.77515C70.855 7.4394 69.8156 7.96842 69.4559 8.95675L47.9639 68.0109C47.6042 68.9992 48.0604 70.0726 48.9828 70.4083L87.3981 84.3905C88.3205 84.7262 89.3599 84.1972 89.7196 83.2089L111.212 24.1548Z" fill="#AD800C" style="mix-blend-mode:color"/>
<rect width="44.435" height="66.6529" rx="8" transform="matrix(0.939702 -0.342028 0.34199 0.939691 7.31259 22.3653)" fill="#240A0A"/>
<g opacity="0.6" filter="url(#filter1_f_387_1148)">
<path fill-rule="evenodd" clip-rule="evenodd" d="M8.96261 24.774C8.61349 23.8147 9.0538 22.7738 9.94606 22.449L47.1045 8.92429C47.9968 8.59953 49.0031 9.1139 49.3523 10.0732L70.2126 67.3916C70.5618 68.3509 70.1215 69.3918 69.2292 69.7165L32.0707 83.2413C31.1784 83.5661 30.1721 83.0517 29.823 82.0924L8.96261 24.774ZM18.6561 21.2458L39.6587 13.6014L42.5666 21.5912C43.3812 23.8295 45.8498 24.9859 48.0805 24.1739L52.1195 22.7039L65.6892 59.9898L61.6503 61.4599C59.4196 62.2718 58.2717 64.7445 59.0863 66.9828L60.5191 70.9198L39.5165 78.5642L38.0837 74.6272C37.2691 72.3889 34.8004 71.2326 32.5697 72.0445L28.5308 73.5145L14.961 36.2286L18.9999 34.7585C21.2306 33.9466 22.3785 31.474 21.5639 29.2356L18.6561 21.2458Z" fill="black"/>
</g>
<path fill-rule="evenodd" clip-rule="evenodd" d="M48.0492 9.56471L48.0494 9.56467L69.5414 68.6188L69.5412 68.6189L66.5453 60.387L62.3698 61.9068C60.0637 62.7461 58.8747 65.296 59.7139 67.602L61.1902 71.6584L39.4771 79.5614L38.0009 75.5052C37.1616 73.1991 34.6119 72.0101 32.3058 72.8495L28.1303 74.3692L9.63409 23.5469L9.63426 23.5468L14.1497 35.9539L18.325 34.4342C20.6311 33.5948 21.8202 31.045 20.9809 28.7389L17.9851 20.5073L39.6982 12.6043L42.6941 20.836C43.5333 23.1421 46.0831 24.3311 48.3892 23.4917L52.5647 21.9719L48.0492 9.56471ZM7.96387 24.1548C7.60418 23.1665 8.06038 22.0931 8.98282 21.7573L47.3981 7.77515C48.3205 7.4394 49.3599 7.96842 49.7196 8.95675L71.2117 68.0109C71.5713 68.9992 71.1151 70.0726 70.1927 70.4083L31.7774 84.3905C30.855 84.7262 29.8156 84.1972 29.4559 83.2089L7.96387 24.1548Z" fill="url(#paint2_linear_387_1148)"/>
<path fill-rule="evenodd" clip-rule="evenodd" d="M48.0492 9.56471L48.0494 9.56467L69.5414 68.6188L69.5412 68.6189L66.5453 60.387L62.3698 61.9068C60.0637 62.7461 58.8747 65.296 59.7139 67.602L61.1902 71.6584L39.4771 79.5614L38.0009 75.5052C37.1616 73.1991 34.6119 72.0101 32.3058 72.8495L28.1303 74.3692L9.63409 23.5469L9.63426 23.5468L14.1497 35.9539L18.325 34.4342C20.6311 33.5948 21.8202 31.045 20.9809 28.7389L17.9851 20.5073L39.6982 12.6043L42.6941 20.836C43.5333 23.1421 46.0831 24.3311 48.3892 23.4917L52.5647 21.9719L48.0492 9.56471ZM7.96387 24.1548C7.60418 23.1665 8.06038 22.0931 8.98282 21.7573L47.3981 7.77515C48.3205 7.4394 49.3599 7.96842 49.7196 8.95675L71.2117 68.0109C71.5713 68.9992 71.1151 70.0726 70.1927 70.4083L31.7774 84.3905C30.855 84.7262 29.8156 84.1972 29.4559 83.2089L7.96387 24.1548Z" fill="url(#paint3_radial_387_1148)" style="mix-blend-mode:overlay"/>
<path fill-rule="evenodd" clip-rule="evenodd" d="M48.0492 9.56471L48.0494 9.56467L69.5414 68.6188L69.5412 68.6189L66.5453 60.387L62.3698 61.9068C60.0637 62.7461 58.8747 65.296 59.7139 67.602L61.1902 71.6584L39.4771 79.5614L38.0009 75.5052C37.1616 73.1991 34.6119 72.0101 32.3058 72.8495L28.1303 74.3692L9.63409 23.5469L9.63426 23.5468L14.1497 35.9539L18.325 34.4342C20.6311 33.5948 21.8202 31.045 20.9809 28.7389L17.9851 20.5073L39.6982 12.6043L42.6941 20.836C43.5333 23.1421 46.0831 24.3311 48.3892 23.4917L52.5647 21.9719L48.0492 9.56471ZM7.96387 24.1548C7.60418 23.1665 8.06038 22.0931 8.98282 21.7573L47.3981 7.77515C48.3205 7.4394 49.3599 7.96842 49.7196 8.95675L71.2117 68.0109C71.5713 68.9992 71.1151 70.0726 70.1927 70.4083L31.7774 84.3905C30.855 84.7262 29.8156 84.1972 29.4559 83.2089L7.96387 24.1548Z" fill="#AD800C" style="mix-blend-mode:color"/>
<rect width="44.4347" height="66.6535" rx="8" transform="matrix(-1.00001 -6.32495e-06 3.0137e-05 0.999992 82.3464 8.01657)" fill="#240A0A"/>
<g opacity="0.6" filter="url(#filter2_f_387_1148)">
<path fill-rule="evenodd" clip-rule="evenodd" d="M81.6196 10.8445C81.6196 9.82362 80.8498 8.99606 79.9003 8.99605L40.3575 8.9958C39.408 8.9958 38.6383 9.82335 38.6383 10.8442L38.6402 71.8413C38.6402 72.8622 39.4099 73.6897 40.3595 73.6897L79.9023 73.69C80.8518 73.69 81.6215 72.8624 81.6215 71.8416L81.6196 10.8445ZM71.3041 10.8444L48.9538 10.8443L48.9541 19.3469C48.9542 21.7288 47.0299 23.6598 44.6561 23.6598L40.358 23.6598L40.3592 63.3387L44.6573 63.3387C47.0311 63.3387 48.9555 65.2697 48.9555 67.6517L48.9557 71.8414L71.3059 71.8415L71.3058 67.6518C71.3058 65.2699 73.23 63.3389 75.6038 63.3389L79.902 63.3389L79.9008 23.66L75.6026 23.66C73.2288 23.66 71.3044 21.729 71.3044 19.347L71.3041 10.8444Z" fill="black"/>
</g>
<path fill-rule="evenodd" clip-rule="evenodd" d="M39.6889 9.92067L39.6888 9.92067L39.6905 64.0047L44.1339 64.0047C46.588 64.0047 48.5775 65.9941 48.5775 68.4481L48.5777 72.765L71.684 72.7651L71.6838 68.4483C71.6838 65.9943 73.6731 64.005 76.1272 64.005L80.5706 64.005L80.5709 72.7652L80.571 72.7652L80.5691 9.92093L80.5689 9.92093L80.5693 23.1241L76.126 23.1241C73.672 23.1241 71.6825 21.1347 71.6824 18.6807L71.6821 9.92087L48.5758 9.92073L48.5761 18.6805C48.5762 21.1345 46.5868 23.1239 44.1328 23.1239L39.6893 23.1239L39.6889 9.92067ZM82.3465 9.92094C82.3464 8.86919 81.5506 8.01657 80.569 8.01656L39.6888 8.0163C38.7072 8.0163 37.9114 8.86891 37.9114 9.92066L37.9133 72.7649C37.9134 73.8166 38.7092 74.6693 39.6908 74.6693L80.571 74.6695C81.5526 74.6695 82.3484 73.8169 82.3484 72.7652L82.3465 9.92094Z" fill="url(#paint4_linear_387_1148)"/>
<path fill-rule="evenodd" clip-rule="evenodd" d="M39.6889 9.92067L39.6888 9.92067L39.6905 64.0047L44.1339 64.0047C46.588 64.0047 48.5775 65.9941 48.5775 68.4481L48.5777 72.765L71.684 72.7651L71.6838 68.4483C71.6838 65.9943 73.6731 64.005 76.1272 64.005L80.5706 64.005L80.5709 72.7652L80.571 72.7652L80.5691 9.92093L80.5689 9.92093L80.5693 23.1241L76.126 23.1241C73.672 23.1241 71.6825 21.1347 71.6824 18.6807L71.6821 9.92087L48.5758 9.92073L48.5761 18.6805C48.5762 21.1345 46.5868 23.1239 44.1328 23.1239L39.6893 23.1239L39.6889 9.92067ZM82.3465 9.92094C82.3464 8.86919 81.5506 8.01657 80.569 8.01656L39.6888 8.0163C38.7072 8.0163 37.9114 8.86891 37.9114 9.92066L37.9133 72.7649C37.9134 73.8166 38.7092 74.6693 39.6908 74.6693L80.571 74.6695C81.5526 74.6695 82.3484 73.8169 82.3484 72.7652L82.3465 9.92094Z" fill="url(#paint5_radial_387_1148)" style="mix-blend-mode:overlay"/>
<path fill-rule="evenodd" clip-rule="evenodd" d="M39.6889 9.92067L39.6888 9.92067L39.6905 64.0047L44.1339 64.0047C46.588 64.0047 48.5775 65.9941 48.5775 68.4481L48.5777 72.765L71.684 72.7651L71.6838 68.4483C71.6838 65.9943 73.6731 64.005 76.1272 64.005L80.5706 64.005L80.5709 72.7652L80.571 72.7652L80.5691 9.92093L80.5689 9.92093L80.5693 23.1241L76.126 23.1241C73.672 23.1241 71.6825 21.1347 71.6824 18.6807L71.6821 9.92087L48.5758 9.92073L48.5761 18.6805C48.5762 21.1345 46.5868 23.1239 44.1328 23.1239L39.6893 23.1239L39.6889 9.92067ZM82.3465 9.92094C82.3464 8.86919 81.5506 8.01657 80.569 8.01656L39.6888 8.0163C38.7072 8.0163 37.9114 8.86891 37.9114 9.92066L37.9133 72.7649C37.9134 73.8166 38.7092 74.6693 39.6908 74.6693L80.571 74.6695C81.5526 74.6695 82.3484 73.8169 82.3484 72.7652L82.3465 9.92094Z" fill="#AD800C" style="mix-blend-mode:color"/>
<defs>
<filter id="filter0_f_387_1148" x="40.8431" y="0.826935" width="77.4895" height="90.5117" filterUnits="userSpaceOnUse" color-interpolation-filters="sRGB">
<feFlood flood-opacity="0" result="BackgroundImageFix"/>
<feBlend mode="normal" in="SourceGraphic" in2="BackgroundImageFix" result="shape"/>
<feGaussianBlur stdDeviation="4" result="effect1_foregroundBlur_387_1148"/>
</filter>
<filter id="filter1_f_387_1148" x="0.842865" y="0.826935" width="77.4895" height="90.5117" filterUnits="userSpaceOnUse" color-interpolation-filters="sRGB">
<feFlood flood-opacity="0" result="BackgroundImageFix"/>
<feBlend mode="normal" in="SourceGraphic" in2="BackgroundImageFix" result="shape"/>
<feGaussianBlur stdDeviation="4" result="effect1_foregroundBlur_387_1148"/>
</filter>
<filter id="filter2_f_387_1148" x="30.6383" y="0.995789" width="58.9832" height="80.6942" filterUnits="userSpaceOnUse" color-interpolation-filters="sRGB">
<feFlood flood-opacity="0" result="BackgroundImageFix"/>
<feBlend mode="normal" in="SourceGraphic" in2="BackgroundImageFix" result="shape"/>
<feGaussianBlur stdDeviation="4" result="effect1_foregroundBlur_387_1148"/>
</filter>
<linearGradient id="paint0_linear_387_1148" x1="58.6575" y1="38.4648" x2="80.5271" y2="48.662" gradientUnits="userSpaceOnUse">
<stop stop-color="#729AA5"/>
<stop offset="0.198493" stop-color="#BFC6C5"/>
<stop offset="0.453125" stop-color="#848B8A"/>
<stop offset="0.524381" stop-color="#96A5A9"/>
<stop offset="0.796875" stop-color="#9CADB1"/>
<stop offset="0.895833" stop-color="#A5ABAD"/>
<stop offset="1" stop-color="#6E8186"/>
</linearGradient>
<radialGradient id="paint1_radial_387_1148" cx="0" cy="0" r="1" gradientUnits="userSpaceOnUse" gradientTransform="translate(113.803 17.0328) rotate(126.678) scale(55.6878 37.4893)">
<stop stop-color="white"/>
<stop offset="1" stop-color="white" stop-opacity="0"/>
</radialGradient>
<linearGradient id="paint2_linear_387_1148" x1="60.518" y1="38.4648" x2="38.6484" y2="48.662" gradientUnits="userSpaceOnUse">
<stop stop-color="#729AA5"/>
<stop offset="0.198493" stop-color="#BFC6C5"/>
<stop offset="0.453125" stop-color="#848B8A"/>
<stop offset="0.524381" stop-color="#96A5A9"/>
<stop offset="0.796875" stop-color="#9CADB1"/>
<stop offset="0.895833" stop-color="#A5ABAD"/>
<stop offset="1" stop-color="#6E8186"/>
</linearGradient>
<radialGradient id="paint3_radial_387_1148" cx="0" cy="0" r="1" gradientUnits="userSpaceOnUse" gradientTransform="translate(5.37204 17.0328) rotate(53.3222) scale(55.6878 37.4893)">
<stop stop-color="white"/>
<stop offset="1" stop-color="white" stop-opacity="0"/>
</radialGradient>
<linearGradient id="paint4_linear_387_1148" x1="37.8567" y1="41.3428" x2="60.1299" y2="41.3421" gradientUnits="userSpaceOnUse">
<stop stop-color="#729AA5"/>
<stop offset="0.198493" stop-color="#BFC6C5"/>
<stop offset="0.453125" stop-color="#848B8A"/>
<stop offset="0.524381" stop-color="#96A5A9"/>
<stop offset="0.796875" stop-color="#9CADB1"/>
<stop offset="0.895833" stop-color="#A5ABAD"/>
<stop offset="1" stop-color="#6E8186"/>
</linearGradient>
<radialGradient id="paint5_radial_387_1148" cx="0" cy="0" r="1" gradientUnits="userSpaceOnUse" gradientTransform="translate(82.3461 2.34191) rotate(106.677) scale(55.6883 37.4889)">
<stop stop-color="white"/>
<stop offset="1" stop-color="white" stop-opacity="0"/>
</radialGradient>
</defs>
</svg>
