<svg width="17" height="33" viewBox="0 0 17 33" fill="none" xmlns="http://www.w3.org/2000/svg">
<g clip-path="url(#clip0_156_19)">
<path d="M6.32322 24.3913C6.31101 24.3819 6.30185 24.3473 6.30185 24.316C6.30185 24.2815 6.2591 24.2344 6.20414 24.2062C6.07284 24.1403 5.97208 24.043 5.91711 23.9364C5.81635 23.7387 5.91101 23.3215 6.07284 23.2462C6.11559 23.2273 6.14918 23.196 6.14918 23.1803C6.14918 23.1646 6.08811 23.0799 6.01177 22.9983C5.93544 22.9168 5.87437 22.8226 5.87131 22.7913C5.87131 22.7599 5.86826 22.6658 5.86521 22.5779L5.8591 22.4211L5.72169 22.4117C5.64536 22.4085 5.55681 22.3897 5.52322 22.3771C5.32169 22.283 5.15986 22.2485 5.04688 22.2799C4.97055 22.3019 4.90643 22.3019 4.85146 22.2799C4.80872 22.2642 4.65604 22.2485 4.51559 22.2485C4.37513 22.2485 4.25299 22.236 4.24078 22.2203C4.2194 22.1795 4.47895 22.1419 4.58276 22.1701C4.62856 22.1795 4.80872 22.1889 4.98276 22.1889C5.15986 22.1889 5.36444 22.2046 5.44383 22.2234C5.52017 22.2391 5.63315 22.2548 5.69116 22.2517C5.81635 22.2485 5.95376 22.2987 5.97513 22.3552C5.98429 22.3772 5.99956 22.4775 6.01177 22.5811C6.03925 22.7975 6.04841 22.8226 6.19498 22.9983C6.25299 23.0736 6.30185 23.1615 6.30185 23.1928C6.30185 23.2273 6.32322 23.2619 6.34765 23.2713C6.43009 23.3058 6.3965 23.3748 6.28963 23.3968C6.15834 23.4219 6.06063 23.5254 6.02704 23.6791C5.98734 23.8548 6.08811 24.0211 6.28047 24.0964C6.35376 24.1246 6.36292 24.1466 6.36292 24.2721C6.36292 24.4164 6.35681 24.4289 6.32322 24.3913Z" fill="#C5C2BF"/>
<path d="M11.2209 10.8007C11.1843 10.7756 11.1812 10.7066 11.2026 10.4148C11.2148 10.2203 11.2301 9.89092 11.2362 9.68387C11.2423 9.34818 11.2576 9.15994 11.3278 8.41328C11.337 8.30034 11.3919 7.96151 11.453 7.66034C11.5507 7.1521 11.5568 7.08622 11.5385 6.75053C11.5263 6.55289 11.4957 6.29877 11.4744 6.18583C11.4499 6.07289 11.4163 5.91289 11.4041 5.82504C11.3644 5.6023 11.3431 5.55838 11.2118 5.40779C11.0683 5.24465 11.0011 5.09406 10.9156 4.72701C10.8515 4.45407 10.7263 4.08387 10.6041 3.80779C10.5339 3.64779 10.5308 3.61328 10.5889 3.61328C10.6347 3.61328 10.827 3.97407 10.8637 4.13093C10.9064 4.30975 11.3461 5.2572 11.4316 5.35759C11.5324 5.47995 11.5995 5.67759 11.6484 6.01328C11.7247 6.54034 11.7095 6.95759 11.5843 7.91132C11.5385 8.25014 11.4713 8.92465 11.4316 9.43289C11.4133 9.67445 11.3828 9.99132 11.3644 10.1388C11.3461 10.2862 11.3247 10.4901 11.3186 10.5937C11.3034 10.8007 11.285 10.8384 11.2209 10.8007V10.8007Z" fill="#C5C2BF"/>
<path d="M6.9339 7.66033C6.90337 7.58818 6.82092 6.77249 6.82092 6.51837C6.82092 6.35523 6.83924 6.25484 6.88199 6.16386C6.95833 6.00072 7.02245 5.95053 6.98886 6.07916C6.94917 6.23288 6.94306 6.63445 6.9797 6.78504C7.01634 6.93876 6.9736 7.74818 6.9339 7.66033Z" fill="#C5C2BF"/>
<path d="M7.00415 5.79052C7.00415 5.74346 7.19652 5.19444 7.22094 5.16934C7.2698 5.11601 7.25148 5.25405 7.19346 5.38581C7.16293 5.45483 7.12018 5.57719 7.09881 5.66189C7.07438 5.74346 7.04384 5.80934 7.03163 5.80934C7.01636 5.80934 7.00415 5.79993 7.00415 5.79052Z" fill="#C5C2BF"/>
<path d="M6.91249 30.3552C6.91249 30.3082 6.88196 30.2486 6.8331 30.2078C6.56746 29.9819 6.53997 29.9098 6.62242 29.665C6.68043 29.4925 6.82394 29.3231 6.92776 29.3011C6.96746 29.2948 6.98883 29.2666 6.98578 29.2196C6.98272 29.1254 7.05906 29.1317 7.08349 29.2258L7.10181 29.3011L7.28807 29.2572C7.39188 29.2321 7.4957 29.1913 7.52318 29.1662C7.56288 29.1286 7.65753 29.1286 8.10333 29.1505C8.39646 29.1662 8.68654 29.1945 8.74456 29.2133C8.80257 29.229 8.92165 29.2447 9.0102 29.2447C9.1354 29.2447 9.1873 29.229 9.25448 29.1694C9.36135 29.0721 9.33387 29.0094 9.13845 28.9058C9.02547 28.8462 8.97356 28.8368 8.79036 28.8525C8.31097 28.887 7.7583 28.9058 7.65753 28.887C7.57509 28.8682 7.55372 28.8525 7.55372 28.7898C7.55372 28.7113 7.57814 28.6988 7.77356 28.6611C7.85295 28.6486 7.93234 28.5952 8.04227 28.4854C8.12471 28.3976 8.19494 28.3223 8.19494 28.316C8.19494 28.3098 8.13081 28.3035 8.05143 28.3035C7.88349 28.3035 7.81326 28.269 7.83768 28.1999C7.85601 28.1529 8.01173 28.1152 8.19494 28.1152C8.25601 28.1152 8.35677 28.087 8.42394 28.0525C8.50333 28.0117 8.65906 27.9803 8.92471 27.9552C9.24227 27.9239 9.33081 27.905 9.42547 27.8423C9.52929 27.7764 9.5415 27.7545 9.52318 27.6823C9.51097 27.6352 9.48349 27.5756 9.45906 27.5474C9.43463 27.5223 9.41631 27.4627 9.41631 27.4219C9.41631 27.3435 9.27585 27.1741 9.21478 27.1741C9.19646 27.1741 9.15677 27.1458 9.12929 27.1145C9.08349 27.0643 9.06211 27.058 8.97967 27.0862C8.92471 27.105 8.86975 27.1333 8.85448 27.1458C8.83616 27.1615 8.7873 27.1741 8.7415 27.1741C8.6957 27.1741 8.64685 27.1898 8.63768 27.2054C8.62852 27.2243 8.48501 27.2368 8.31707 27.2368C7.9812 27.2368 7.99952 27.2494 7.93845 26.9545C7.90486 26.7882 7.89875 26.7788 7.74608 26.7035C7.65753 26.6596 7.56898 26.6062 7.54761 26.5874C7.52929 26.5654 7.48654 26.5466 7.45601 26.5466C7.36135 26.5466 7.39494 26.4337 7.52318 26.3145L7.64226 26.2047L8.29265 26.2078C8.89417 26.2109 8.95524 26.2078 9.08959 26.145C9.16898 26.1105 9.2331 26.0635 9.2331 26.0478C9.2331 25.9788 9.35524 26.0164 9.41936 26.1043C9.45601 26.1576 9.52624 26.2141 9.57509 26.236C9.69723 26.2862 9.91097 26.2768 9.94456 26.2172C9.9812 26.145 10.0362 26.1607 10.0178 26.2392C9.99646 26.3145 10.0545 26.4431 10.1461 26.5278C10.2255 26.6031 10.3323 26.8917 10.3323 27.0392C10.3323 27.196 10.2224 27.4125 10.0514 27.5913L9.90486 27.7419L10.0117 27.836C10.1125 27.927 10.1186 27.9458 10.1186 28.1184C10.1186 28.3411 10.0514 28.5639 9.9354 28.7145C9.88654 28.7772 9.82547 28.9058 9.79799 28.9999C9.77051 29.0972 9.70333 29.229 9.64227 29.3043C9.53845 29.4266 9.5354 29.4423 9.56898 29.527C9.61173 29.6305 9.59036 29.8533 9.52013 30.0258C9.4957 30.0823 9.47738 30.1576 9.47738 30.189C9.47738 30.2486 9.44379 30.2674 9.4041 30.2266C9.38272 30.2047 9.32165 30.1984 8.91249 30.1796C8.79646 30.1733 8.61936 30.1419 8.52471 30.1105C8.31402 30.0415 8.29265 29.9694 8.43921 29.825C8.53692 29.7278 8.55524 29.6588 8.49417 29.596C8.44532 29.5458 7.82547 29.5458 7.56898 29.596C7.37662 29.6305 7.37662 29.6305 7.4102 29.7121C7.42852 29.756 7.48043 29.8376 7.52929 29.8878C7.57509 29.9411 7.61478 30.0101 7.61478 30.0415C7.61478 30.0917 7.59646 30.098 7.46211 30.0854C7.33387 30.0729 7.29417 30.0823 7.20868 30.145C7.15677 30.189 7.08043 30.236 7.04379 30.2517C6.99494 30.2705 6.97356 30.305 6.97356 30.3584C6.97356 30.4023 6.96135 30.4368 6.94303 30.4368C6.92776 30.4368 6.91249 30.3992 6.91249 30.3552V30.3552Z" fill="#ABA093"/>
<path d="M6.77511 28.065C6.74458 28.0399 6.68351 28.021 6.64381 28.021C6.53694 28.021 6.35068 27.8014 6.22244 27.5253C6.11862 27.2995 6.11557 27.2901 6.15221 27.1175C6.21939 26.7755 6.33236 26.6406 6.54916 26.6406C6.62549 26.6406 6.64076 26.625 6.65908 26.5465C6.68046 26.4336 6.72931 26.421 6.72931 26.5277C6.72931 26.5716 6.74458 26.6155 6.75985 26.625C6.82397 26.6657 6.78427 26.7285 6.64076 26.8069C6.55832 26.854 6.46366 26.8916 6.43007 26.8916C6.26824 26.8916 6.21939 27.1834 6.34763 27.3622C6.44229 27.494 6.48504 27.5222 6.55832 27.5002C6.58885 27.4908 6.67435 27.5002 6.75068 27.5191C6.85145 27.5504 6.8942 27.5504 6.92168 27.5222C7.00717 27.4344 7.22091 27.5253 7.21786 27.6477C7.21481 27.6728 7.14458 27.7481 7.05908 27.8171C6.97359 27.8861 6.88809 27.9802 6.86977 28.0273C6.83923 28.1026 6.83007 28.1057 6.77511 28.065V28.065Z" fill="#ABA093"/>
<path d="M6.60716 26.0603C6.60716 25.9818 6.59189 25.9442 6.55525 25.9316C6.28044 25.8501 6.17357 25.665 6.2438 25.4108C6.26517 25.3355 6.28044 25.2383 6.27433 25.1912C6.27128 25.141 6.27128 25.1034 6.27739 25.1034C6.28349 25.1034 6.35067 25.1379 6.43311 25.1787C6.55525 25.2446 6.59494 25.2508 6.67739 25.2226C6.72929 25.2069 6.79952 25.185 6.83006 25.1755C6.87586 25.1599 6.88197 25.1818 6.88197 25.3199C6.88197 25.5991 7.01632 25.7716 7.25448 25.8061C7.37662 25.825 7.4041 25.8406 7.41937 25.9065C7.43158 25.9504 7.42853 25.9944 7.41632 26.0069C7.4041 26.0195 7.23616 26.0289 7.04074 26.0289C6.69571 26.0289 6.68349 26.032 6.67433 26.101C6.65906 26.2108 6.60716 26.1795 6.60716 26.0603V26.0603Z" fill="#ABA093"/>
<path d="M9.09875 25.7434C9.03157 25.7183 8.90333 25.6901 8.81173 25.6775L8.64684 25.6587L8.66516 25.4893C8.67737 25.3952 8.70485 25.276 8.73234 25.2226C8.77203 25.1442 8.77508 25.1222 8.73844 25.1003C8.67432 25.0564 8.61631 25.0658 8.54913 25.1317C8.48501 25.1913 8.19188 25.2917 8.08195 25.2917C8.04837 25.2917 7.99646 25.2634 7.96287 25.2258C7.93234 25.1881 7.856 25.1348 7.79798 25.1034C7.6789 25.0407 7.5415 24.8681 7.56287 24.8085C7.5934 24.7301 7.91707 24.6893 8.46669 24.6956C9.25142 24.705 9.88043 24.6799 9.95676 24.6391C10.0362 24.5952 10.0758 24.4885 10.03 24.4321C10.0117 24.4101 9.89569 24.3819 9.76134 24.3724C9.63005 24.3599 9.41936 24.3285 9.29417 24.3003C8.96745 24.2281 8.45753 24.2344 8.15218 24.316C7.89264 24.3881 7.33081 24.407 7.12623 24.3536C7.06821 24.3379 6.93997 24.3097 6.84531 24.2877C6.68043 24.2501 6.66821 24.2407 6.66821 24.156C6.66821 24.0211 6.83921 23.6948 6.92775 23.6603C6.98882 23.6352 7.00409 23.6101 7.00409 23.516V23.403L7.25753 23.425C7.5873 23.4532 7.61478 23.4626 7.61478 23.5536C7.61478 23.5944 7.60256 23.6289 7.5873 23.6289C7.55982 23.6289 7.57814 23.8454 7.60562 23.8799C7.63921 23.9175 7.73692 23.7387 7.73692 23.6415C7.73692 23.5724 7.75524 23.5285 7.79188 23.5097C7.91096 23.4438 8.59493 23.4438 9.0163 23.5066C9.24226 23.5411 9.44073 23.5787 9.45905 23.5913C9.47737 23.6007 9.57508 23.6226 9.67585 23.6352C9.77661 23.6446 9.88959 23.6666 9.92623 23.676C9.97508 23.6917 10.0148 23.676 10.0728 23.6132C10.1461 23.5379 10.1644 23.5348 10.2529 23.5662C10.3415 23.5975 10.3537 23.5944 10.4789 23.4564C10.5522 23.3779 10.6224 23.3152 10.6346 23.3152C10.6652 23.3152 10.8056 23.472 10.8484 23.5568C10.8667 23.5944 10.882 23.7168 10.882 23.8297C10.882 24.0305 10.8789 24.0368 10.7598 24.1371C10.5888 24.2783 10.5033 24.4226 10.543 24.5042C10.5919 24.5983 10.5827 24.9968 10.5278 25.2038C10.4881 25.3419 10.4514 25.4077 10.372 25.4736C10.314 25.5207 10.2255 25.5991 10.1766 25.6493C10.0942 25.734 10.0881 25.734 10.0881 25.6713C10.0881 25.527 9.85905 25.5521 9.52318 25.7309C9.38577 25.803 9.26669 25.8062 9.09875 25.7434V25.7434Z" fill="#ABA093"/>
<path d="M8.47284 32.2877C8.43009 32.2783 8.39039 32.2501 8.38429 32.2281C8.37513 32.1968 8.39039 32.1905 8.44536 32.203C8.50032 32.2187 8.53696 32.2062 8.57665 32.1622C8.62856 32.1026 8.62856 32.0932 8.57971 31.9301C8.54917 31.836 8.48505 31.6917 8.43314 31.6069C8.3049 31.403 8.25604 31.2211 8.25604 30.9513C8.25604 30.7379 8.26215 30.7128 8.3507 30.6093C8.40871 30.5434 8.49116 30.4869 8.57055 30.465C8.81788 30.396 9.32169 30.5026 9.34917 30.625C9.40719 30.8791 9.40719 30.9795 9.34001 31.1081C9.30337 31.1771 9.24841 31.356 9.21788 31.5034C9.14765 31.8422 9.04383 32.0085 8.76902 32.2187C8.69574 32.2783 8.55528 32.3097 8.47284 32.2877V32.2877Z" fill="#969695"/>
<path d="M8.78735 22.0729C8.77514 21.9819 8.78125 21.916 8.80262 21.894C8.84842 21.847 8.84232 21.6838 8.79041 21.5897C8.6927 21.4172 8.79041 21.3356 8.95529 21.4517C8.99193 21.4799 9.13545 21.5427 9.2698 21.5929C9.54766 21.6932 9.63011 21.756 9.63011 21.8595C9.63011 21.9191 9.60568 21.938 9.50186 21.9693C9.42858 21.9881 9.28201 22.0509 9.17514 22.1105C9.06827 22.1701 8.94003 22.2172 8.89422 22.2172C8.81789 22.2172 8.80873 22.2046 8.78735 22.0729V22.0729Z" fill="#969695"/>
<path d="M6.32625 20.6516L6.17969 20.501L6.18579 20.2595C6.18885 20.1214 6.20717 20.021 6.22549 20.021C6.24076 20.021 6.33541 19.9457 6.43312 19.8548L6.61327 19.6916L6.64076 19.4563C6.77511 18.2673 6.83007 17.7246 6.88198 17.072C6.92167 16.545 6.95831 16.2156 7.06518 15.4344C7.3919 13.0501 7.38885 13.0814 7.32472 12.3818C7.26976 11.7701 7.18732 10.3238 7.20869 10.2861C7.22396 10.261 7.17205 9.56771 7.12625 9.18183C7.10793 9.04379 7.07434 8.75516 7.04992 8.53869C7.02549 8.32222 6.9919 8.03359 6.97358 7.89241C6.95526 7.75438 6.94305 7.45634 6.9461 7.23359C6.94915 7.01085 6.94305 6.69398 6.93389 6.53085C6.91556 6.21712 6.96137 5.93477 7.08961 5.5583C7.16595 5.33555 7.41327 4.56379 7.63312 3.86418C7.82243 3.25869 7.97511 2.88222 8.38427 2.01947C8.53388 1.70261 8.71098 1.30418 8.77816 1.13163C8.93999 0.708103 9.0377 0.51673 9.10793 0.475946C9.19648 0.428887 9.40717 0.438299 9.48961 0.491632C9.57816 0.55124 9.6148 0.64222 9.67587 0.946534C9.72778 1.20693 10.1095 2.44614 10.2346 2.76614C10.2774 2.87595 10.3873 3.11751 10.4759 3.29947C10.5644 3.48144 10.6255 3.63202 10.6102 3.6383C10.5919 3.64457 10.6041 3.70732 10.6377 3.77947C10.7568 4.05555 10.882 4.42261 10.9461 4.69555C11.0316 5.06261 11.0988 5.2132 11.2423 5.37634C11.3736 5.52693 11.395 5.57085 11.4346 5.79359C11.4469 5.88144 11.4804 6.04457 11.5049 6.15751C11.5293 6.27045 11.5568 6.54026 11.569 6.75359C11.5873 7.11751 11.5843 7.17712 11.4835 7.69163C11.4255 7.99281 11.3614 8.41006 11.343 8.61712C11.3217 8.82418 11.2942 9.13477 11.2789 9.30418C11.2637 9.47673 11.2606 9.63045 11.2698 9.64614C11.2789 9.66183 11.2698 9.91594 11.2484 10.2077C11.2209 10.5716 11.2179 10.7473 11.2392 10.7599C11.2759 10.785 11.2423 11.5724 11.1873 12.0524C11.169 12.2156 11.1385 12.5073 11.1232 12.6956C11.0774 13.2728 11.0499 13.4422 10.9827 13.5834C10.9217 13.7089 10.9186 13.7591 10.9156 14.945C10.9125 16.2375 10.9553 17.9097 11.0072 18.5152C11.0255 18.7128 11.0499 19.0955 11.0591 19.3622C11.0713 19.6289 11.0927 19.8673 11.1049 19.8893C11.1201 19.9081 11.169 19.9269 11.2209 19.9269C11.2698 19.9269 11.3095 19.9426 11.3095 19.9583C11.3095 19.9771 11.2759 19.9897 11.2362 19.9897C11.111 19.9897 11.0346 20.0838 11.0163 20.2563C11.0041 20.3536 10.9705 20.4508 10.9278 20.5042C10.8606 20.592 10.8392 20.5983 10.5919 20.6108C10.3354 20.6234 10.3262 20.6234 10.2377 20.5355C10.1247 20.4257 10.1247 20.3567 10.2377 20.3128C10.369 20.2626 10.4301 20.1434 10.4484 19.8955C10.4637 19.6854 10.4575 19.6728 10.3507 19.5097C10.2408 19.3465 10.2377 19.3371 10.2438 19.061C10.2469 18.9073 10.2346 18.6752 10.2163 18.5465C10.1583 18.1763 10.1339 17.6775 10.1736 17.6273C10.2224 17.5677 10.2194 17.3324 10.1614 16.752C10.1095 16.2469 10.1095 16.2187 10.1644 15.9363C10.198 15.7763 10.2194 15.5473 10.2163 15.425C10.2133 15.3057 10.2224 15.1614 10.2377 15.105C10.256 15.0422 10.256 15.0014 10.2377 15.0014C10.2011 15.0014 10.2041 13.4642 10.2408 12.6642C10.2591 12.3191 10.2774 11.9238 10.2835 11.7857C10.2927 11.5128 10.3415 11.1614 10.4117 10.8132C10.4362 10.694 10.4545 10.4524 10.4545 10.2799C10.4575 10.1073 10.482 9.81241 10.5156 9.62104C10.6102 9.07516 10.6713 8.60143 10.653 8.57006C10.6224 8.51987 10.7049 8.25634 10.7659 8.21242C10.8117 8.17791 10.8179 8.15594 10.7965 8.10889C10.7171 7.9583 10.7537 6.38653 10.8392 6.21085C10.9003 6.09163 10.8911 6.00065 10.8087 5.74026C10.7659 5.61477 10.7324 5.44849 10.7354 5.37006C10.7354 5.23202 10.6743 5.0783 10.5339 4.86183C10.4392 4.71438 10.2743 4.2783 10.2377 4.07751C10.1919 3.83281 10.0545 3.39673 9.92014 3.06418C9.86518 2.92614 9.79495 2.72849 9.76442 2.62496C9.73694 2.52144 9.7003 2.42104 9.68808 2.40536C9.67587 2.38653 9.65449 2.29869 9.64228 2.20457C9.61785 2.00379 9.47434 1.82497 9.33999 1.82497C9.23617 1.82497 9.06213 1.99751 9.03465 2.12614C9.02243 2.17634 8.98274 2.28928 8.93999 2.37398C8.9003 2.46183 8.86671 2.57477 8.86671 2.62496C8.86671 2.72536 8.84228 2.77242 8.70488 2.97947C8.61022 3.11751 8.46976 3.50967 8.46976 3.63516C8.46976 3.74496 8.35679 4.12457 8.27129 4.31908C8.23159 4.40693 8.14304 4.64536 8.07282 4.85242C8.00564 5.05947 7.9293 5.27281 7.90488 5.32928C7.85908 5.42653 7.76137 5.7434 7.72472 5.91281C7.71251 5.96614 7.72472 6.04144 7.75526 6.11045C7.80717 6.2234 7.80411 6.27987 7.73694 6.68771C7.6606 7.13006 7.62091 8.46653 7.67587 8.80536C7.70335 8.99045 7.71251 9.18496 7.71862 9.69947C7.72167 10.3269 7.71251 10.5434 7.66671 10.7348C7.62091 10.9387 7.57816 12.6328 7.569 14.8759C7.56595 15.4281 7.55373 15.6759 7.5232 15.7544C7.49572 15.8297 7.48045 16.0712 7.4774 16.523C7.47129 16.9528 7.45297 17.2791 7.41938 17.4642C7.39495 17.621 7.37053 17.7967 7.37053 17.8595C7.37053 17.9222 7.36137 17.9818 7.35221 17.9912C7.33999 18.0006 7.32778 18.145 7.32472 18.3081C7.31862 18.4712 7.3064 18.6469 7.29419 18.7003C7.27892 18.7787 7.28503 18.7975 7.32472 18.7975C7.38885 18.7975 7.37358 18.9105 7.27587 19.1959C7.24228 19.2963 7.2148 19.425 7.21785 19.4814C7.21785 19.5473 7.19037 19.6226 7.14152 19.6885C6.98274 19.9018 7.01938 20.1371 7.23312 20.2814C7.29114 20.3191 7.33999 20.3661 7.33694 20.3818C7.33694 20.4195 7.01022 20.6673 6.85755 20.7489C6.79648 20.7803 6.68656 20.8054 6.61022 20.8054C6.49114 20.8054 6.4606 20.7897 6.32625 20.6516V20.6516ZM11.1415 8.50732C11.1507 8.48849 11.1262 8.47594 11.0835 8.47594C11.0224 8.47594 10.9919 8.45085 10.9583 8.37555L10.9156 8.27202L10.9308 8.39751C10.943 8.46653 10.9797 8.58575 11.0163 8.66104L11.0804 8.79908L11.1018 8.66732C11.114 8.59516 11.1324 8.523 11.1415 8.50732V8.50732Z" fill="#969695"/>
<path d="M10.2194 23.5975C10.1553 23.5693 10.1492 23.5473 10.1492 23.3026C10.1492 23.0548 10.1553 23.0328 10.2286 22.9732C10.3934 22.8383 10.6377 22.9293 10.6377 23.127C10.6377 23.1709 10.653 23.2242 10.6744 23.2462C10.6988 23.2713 10.6683 23.3246 10.5461 23.4564C10.3782 23.6321 10.3415 23.6477 10.2194 23.5975Z" fill="#A49778"/>
<path d="M0.961374 21.5929C0.885038 21.5145 0.881984 21.4705 0.955267 21.3795C1.01023 21.3105 1.72473 20.956 2.16137 20.7772C2.29572 20.7207 2.41786 20.658 2.43618 20.636C2.4545 20.6109 2.59191 20.5607 2.74153 20.5231C2.88809 20.4854 3.10488 20.4133 3.21786 20.3631C3.40412 20.2815 3.85603 20.1843 4.28656 20.1309C4.37817 20.1184 4.61328 20.0807 4.80565 20.0462C5.08962 19.996 5.22702 19.9866 5.52015 20.0023C5.72168 20.0117 5.88962 20.0243 5.89267 20.0305C5.89878 20.0368 5.91099 20.1215 5.92321 20.2188C5.94153 20.3662 5.93542 20.4101 5.88962 20.4603C5.82244 20.5356 5.65756 20.5419 5.55679 20.476C5.49878 20.4352 5.44382 20.4321 5.24534 20.4572C4.92779 20.498 4.6316 20.567 4.50641 20.6329C4.43924 20.6674 4.37511 20.6799 4.32321 20.6643C4.21939 20.6392 4.18275 20.6392 3.84382 20.6768C3.05908 20.7615 2.20412 21.1097 1.72779 21.5396C1.67893 21.5835 1.6087 21.6054 1.51405 21.6086C1.43466 21.6117 1.2942 21.6243 1.19954 21.6368C1.04687 21.6588 1.01939 21.6525 0.961374 21.5929V21.5929Z" fill="#A49778"/>
<path d="M15.6301 21.4957C15.5446 21.3576 15.4682 21.3043 15.3095 21.2761C15.2362 21.2635 15.1995 21.2415 15.1904 21.1976C15.1843 21.1631 15.1232 21.0721 15.056 20.9937C14.7354 20.6329 14.598 20.5921 13.5385 20.5513C12.7965 20.52 12.7171 20.5137 12.5919 20.4478C12.5156 20.4102 12.4179 20.3662 12.3721 20.3568C12.198 20.3098 12.3049 20.1937 12.6072 20.0996C12.7171 20.0682 12.827 20.0682 13.2392 20.1059C14.0606 20.178 14.6224 20.2596 14.8973 20.3474C14.9828 20.3725 15.1324 20.4164 15.2331 20.4478C15.6667 20.5702 15.7247 20.5953 15.853 20.7208C15.9232 20.7929 15.9812 20.8619 15.9812 20.8745C15.9812 20.9247 15.9049 20.8964 15.8224 20.8149C15.6728 20.6674 15.7217 20.7835 15.9354 21.0847C16.024 21.207 16.0331 21.3513 15.969 21.5114C15.9293 21.6086 15.911 21.6212 15.8163 21.6212C15.7217 21.6212 15.6973 21.6023 15.6301 21.4957V21.4957Z" fill="#A49778"/>
<path d="M8.31708 30.6376C8.31708 30.603 8.35067 30.5246 8.39341 30.4619C8.43616 30.3991 8.46975 30.327 8.46975 30.3019C8.46975 30.2768 8.49112 30.2454 8.51861 30.236C8.55219 30.2234 8.5583 30.1952 8.54609 30.1513C8.52471 30.0885 8.53082 30.0854 8.64074 30.1105C8.75372 30.1356 9.00716 30.1513 9.28502 30.1576C9.44075 30.1576 9.4896 30.214 9.46517 30.3489C9.4438 30.4619 9.3522 30.5936 9.29418 30.5936C9.27586 30.5936 9.22395 30.5748 9.17815 30.5497C9.06823 30.4932 8.71708 30.4619 8.58883 30.4995C8.53387 30.5152 8.45143 30.5685 8.40257 30.6156C8.32624 30.6909 8.31708 30.694 8.31708 30.6376V30.6376Z" fill="#958979"/>
<path d="M7.62089 30.1011C7.58425 30.0948 7.56288 30.0729 7.57204 30.054C7.5812 30.0383 7.55067 29.9787 7.50181 29.9254C7.45296 29.8689 7.39189 29.7748 7.36441 29.7121L7.31555 29.6023L7.52624 29.5646C7.81021 29.5144 8.47585 29.5144 8.52471 29.5646C8.59189 29.6336 8.56746 29.7623 8.46975 29.8564C8.41479 29.9129 8.3812 29.9725 8.38425 30.0132C8.39341 30.0697 8.37204 30.0791 8.19494 30.0948C7.96899 30.1199 7.72166 30.1199 7.62089 30.1011Z" fill="#958979"/>
<path d="M6.94613 28.9089C6.95835 28.8399 6.93697 28.8054 6.88812 28.8054C6.79041 28.8054 6.72018 28.6925 6.70491 28.5105C6.6927 28.3536 6.69881 28.338 6.77209 28.2878C6.84232 28.2407 6.84842 28.2187 6.83316 28.1152C6.81484 27.9991 6.86064 27.9144 6.89423 28.0054C6.90339 28.0305 6.92781 28.0431 6.94919 28.0368C6.97056 28.0274 7.11713 28.0336 7.2759 28.0493C7.49575 28.0681 7.59957 28.065 7.71865 28.0305C7.82552 28.0023 7.94766 27.9929 8.10644 28.0085C8.28964 28.0211 8.35987 28.0148 8.43316 27.9772C8.54919 27.9144 8.78735 27.9081 8.76903 27.9678C8.75987 27.9866 8.71102 28.0085 8.653 28.0148C8.59804 28.0211 8.51865 28.0462 8.48201 28.0744C8.44232 28.0995 8.2988 28.134 8.1614 28.1497C8.024 28.1654 7.89881 28.1874 7.88354 28.1968C7.82858 28.2313 7.92934 28.2721 8.07285 28.2752C8.14919 28.2752 8.23774 28.2878 8.27132 28.3003C8.32629 28.3223 8.32323 28.3285 8.23774 28.3756C8.18583 28.4038 8.09728 28.4791 8.03621 28.5481C7.95987 28.636 7.8927 28.6768 7.81026 28.6925C7.59957 28.7301 7.57819 28.7427 7.59346 28.8117C7.60873 28.8681 7.59957 28.8713 7.52934 28.8525C7.48354 28.8399 7.3614 28.8242 7.25453 28.8148C7.07743 28.8023 7.05911 28.8054 7.04384 28.865C7.02858 28.9246 6.93697 28.9623 6.94613 28.9089V28.9089Z" fill="#958979"/>
<path d="M7.48355 27.6854C7.47134 27.676 7.40722 27.6666 7.33699 27.6697C7.23622 27.676 7.19958 27.6603 7.15073 27.5976C7.08355 27.5097 7.03164 27.5003 6.94309 27.5568C6.89729 27.5882 6.85454 27.5882 6.74462 27.5568C6.66523 27.5348 6.5889 27.5254 6.57363 27.538C6.50951 27.5756 6.39958 27.516 6.32019 27.3999C6.18279 27.1929 6.23164 26.8603 6.40264 26.8603C6.43928 26.8603 6.53088 26.8227 6.60722 26.7756C6.72019 26.7066 6.78432 26.6909 6.96447 26.6909C7.16905 26.6878 7.19042 26.6815 7.28508 26.5874C7.38889 26.4838 7.4805 26.4744 7.58126 26.5591C7.60264 26.578 7.69118 26.6281 7.77668 26.6721C7.92935 26.7474 7.93546 26.7568 7.96905 26.9231C8.02706 27.218 8.01485 27.2054 8.31714 27.2054C8.46676 27.2054 8.59805 27.1929 8.60721 27.174C8.61637 27.1583 8.66523 27.1427 8.71103 27.1427C8.75683 27.1427 8.80569 27.1301 8.82401 27.1144C8.83928 27.0987 8.9034 27.0705 8.96752 27.0485C9.07439 27.014 9.09271 27.0172 9.15378 27.0768C9.19042 27.1144 9.23622 27.1427 9.25149 27.1427C9.31561 27.1427 9.44691 27.3215 9.44691 27.4062C9.44691 27.4909 9.4408 27.494 9.3492 27.4752C9.28508 27.4627 9.23622 27.4721 9.20569 27.5003C9.17515 27.5285 9.02248 27.5568 8.79042 27.5787C8.58889 27.5976 8.36905 27.6289 8.30187 27.6446C8.14615 27.6823 7.51103 27.7136 7.48355 27.6854V27.6854Z" fill="#958979"/>
<path d="M7.3858 25.9222C7.37359 25.8752 7.33084 25.8532 7.22397 25.8375C6.9858 25.803 6.85145 25.6305 6.85145 25.3607V25.2038L6.72626 25.2509C6.58275 25.3011 6.45451 25.2728 6.32016 25.163C6.24687 25.1034 6.24077 25.0783 6.24077 24.8744C6.24382 24.7395 6.25909 24.6171 6.28657 24.5701C6.311 24.5262 6.32932 24.4164 6.33237 24.3254C6.33237 24.1748 6.32626 24.1591 6.24993 24.1277C6.05756 24.0524 5.95374 23.883 5.98428 23.6885C6.01176 23.5191 6.11863 23.3905 6.26214 23.3622C6.3568 23.3466 6.36596 23.3371 6.32321 23.3121C6.28046 23.2838 6.24687 23.1897 6.28351 23.1897C6.33237 23.1897 6.91863 23.3246 6.99802 23.3528C7.08962 23.3873 7.13237 23.4407 7.06519 23.4407C7.04993 23.4407 7.03466 23.4909 7.03466 23.5505C7.03466 23.6415 7.01939 23.6666 6.95832 23.6917C6.86672 23.7293 6.68657 24.0744 6.70794 24.1811C6.72016 24.2501 6.711 24.2564 6.58886 24.2564C6.47588 24.2564 6.45451 24.2658 6.45451 24.3191C6.45451 24.3693 6.47588 24.3819 6.55527 24.3819C6.61023 24.3819 6.6713 24.3975 6.69267 24.4195C6.711 24.4383 6.83924 24.4948 6.97359 24.5419C7.111 24.5921 7.26367 24.6673 7.31252 24.7113C7.37359 24.7615 7.44382 24.7897 7.511 24.7897C7.56901 24.7897 7.61176 24.7991 7.60871 24.8148C7.59344 24.8619 7.71863 25.0156 7.81023 25.0626C7.86214 25.0877 7.94153 25.1473 7.98733 25.1881L8.06977 25.2697L8.26825 25.2132C8.37817 25.1819 8.49115 25.1317 8.51863 25.1003C8.5797 25.0313 8.70794 25.0219 8.78733 25.0815C8.83924 25.1191 8.83924 25.1285 8.77512 25.2352C8.73542 25.3073 8.70794 25.4109 8.70489 25.5113C8.69878 25.6681 8.69878 25.6681 8.57664 25.6995C8.47283 25.7246 8.21329 25.8062 7.85909 25.9222C7.81634 25.9348 7.69726 25.9568 7.59344 25.9662C7.42245 25.985 7.40413 25.9819 7.3858 25.9222V25.9222Z" fill="#958979"/>
<path d="M7.55372 23.8297C7.55372 23.7858 7.53845 23.7231 7.52318 23.6886C7.4957 23.6415 7.50181 23.6227 7.53845 23.607C7.56898 23.5976 7.58425 23.5662 7.57509 23.5348C7.56288 23.4878 7.5873 23.4752 7.68807 23.4595C7.94761 23.4188 8.60715 23.4031 8.75982 23.4344C8.84226 23.4533 9.05601 23.4815 9.2331 23.5003C9.4102 23.5191 9.62394 23.5442 9.70639 23.5537C10.0606 23.5976 10.0728 23.5944 10.082 23.4721C10.1094 23.0517 10.1797 22.9513 10.1797 23.3309C10.1797 23.5442 10.1705 23.5788 10.1003 23.6509C10.0331 23.7199 10.0056 23.7262 9.91097 23.7074C9.8499 23.6948 9.72165 23.676 9.63005 23.6635C9.53845 23.654 9.44684 23.6321 9.42852 23.6227C9.4102 23.6101 9.21173 23.5725 8.98578 23.5411C8.5644 23.4784 7.9354 23.4784 7.82242 23.5411C7.78578 23.5568 7.76746 23.6039 7.76746 23.6697C7.76746 23.7952 7.69417 23.9113 7.61173 23.9113C7.56898 23.9113 7.55372 23.8893 7.55372 23.8297V23.8297Z" fill="#958979"/>
<path d="M0.918634 21.6274C0.854511 21.5521 0.851458 21.4517 0.91558 21.3513C0.998023 21.2258 2.15833 20.6799 2.34459 20.6799C2.46978 20.6799 2.42092 20.7176 2.16444 20.8211C1.76444 20.9811 1.04077 21.345 0.985809 21.4109C0.949168 21.458 0.943061 21.4956 0.961382 21.5333C1.00413 21.6148 1.09879 21.6305 1.30642 21.5866C1.56291 21.5364 1.68505 21.5803 1.44688 21.6399C1.1965 21.7027 0.979702 21.6964 0.918634 21.6274V21.6274Z" fill="#958979"/>
<path d="M10.7904 20.8085C10.7446 20.7207 10.7507 20.5544 10.7995 20.5544C10.8698 20.5544 10.9614 20.3881 10.9827 20.225C10.9949 20.1403 11.0224 20.0493 11.0469 20.0274C11.1201 19.9521 11.3094 19.927 11.4255 19.9772C11.5049 20.0085 11.6759 20.0211 12.1156 20.0211C12.7049 20.0211 12.8698 20.0493 12.7049 20.1121C12.656 20.1309 12.6041 20.1466 12.5888 20.1466C12.5736 20.1466 12.5003 20.1779 12.4301 20.2125C12.3018 20.2815 12.3018 20.2815 12.3781 20.3129C12.5766 20.3913 12.7751 20.498 12.7751 20.523C12.7751 20.5701 12.5552 20.5576 12.4698 20.5074C12.427 20.4823 12.3507 20.4634 12.2957 20.4603C12.14 20.4603 12.0392 20.4038 12.0026 20.3034C11.969 20.2093 11.9659 20.2093 11.7308 20.2093C11.5232 20.2093 11.4743 20.1968 11.3705 20.1278C11.2148 20.0211 11.1354 20.0462 11.111 20.203C11.0988 20.2658 11.0652 20.3756 11.0316 20.4478C11.001 20.5199 10.9736 20.6423 10.9736 20.7238C10.9736 20.8556 10.9675 20.8681 10.8972 20.8681C10.8545 20.8681 10.8087 20.843 10.7904 20.8085V20.8085Z" fill="#958979"/>
<path d="M7.53239 32.2187C7.4591 32.1904 7.31559 32.1026 7.21177 32.0242C7.10796 31.9457 6.99803 31.8799 6.9675 31.8799C6.89422 31.8799 6.86063 31.7889 6.82704 31.5034C6.7904 31.2022 6.80261 31.1206 6.92781 30.8571C7.02246 30.6595 7.02857 30.6344 6.98582 30.5716C6.96139 30.534 6.94307 30.4932 6.94307 30.4838C6.94307 30.4493 7.0133 30.4712 7.08353 30.5277C7.18124 30.6061 7.29116 30.5779 7.40109 30.4399C7.44994 30.3771 7.51101 30.3018 7.53849 30.2736C7.60567 30.192 7.79804 30.1983 7.81941 30.2799C7.83468 30.3426 7.92017 30.3708 7.92017 30.3112C7.92017 30.2955 7.94155 30.2799 7.96597 30.2799C7.9904 30.2799 8.01178 30.3018 8.01178 30.3269C8.01178 30.352 7.9904 30.374 7.96597 30.374C7.94155 30.374 7.92017 30.3897 7.92017 30.4053C7.92017 30.4242 7.90185 30.4367 7.88353 30.4367C7.77055 30.4367 7.5904 30.8948 7.56292 31.2367C7.54155 31.5285 7.59345 31.7669 7.72781 31.9834C7.83162 32.1559 7.84384 32.1622 7.96597 32.1622C8.13086 32.1622 8.28659 32.1936 8.28659 32.2281C8.28659 32.2406 8.14613 32.2563 7.97513 32.2626C7.74307 32.2689 7.63315 32.2595 7.53239 32.2187V32.2187Z" fill="#7B7A7B"/>
<path d="M8.67131 22.2141C8.63772 22.1921 8.5339 22.1858 8.39039 22.2015C8.18886 22.2203 8.15222 22.2141 8.05451 22.1544C7.81634 22.0007 7.83161 21.6995 8.09115 21.4674C8.22856 21.3419 8.29573 21.3137 8.54611 21.2886C8.71405 21.2697 8.75375 21.276 8.80566 21.3231C8.87894 21.3921 8.88505 21.4329 8.82092 21.4329C8.76596 21.4329 8.76596 21.458 8.82092 21.5584C8.87283 21.6525 8.88199 21.8909 8.83314 21.9223C8.8026 21.9411 8.81482 22.0917 8.85757 22.2046C8.87589 22.258 8.75986 22.2643 8.67131 22.2141V22.2141Z" fill="#7B7A7B"/>
<path d="M10.6225 20.8148C10.3935 20.7834 10.2958 20.7332 10.137 20.5763C10.0454 20.4853 9.92935 20.3818 9.87744 20.341C9.76447 20.2532 9.75531 20.1779 9.85607 20.1779C9.95073 20.1779 10.1156 20.0587 10.2042 19.9269C10.2652 19.8359 10.2683 19.8171 10.2255 19.7951C10.2011 19.7795 10.1797 19.7324 10.1797 19.6916C10.1797 19.563 10.021 19.4155 9.80111 19.334C9.58431 19.2555 9.54767 19.2053 9.59958 19.0642C9.6179 19.0171 9.63317 18.9073 9.63317 18.8163C9.63622 18.7285 9.6637 18.5497 9.69729 18.421C9.80111 18.032 9.80416 18.0038 9.75836 17.8563C9.73088 17.7622 9.72477 17.6493 9.73699 17.5175C9.76141 17.2822 9.72782 16.9591 9.68813 17.0563C9.67592 17.0908 9.6637 17.1975 9.66065 17.2916C9.66065 17.3857 9.64538 17.5206 9.63012 17.5897C9.61179 17.6587 9.59958 17.8751 9.59958 18.0697C9.59653 18.6783 9.52019 18.7253 9.24233 18.305C9.07134 18.0414 9.05607 18.0257 8.9034 17.9849C8.64386 17.9128 8.51561 17.9693 8.28355 18.2516C8.17668 18.3834 8.06981 18.4838 8.03928 18.4838C7.84386 18.4838 7.88661 17.9473 8.13699 17.3104C8.28355 16.9308 8.28966 16.9089 8.2408 16.8524C8.20111 16.8085 8.19195 16.7646 8.20722 16.6893C8.25912 16.4351 8.26218 16.1246 8.21638 15.9959C8.09729 15.6602 8.09424 15.3026 8.20416 14.7504C8.22859 14.6218 8.26523 14.4085 8.28661 14.2799C8.30493 14.1512 8.33241 13.9787 8.34767 13.8971C8.37516 13.7591 8.36905 13.734 8.28966 13.6022C8.16752 13.4077 8.15225 13.2791 8.20722 12.9277C8.25607 12.5983 8.24996 12.5136 8.1492 12.2877C8.0576 12.09 8.03317 11.8202 8.07287 11.5191C8.08813 11.3904 8.11561 11.1646 8.13393 11.0171C8.1492 10.8697 8.18279 10.6595 8.20722 10.5497C8.24691 10.3646 8.24691 10.3238 8.1889 10.032C8.15531 9.85632 8.11561 9.65868 8.10645 9.58966C8.09119 9.48926 8.08203 9.53319 8.06371 9.79358C8.05454 9.97554 8.03012 10.1732 8.0118 10.2359C7.99042 10.3144 7.99042 10.4179 8.0118 10.5653C8.06371 10.9481 8.05149 11.5159 7.98126 11.7387C7.9263 11.9206 7.92019 12.0022 7.93241 12.8493C7.93851 13.3512 7.95989 14.0508 7.97821 14.4053C8.06065 16.0399 8.06981 16.3724 8.04233 16.6014C7.97516 17.1191 7.88355 17.4736 7.63012 18.1544C7.54157 18.3959 7.44997 18.6532 7.43165 18.7285C7.40111 18.8477 7.3889 18.8602 7.33088 18.8414C7.29424 18.832 7.26065 18.8163 7.25455 18.8132C7.25149 18.81 7.26065 18.6783 7.27897 18.5183C7.29729 18.3614 7.30035 18.1763 7.29119 18.1104C7.27897 18.0351 7.28508 17.9818 7.30645 17.9693C7.32477 17.9567 7.34004 17.894 7.34004 17.8312C7.34004 17.7685 7.36142 17.5897 7.3889 17.4328C7.41943 17.2508 7.44081 16.9151 7.44386 16.4916C7.44997 16.0524 7.46523 15.7951 7.49271 15.723C7.52019 15.6446 7.53241 15.3716 7.53852 14.7975C7.55378 12.3379 7.59042 10.9042 7.63622 10.7034C7.68813 10.4775 7.69424 10.3018 7.67897 9.24456C7.67897 9.15985 7.66065 8.96848 7.64233 8.82103C7.60264 8.5324 7.62706 7.10809 7.67592 6.84456C7.77668 6.28927 7.77974 6.25789 7.72477 6.13868C7.68508 6.05711 7.67592 5.98809 7.69119 5.90966C7.71867 5.75279 7.81638 5.42025 7.87439 5.29789C7.89882 5.24142 7.97516 5.02809 8.04233 4.82103C8.11256 4.61397 8.20111 4.37554 8.2408 4.2877C8.32935 4.09005 8.44844 3.68221 8.42706 3.6477C8.39958 3.60064 8.58279 3.08299 8.67439 2.94809C8.8118 2.74103 8.83622 2.69397 8.83622 2.59358C8.83622 2.54338 8.86981 2.43044 8.90951 2.3426C8.95225 2.25789 8.99195 2.14495 9.00416 2.09476C9.01332 2.04456 9.06828 1.95672 9.1263 1.89711C9.20569 1.81554 9.25149 1.79358 9.34004 1.79358C9.50798 1.79358 9.64538 1.95044 9.67286 2.17319C9.68508 2.2673 9.70645 2.35515 9.71866 2.37397C9.73088 2.38966 9.76752 2.49005 9.795 2.59358C9.82553 2.69711 9.89576 2.89476 9.95073 3.03279C10.0729 3.33397 10.2194 3.80142 10.2805 4.09319C10.3202 4.28456 10.3202 4.30338 10.2744 4.30338C10.2408 4.30338 10.1981 4.21554 10.1278 4.00534C9.95989 3.50338 9.91714 3.43123 9.77057 3.39044C9.70034 3.36848 9.60874 3.31201 9.56294 3.25868C9.51408 3.20534 9.47744 3.17083 9.47744 3.18652C9.47744 3.2273 9.63928 3.50025 9.72783 3.60691C9.77363 3.66338 9.81332 3.74495 9.81332 3.78574C9.81332 3.82966 9.85912 3.9175 9.91408 3.98025C9.9721 4.04613 10.0454 4.18417 10.0851 4.2877C10.1217 4.39123 10.2194 4.56691 10.3049 4.67985C10.3874 4.79279 10.4637 4.91828 10.4729 4.96221C10.479 5.00613 10.5065 5.10338 10.5309 5.18181C10.5553 5.26025 10.5767 5.34809 10.5767 5.37946C10.5767 5.4077 10.5889 5.43279 10.6011 5.43279C10.653 5.43279 10.6988 5.26652 10.6835 5.15358C10.6652 5.04691 10.6683 5.04377 10.711 5.10025C10.7385 5.13476 10.7629 5.19123 10.7629 5.22574C10.766 5.26338 10.7721 5.35436 10.7752 5.43279C10.7813 5.51123 10.8118 5.6524 10.8484 5.74652C10.9217 5.94417 10.9309 6.13554 10.8668 6.24848C10.8423 6.2924 10.821 6.41476 10.821 6.53083C10.821 6.64377 10.8057 6.82887 10.7935 6.94809C10.7782 7.06417 10.7721 7.35907 10.7813 7.60064C10.7965 7.99907 10.8057 8.0524 10.8698 8.14025C10.9095 8.19672 10.9645 8.2877 10.9889 8.34417C11.0225 8.41946 11.0561 8.44456 11.1141 8.44456C11.1874 8.44456 11.1904 8.45083 11.169 8.5324C11.1538 8.57946 11.1477 8.70181 11.1507 8.80221C11.1538 8.90574 11.1507 8.98417 11.1446 8.97475C11.0774 8.9026 10.9339 8.59201 10.9095 8.46652C10.8729 8.29083 10.8301 8.21554 10.7843 8.24377C10.7355 8.27515 10.6927 8.4226 10.6927 8.55436C10.6958 8.69554 10.6408 9.09711 10.5492 9.64613C10.5126 9.85319 10.4851 10.1544 10.4851 10.3206C10.4851 10.49 10.4668 10.7253 10.4423 10.8446C10.369 11.2053 10.3232 11.5504 10.3141 11.8171C10.311 11.9551 10.2927 12.3504 10.2744 12.6955C10.2561 13.0406 10.2408 13.3418 10.2408 13.3638C10.2408 13.3826 10.2072 13.4014 10.1645 13.4014C10.1095 13.4014 10.0729 13.37 10.0301 13.2853L9.96905 13.1661L9.96599 13.392C9.96599 13.5144 9.95378 13.6524 9.93546 13.6963C9.89882 13.7967 9.8866 14.8634 9.92019 15.0861C9.93851 15.2116 9.92935 15.2932 9.87744 15.4657C9.8347 15.6132 9.81332 15.77 9.81332 15.9395C9.81332 16.0775 9.80111 16.2595 9.78584 16.341C9.74004 16.5732 9.71866 16.89 9.7492 16.8712C9.76141 16.8618 9.78279 16.774 9.79195 16.6767C9.80721 16.5167 9.82248 16.4853 9.9324 16.385C10.0729 16.2563 10.0515 16.3787 10.1156 15.2524C10.1309 14.9512 10.1461 14.694 10.1461 14.6814C10.1492 14.6657 10.1706 14.6563 10.195 14.6563C10.2286 14.6563 10.2408 14.694 10.2408 14.8132C10.2408 14.9042 10.2561 14.97 10.2744 14.97C10.2958 14.97 10.2988 15.0046 10.2835 15.0736C10.2683 15.1269 10.2561 15.2869 10.2561 15.425C10.253 15.563 10.2286 15.8046 10.1981 15.9614C10.1431 16.2375 10.1431 16.2657 10.195 16.7457C10.253 17.2822 10.2561 17.5959 10.2042 17.6618C10.1675 17.7057 10.1889 18.1324 10.2469 18.5151C10.2652 18.6438 10.2835 18.8853 10.2835 19.0485C10.2866 19.334 10.2897 19.3528 10.3904 19.494C10.4912 19.6383 10.4942 19.6477 10.479 19.8924C10.4637 20.1716 10.4087 20.2908 10.2683 20.3442C10.2194 20.363 10.1797 20.3881 10.1797 20.3975C10.1797 20.41 10.2194 20.4571 10.2683 20.5042C10.3568 20.5889 10.369 20.592 10.5858 20.5795C10.8057 20.5638 10.8118 20.5669 10.7965 20.6328C10.7904 20.6736 10.7996 20.7332 10.8179 20.7708C10.8576 20.843 10.8423 20.8461 10.6225 20.8148V20.8148ZM8.07897 7.9426C8.07897 7.55358 8.07592 7.21162 8.07592 7.18338C8.07287 7.13946 8.0576 7.13319 8.00569 7.15515C7.92019 7.18652 7.89882 7.28377 7.87134 7.71358C7.85302 7.99593 7.85913 8.07436 7.93546 8.41319C8.05454 8.93083 8.08203 8.84299 8.07897 7.9426V7.9426Z" fill="#7B7A7B"/>
<path d="M7.45911 28.0995C7.44995 28.0932 7.3156 28.0807 7.15682 28.0775C6.97972 28.0681 6.86675 28.0524 6.86064 28.0305C6.84843 27.9928 7.22705 27.9991 7.45301 28.0368C7.50797 28.0462 7.63621 28.0336 7.74003 28.0054C7.87133 27.9709 7.9843 27.9615 8.13087 27.9771C8.28354 27.9928 8.36293 27.9834 8.45148 27.9458C8.59499 27.883 8.77514 27.8799 8.77514 27.9364C8.77514 27.9646 8.74156 27.974 8.67133 27.9646C8.61331 27.9583 8.52782 27.974 8.46675 28.0054C8.38736 28.0493 8.32018 28.0556 8.13698 28.0399C7.97514 28.0273 7.85301 28.0368 7.73698 28.0681C7.56293 28.1152 7.48354 28.1246 7.45911 28.0995V28.0995Z" fill="#857765"/>
<path d="M8.44536 24.7363C8.19804 24.7269 8.16139 24.7174 8.17055 24.6704C8.17666 24.6327 8.21636 24.6139 8.31101 24.6076C8.39651 24.6014 8.43926 24.5825 8.43926 24.5543C8.43926 24.4759 8.57055 24.4131 8.73544 24.4131C8.82399 24.4131 8.89727 24.4006 8.89727 24.3818C8.89727 24.3629 8.77208 24.3504 8.58582 24.3504C8.2988 24.3504 8.15223 24.319 8.20109 24.272C8.21025 24.2625 8.34155 24.2406 8.48811 24.2249C8.75987 24.1967 9.16903 24.2249 9.42857 24.2908C9.4988 24.3065 9.66368 24.3316 9.79498 24.3441C10.0606 24.3692 10.1125 24.4069 10.0759 24.548C10.0454 24.6798 9.95376 24.708 9.55376 24.7143C9.35223 24.7174 9.08353 24.7269 8.95834 24.7363C8.83315 24.7425 8.60109 24.7425 8.44536 24.7363Z" fill="#857765"/>
<path d="M0.714053 22.0603C0.735427 22.0163 0.73848 21.9787 0.714053 21.9379C0.671305 21.8563 0.677411 21.621 0.723213 21.5395C0.82703 21.3607 1.3339 21.0124 1.71253 20.8618C2.30795 20.6297 2.51558 20.5732 2.51558 20.6454C2.51558 20.6799 2.43924 20.7112 2.35069 20.7112C2.27436 20.7112 1.79192 20.9152 1.32169 21.1442C0.918633 21.3418 0.814816 21.4736 0.958327 21.6054C1.0194 21.6618 1.10795 21.6618 1.48657 21.6022C1.55985 21.5897 1.59955 21.5959 1.59955 21.6179C1.59955 21.6367 1.57817 21.6524 1.55375 21.6524C1.52932 21.6524 1.50795 21.6681 1.50795 21.6838C1.50795 21.7026 1.45298 21.7779 1.38581 21.8532C1.31863 21.9285 1.26367 22.0038 1.26367 22.0258C1.26367 22.0791 1.18428 22.0665 1.07436 21.9975C0.9339 21.9097 0.878938 21.9191 0.839244 22.0289C0.817869 22.0916 0.787335 22.123 0.744587 22.123C0.689625 22.123 0.686572 22.1136 0.714053 22.0603V22.0603Z" fill="#857765"/>
<path d="M15.5293 21.4736C15.4774 21.4171 15.4377 21.4014 15.3828 21.414C15.3431 21.4234 15.2759 21.4422 15.2332 21.4516C15.1629 21.4704 15.1507 21.4547 15.0835 21.301C15.0042 21.1128 14.7874 20.89 14.6103 20.8147C14.4942 20.7646 14.3782 20.7771 14.14 20.8618L13.9935 20.9151L13.7431 20.7865C13.6057 20.7144 13.4561 20.6422 13.4103 20.6202C13.3614 20.6014 13.3248 20.57 13.3248 20.5512C13.3248 20.5261 13.4652 20.5198 13.853 20.5324C14.5919 20.5544 14.7843 20.6234 15.0866 20.9622C15.1538 21.0406 15.2148 21.1316 15.221 21.1661C15.2301 21.21 15.2668 21.232 15.3461 21.2477C15.4897 21.2696 15.6026 21.3481 15.6606 21.4642C15.7034 21.552 15.7034 21.5583 15.6545 21.5551C15.624 21.552 15.569 21.5175 15.5293 21.4736V21.4736Z" fill="#857765"/>
<path d="M7.03468 30.5466C6.97666 30.5027 6.92781 30.4525 6.93086 30.4368C6.93391 30.418 6.93697 30.3709 6.94002 30.327C6.94002 30.283 6.9675 30.2391 6.99804 30.2266C7.02552 30.2172 7.10491 30.167 7.17208 30.1199L7.29422 30.0289L7.57514 30.0634C7.76445 30.0854 7.95071 30.0854 8.15224 30.0634C8.40567 30.0352 8.46369 30.0383 8.5217 30.0791C8.6072 30.1356 8.61025 30.1983 8.53392 30.2768C8.48506 30.327 8.44842 30.3332 8.29269 30.3144C8.17666 30.3019 8.11254 30.3019 8.12476 30.3207C8.13392 30.3395 8.10338 30.3458 8.04842 30.3364C7.9904 30.327 7.95682 30.3364 7.95987 30.3552C7.96292 30.374 7.94155 30.3866 7.91407 30.3866C7.88353 30.3834 7.86521 30.396 7.86827 30.418C7.87132 30.4368 7.853 30.4525 7.82857 30.4525C7.80109 30.4525 7.78582 30.4211 7.78277 30.3583C7.78277 30.2799 7.77056 30.2611 7.70033 30.2548C7.64842 30.2485 7.59956 30.2674 7.57208 30.3019C7.28506 30.6438 7.20872 30.6783 7.03468 30.5466V30.5466Z" fill="#77695C"/>
<path d="M7.06521 29.2948C7.06521 29.2697 7.04383 29.2289 7.0194 29.2038C6.96444 29.1474 6.9217 28.8995 6.9675 28.8995C6.98276 28.8995 7.00414 28.8713 7.0133 28.8336C7.02857 28.774 7.04689 28.7709 7.25452 28.7834C7.37666 28.7897 7.53238 28.8117 7.59956 28.8305C7.75528 28.8775 8.3904 28.8775 8.53085 28.8336C8.86673 28.7301 9.35528 28.8713 9.35528 29.0752C9.35528 29.1975 9.22093 29.276 9.00719 29.276C8.90337 29.276 8.77208 29.2603 8.71406 29.2415C8.65604 29.2226 8.43009 29.2038 8.21024 29.1944C7.99345 29.1881 7.7675 29.1724 7.71253 29.163C7.6423 29.1474 7.5965 29.1568 7.55986 29.1913C7.52933 29.2195 7.41635 29.2634 7.30948 29.2885C7.06521 29.3481 7.06521 29.3481 7.06521 29.2948Z" fill="#77695C"/>
<path d="M7.42856 28.0682C7.4194 28.0619 7.29115 28.0525 7.14153 28.0462C6.8026 28.0336 6.78123 27.996 7.00413 27.8046C7.17512 27.6572 7.35222 27.5944 7.4713 27.6415C7.61482 27.698 9.08963 27.5442 9.17818 27.4658C9.24535 27.4062 9.41634 27.4344 9.48963 27.516C9.51711 27.5474 9.54764 27.6227 9.55986 27.6854C9.57512 27.7858 9.56596 27.8015 9.45909 27.8736C9.36138 27.9395 9.28505 27.9552 9.04382 27.974C8.83314 27.9897 8.74459 27.9866 8.74459 27.9615C8.74459 27.9113 8.61634 27.9207 8.48199 27.9772C8.39344 28.0148 8.311 28.0242 8.14917 28.0117C8.00566 27.9991 7.87741 28.0054 7.76749 28.0368C7.59955 28.0838 7.45298 28.0964 7.42856 28.0682V28.0682Z" fill="#77695C"/>
<path d="M6.82395 26.7097C6.7354 26.6814 6.72014 26.6532 6.65296 26.4053C6.61632 26.2673 6.61021 26.1857 6.62853 26.1073L6.65602 25.9975L6.99189 25.9944C7.41937 25.9912 7.73388 25.9316 8.16441 25.7779C8.61937 25.6179 8.79342 25.6116 9.2209 25.7371C9.33693 25.7685 9.36441 25.7653 9.51098 25.6932C9.81327 25.5457 9.94762 25.505 10.0423 25.5426L10.1278 25.5771L10.1064 25.803C10.0942 25.9253 10.0575 26.0853 10.024 26.1575C9.97205 26.2704 9.94762 26.2893 9.84075 26.305C9.66365 26.3301 9.51403 26.2736 9.398 26.145C9.3064 26.0414 9.29113 26.0352 9.25754 26.0822C9.23617 26.1136 9.15678 26.1606 9.08044 26.192C8.96136 26.2422 8.86365 26.2485 8.30182 26.2422L7.6606 26.2359L7.4438 26.4744C7.23006 26.7097 7.2209 26.7128 7.06212 26.7222C6.97052 26.7285 6.86365 26.7222 6.82395 26.7097V26.7097Z" fill="#77695C"/>
<path d="M7.28196 24.7427C7.23311 24.6988 7.08044 24.6235 6.94303 24.5733C6.80868 24.5262 6.68044 24.4697 6.66212 24.4509C6.64074 24.4289 6.57968 24.4133 6.52471 24.4133C6.43311 24.4133 6.42395 24.4038 6.42395 24.316V24.2188L6.64685 24.2344C6.76593 24.2438 6.96135 24.2721 7.08044 24.3003C7.35219 24.3631 7.85296 24.3662 8.05448 24.3035C8.13387 24.2784 8.21631 24.2689 8.23769 24.2815C8.25601 24.294 8.43921 24.3097 8.64379 24.3191C8.99188 24.3348 9.08654 24.3537 9.04074 24.4007C9.03158 24.4101 8.92776 24.4258 8.81479 24.4352C8.59799 24.4509 8.46975 24.5074 8.46975 24.5858C8.46975 24.6203 8.43616 24.6329 8.34761 24.6329C8.26517 24.6329 8.21631 24.6486 8.20715 24.6799C8.19494 24.7113 8.14303 24.727 8.04532 24.727C7.96899 24.727 7.82853 24.7489 7.73692 24.774C7.49265 24.8399 7.38883 24.8337 7.28196 24.7427Z" fill="#77695C"/>
<path d="M9.88962 23.6258C9.84077 23.6069 9.73695 23.5881 9.66062 23.5818C9.31253 23.5505 8.86672 23.4971 8.72932 23.4658C8.63161 23.4469 8.42703 23.4407 8.19497 23.4563C7.63619 23.4877 7.28199 23.4783 7.09268 23.4218C7.00107 23.3967 6.78428 23.3403 6.60718 23.2995C6.43314 23.2587 6.28352 23.2085 6.27741 23.1928C6.2713 23.174 6.2194 23.0987 6.16138 23.0265C6.01787 22.8509 6.00566 22.8258 5.98123 22.6061C5.97207 22.5026 5.95069 22.4022 5.94153 22.3834C5.90184 22.3207 5.78581 22.2799 5.69726 22.2987C5.6484 22.3081 5.57512 22.2987 5.53543 22.2767C5.48962 22.2516 5.30031 22.2328 5.02245 22.2265C4.78123 22.2203 4.57359 22.2077 4.55833 22.1983C4.51558 22.1732 3.84993 22.2516 3.75222 22.2956C3.70337 22.3207 3.62703 22.3489 3.58428 22.3583C3.54153 22.3709 3.46825 22.4116 3.41634 22.4524C3.30337 22.5371 3.17207 22.581 2.90031 22.625C2.68963 22.6595 2.49421 22.7379 2.30184 22.8634C2.24382 22.9042 2.07894 22.9795 1.93543 23.0328C1.70947 23.1175 1.65146 23.1269 1.49268 23.1112C1.2423 23.083 0.976649 23.0077 0.961382 22.9607C0.955275 22.9418 0.903366 22.8791 0.845351 22.8226C0.714053 22.694 0.652985 22.5434 0.652985 22.3458C0.652985 22.1607 0.674359 22.0916 0.735427 22.0916C0.759855 22.0916 0.793443 22.0509 0.80871 22.0007C0.854511 21.872 0.91558 21.8595 1.07131 21.9505C1.23008 22.0414 1.23314 22.0414 1.23314 21.9944C1.23314 21.9724 1.28505 21.8971 1.35222 21.825C1.41634 21.7528 1.47436 21.6807 1.48047 21.665C1.48657 21.6493 1.52932 21.6148 1.57207 21.5897C1.61787 21.5646 1.72779 21.4861 1.81634 21.414C2.07283 21.2163 2.32321 21.072 2.62245 20.9497C2.96749 20.8085 3.60566 20.6485 3.81329 20.6485C3.90184 20.6485 4.01787 20.6328 4.07283 20.614C4.14917 20.5858 4.19802 20.5858 4.27741 20.614C4.36291 20.6454 4.39344 20.6454 4.47894 20.6014C4.60718 20.5356 4.90642 20.4634 5.2423 20.4258C5.4713 20.3975 5.52016 20.3975 5.58428 20.4414C5.78275 20.5763 5.98733 20.3912 5.87436 20.1779C5.81634 20.0681 5.86825 20.021 6.0423 20.021C6.23466 20.021 6.24993 20.0461 6.22245 20.2909L6.20108 20.4603L6.35375 20.6171C6.52169 20.7897 6.61329 20.8116 6.79955 20.7301C6.93085 20.6736 7.31253 20.3787 7.2881 20.3536C7.27588 20.3442 7.31558 20.3348 7.37359 20.3348C7.46825 20.3348 7.49268 20.3159 7.58428 20.1716C7.70642 19.9803 7.76443 19.9614 7.97207 20.0336C8.11253 20.0838 8.11253 20.0838 8.27741 19.9865L8.44535 19.8893L8.67741 19.9363C8.80871 19.9614 8.98275 19.9771 9.0713 19.9677C9.19649 19.9552 9.26062 19.9677 9.40107 20.0336C9.49878 20.0775 9.61787 20.1152 9.67283 20.1152C9.78275 20.1152 9.85909 20.1559 9.83161 20.203C9.82245 20.2218 9.85604 20.2689 9.90794 20.3097C9.96291 20.3505 10.0606 20.4383 10.1308 20.5105C10.3079 20.6924 10.3843 20.7363 10.5919 20.7709C10.6927 20.7865 10.8118 20.8085 10.8606 20.821C10.9431 20.843 10.9431 20.843 10.9431 20.6893C10.9431 20.6014 10.9675 20.4916 10.998 20.4289C11.0316 20.3693 11.0652 20.2626 11.0744 20.1967C11.1049 19.9991 11.2179 19.9677 11.4072 20.0995C11.5049 20.1654 11.5537 20.1779 11.7583 20.1779C11.9965 20.1779 11.9995 20.1779 12.0331 20.272C12.0698 20.3724 12.1705 20.4289 12.3263 20.4289C12.3812 20.432 12.4576 20.4509 12.5003 20.4759C12.5583 20.5073 12.656 20.5136 12.9095 20.501C13.2759 20.4791 13.2057 20.4603 13.7461 20.7426L13.9995 20.8744L14.1278 20.8242C14.3324 20.7458 14.5186 20.7301 14.6377 20.7834C14.8118 20.8587 15.0316 21.0814 15.111 21.2603L15.1812 21.4265L15.3156 21.3952C15.4286 21.3669 15.4652 21.3732 15.569 21.4297C15.6362 21.4642 15.6698 21.4956 15.6453 21.4956C15.6209 21.4956 15.6392 21.5175 15.6881 21.5426C15.8286 21.6179 15.8988 21.5928 15.9476 21.4454C15.9995 21.2885 15.9782 21.185 15.8591 21.0469C15.7644 20.9371 15.6301 20.6485 15.6728 20.6485C15.685 20.6485 15.7553 20.7018 15.8286 20.7646C15.9018 20.8305 15.969 20.8775 15.9812 20.8712C15.9904 20.8618 16.0484 20.9309 16.1125 21.025C16.2041 21.1599 16.2255 21.2195 16.2255 21.3387C16.2255 21.4297 16.256 21.5552 16.2988 21.6556C16.3385 21.7497 16.3812 21.9065 16.3934 22.0038C16.4118 22.1701 16.4057 22.1983 16.3018 22.3897C16.1766 22.6187 16.082 22.6877 15.8957 22.6877C15.8255 22.6877 15.7461 22.7128 15.7034 22.7473C15.5446 22.8728 15.3644 22.945 15.2545 22.9261C15.0988 22.901 14.8179 22.7536 14.7415 22.6626C14.6866 22.5936 14.6316 22.5748 14.3904 22.5403C14.2316 22.5152 14.0362 22.4838 13.9507 22.4712C13.8652 22.4587 13.6087 22.352 13.3766 22.2359L12.9583 22.0258L12.6591 22.1481C12.4973 22.2171 12.2316 22.3175 12.0728 22.374C11.9141 22.4273 11.6881 22.5246 11.569 22.5905C11.453 22.6532 11.2973 22.7254 11.227 22.7473C11.1415 22.7787 11.0347 22.8603 10.8789 23.0203C10.7537 23.1489 10.6438 23.2524 10.6316 23.2524C10.6163 23.2524 10.6072 23.2116 10.6072 23.1646C10.6072 23.0548 10.5064 22.9387 10.4118 22.9387C10.2377 22.9387 10.1186 23.1426 10.1186 23.4469C10.1186 23.5599 10.1064 23.6038 10.0606 23.6289C10.027 23.6446 9.99649 23.6603 9.99039 23.6571C9.98428 23.6571 9.94153 23.6414 9.88962 23.6258V23.6258ZM9.14153 22.0759C9.25146 22.0195 9.40107 21.9567 9.4713 21.9379C9.54459 21.9159 9.59955 21.8814 9.59955 21.8563C9.59955 21.7936 9.45604 21.6901 9.32169 21.6524C9.11711 21.5959 8.94306 21.505 8.82398 21.4014C8.71711 21.3042 8.70489 21.301 8.54001 21.323C8.311 21.3512 8.24993 21.3763 8.10947 21.5112C7.87741 21.7246 7.86214 21.963 8.06672 22.1073C8.17054 22.1795 8.19802 22.1858 8.41176 22.1669C8.56138 22.1544 8.6652 22.1575 8.70184 22.1826C8.78123 22.2297 8.90947 22.1983 9.14153 22.0759V22.0759Z" fill="#77695C"/>
<path d="M8.19496 32.2249C8.15222 32.2124 8.0484 32.1998 7.9629 32.1967C7.81023 32.1935 7.80718 32.1904 7.70641 32.0304C7.52321 31.7418 7.47435 31.3402 7.56901 30.9543C7.68504 30.4932 7.85298 30.3206 8.21023 30.2924C8.46977 30.2735 8.53695 30.3049 8.46977 30.4116C8.33848 30.6218 8.28962 30.7724 8.28657 30.9543C8.28657 31.1928 8.32932 31.3559 8.44535 31.541C8.54611 31.7041 8.65298 31.9865 8.65298 32.0869C8.65298 32.1214 8.62855 32.1747 8.60107 32.1998C8.54306 32.2531 8.32321 32.2657 8.19496 32.2249Z" fill="#676767"/>
<path d="M7.16903 20.2878C6.97972 20.134 6.95529 19.8674 7.11101 19.6572C7.16903 19.5788 7.18735 19.5254 7.17514 19.469C7.16292 19.4282 7.17208 19.3623 7.1904 19.3246C7.20872 19.2901 7.25147 19.174 7.28201 19.0674C7.37056 18.7631 7.42857 18.5905 7.59956 18.1231C7.89269 17.3293 8.01178 16.8211 8.02094 16.338C8.0301 15.9866 7.95376 14.1576 7.92323 13.8878C7.90796 13.7686 7.89575 13.2729 7.89269 12.7897C7.88964 11.974 7.89269 11.8956 7.95376 11.6948C8.01483 11.494 8.01788 11.4376 7.99651 10.989C7.96598 10.2925 7.96598 10.2705 8.00872 10.029C8.06979 9.67758 8.02704 8.95915 7.91712 8.4917C7.86521 8.27836 7.82552 8.02738 7.82552 7.9113C7.82246 7.68542 7.88353 7.1866 7.91407 7.15209C7.92628 7.13954 7.97208 7.12385 8.01483 7.1113C8.08506 7.09248 8.09727 7.10189 8.10949 7.18032C8.13392 7.3466 8.11254 8.58581 8.07895 8.90581C8.05453 9.13483 8.05453 9.25405 8.0759 9.31366C8.09422 9.36385 8.11865 9.46424 8.13392 9.54268C8.14613 9.62111 8.18582 9.83444 8.22246 10.0164C8.28353 10.3364 8.28659 10.3584 8.23773 10.5811C8.21025 10.7097 8.17666 10.9199 8.16445 11.0486C8.14918 11.1772 8.12476 11.3999 8.10643 11.5442C8.06674 11.8454 8.10033 12.1278 8.18888 12.2846C8.27743 12.4384 8.29269 12.6172 8.24079 12.9466C8.18582 13.2854 8.20414 13.4046 8.33544 13.6023C8.41178 13.7152 8.41483 13.7309 8.3843 13.9003C8.36598 13.9976 8.33544 14.1827 8.31712 14.3113C8.29575 14.4399 8.25911 14.6533 8.23468 14.7819C8.12781 15.3058 8.13086 15.6478 8.24384 15.9521C8.29575 16.0933 8.2988 16.4697 8.24995 16.636C8.22247 16.7395 8.22247 16.7678 8.26521 16.8148C8.29575 16.8462 8.31712 16.8933 8.31712 16.9184C8.31712 16.9435 8.24689 17.138 8.1614 17.3544C7.98735 17.7968 7.90796 18.2235 7.97514 18.3709C7.99346 18.4148 8.02399 18.4525 8.03621 18.4525C8.05147 18.4525 8.14918 18.349 8.253 18.2203C8.46369 17.9631 8.60414 17.894 8.83315 17.9317C9.053 17.9662 9.10185 18.0039 9.27895 18.2768C9.37361 18.4242 9.46521 18.5466 9.48048 18.5466C9.5385 18.5466 9.56598 18.3866 9.56292 18.098C9.56292 17.9348 9.57514 17.6901 9.59346 17.5552C9.61178 17.4172 9.64231 17.1819 9.66369 17.025C9.68201 16.8713 9.70949 16.6454 9.72781 16.5231C9.74308 16.4039 9.76445 16.1403 9.77972 15.9427C9.79193 15.745 9.82857 15.4878 9.85911 15.3717C9.91102 15.1897 9.91407 15.1427 9.88048 15.0109C9.83468 14.8352 9.85605 13.7999 9.90796 13.665C9.92323 13.6211 9.93544 13.4862 9.93544 13.367C9.93544 13.1191 9.9843 13.0784 10.0667 13.2603C10.1003 13.3325 10.14 13.3701 10.1797 13.3701C10.2377 13.3701 10.2408 13.389 10.2408 14.0258C10.2408 14.4776 10.2316 14.6846 10.2072 14.694C10.1858 14.7003 10.1614 14.9105 10.1431 15.2682C10.0851 16.4007 10.1034 16.2878 9.96292 16.4133C9.85911 16.5105 9.84079 16.5482 9.82552 16.6956C9.8133 16.7897 9.78888 16.8839 9.76445 16.9027C9.73392 16.9278 9.73392 16.9654 9.75834 17.0752C9.77361 17.1505 9.77972 17.3231 9.77056 17.4548C9.75834 17.6211 9.7675 17.7435 9.79804 17.8501C9.83773 17.985 9.83773 18.0227 9.79498 18.189C9.7675 18.2893 9.73392 18.4242 9.71865 18.4839C9.70033 18.5435 9.68201 18.6878 9.67285 18.8039C9.66674 18.9199 9.64842 19.0486 9.63315 19.0862C9.59346 19.1991 9.61789 19.2274 9.83163 19.3027C10.0515 19.3842 10.2103 19.5317 10.2103 19.6603C10.2103 19.7011 10.2347 19.7482 10.2622 19.7639C10.3049 19.7921 10.308 19.8078 10.2713 19.8925C10.2255 20.0086 10.0545 20.1686 9.94766 20.1968C9.90491 20.2093 9.83468 20.1999 9.79498 20.1811C9.75224 20.1623 9.67895 20.1466 9.63315 20.1466C9.5843 20.1466 9.46827 20.109 9.37056 20.065C9.2301 19.996 9.16903 19.9866 9.04995 20.0023C8.96445 20.0148 8.81789 20.0023 8.68353 19.974L8.46369 19.927L8.29575 20.0242L8.12781 20.1246L7.94766 20.0682C7.74002 20.0023 7.71865 20.0117 7.59346 20.2313C7.52323 20.3568 7.50796 20.3662 7.39193 20.3662C7.30338 20.3662 7.23315 20.3411 7.16903 20.2878V20.2878Z" fill="#676767"/>
<path d="M10.5858 5.47362C10.5645 5.46421 10.5461 5.43597 10.5461 5.40774C10.5461 5.3795 10.5248 5.29166 10.5003 5.21323C10.4759 5.1348 10.4484 5.03754 10.4423 4.99362C10.4332 4.9497 10.3568 4.82421 10.2744 4.71127C10.1889 4.59833 10.0912 4.42264 10.0545 4.31911C10.0148 4.21558 9.94155 4.07754 9.88354 4.01166C9.82858 3.94891 9.78278 3.86107 9.78278 3.81715C9.78278 3.77637 9.74308 3.6948 9.69728 3.63833C9.56293 3.47833 9.4469 3.24931 9.4469 3.15205L9.44995 3.06421L9.56293 3.19284C9.63621 3.27754 9.72171 3.33401 9.8011 3.35911C9.94766 3.3999 9.99041 3.47205 10.1583 3.97401C10.2103 4.13715 10.2713 4.27205 10.2896 4.27205C10.308 4.27205 10.3599 4.36931 10.4057 4.49166C10.4515 4.61088 10.5217 4.75833 10.5614 4.81793C10.6652 4.9748 10.7416 5.21637 10.7202 5.30735C10.6957 5.41401 10.6316 5.49244 10.5858 5.47362V5.47362Z" fill="#676767"/>
</g>
<defs>
<clipPath id="clip0_156_19">
<rect width="16" height="32" fill="white" transform="translate(0.500305 0.381836)"/>
</clipPath>
</defs>
</svg>
