<svg width="24" height="25" viewBox="0 0 24 25" fill="none" xmlns="http://www.w3.org/2000/svg">
<path d="M12.0005 4.41566C10.6315 0.578245 6.37248 -0.705387 3.29517 1.36532C-5.27494 7.13209 4.93595 19.2837 10.5965 23.4572C11.4403 24.0793 12.5606 24.0793 13.4044 23.4572C19.065 19.2837 29.2759 7.1321 20.7058 1.36533C17.6285 -0.705379 13.3694 0.578245 12.0005 4.41566Z" fill="#E23E2C"/>
<g style="mix-blend-mode:hard-light">
<path fill-rule="evenodd" clip-rule="evenodd" d="M12.1595 23.5089C7.09713 20.5695 2.0471 14.4113 3.12299 7.4253C3.70379 3.65398 10.2551 0.0880156 11.9229 4.76318C12.0003 4.76318 12.1408 4.76318 12.0863 4.18794C12.0565 4.26281 12.0279 4.33872 12.0005 4.41566C10.6315 0.578245 6.37248 -0.705387 3.29517 1.36532C-5.27493 7.13209 4.93595 19.2837 10.5965 23.4572C11.4403 24.0793 12.5606 24.0793 13.4044 23.4572C13.4163 23.4484 13.4283 23.4396 13.4402 23.4308C13.2272 23.5069 12.8197 23.5926 12.1595 23.5089Z" fill="black" fill-opacity="0.2"/>
</g>
<g style="mix-blend-mode:soft-light">
<path fill-rule="evenodd" clip-rule="evenodd" d="M22.0712 13.6112C23.4292 9.54785 23.7071 5.35979 21.7177 3.48967C18.7624 0.711647 15.8229 0.39236 12.8827 2.74613C14.7265 0.248994 18.1301 -0.367699 20.7057 1.36544C25.1923 4.38443 24.5316 9.15327 22.0712 13.6112Z" fill="white"/>
</g>
<g style="mix-blend-mode:soft-light">
<path d="M20.3917 3.54306C20.9458 4.00068 21.3379 5.09595 21.0067 5.09595C20.4957 5.09596 20.2984 4.64833 19.8712 4.31953C19.3777 3.93966 18.6106 4.25488 18.4992 3.57521C18.6884 2.87753 19.8001 3.05456 20.3917 3.54306Z" fill="white"/>
</g>
<g style="mix-blend-mode:soft-light">
<path d="M21.4984 6.19416C21.2944 6.29613 20.8456 5.67781 21.0865 5.51687C21.2189 5.4284 21.3535 5.43806 21.4755 5.54479C21.6487 5.69628 21.7363 6.0752 21.4984 6.19416Z" fill="white"/>
</g>
</svg>
