<svg width="25" height="17" viewBox="0 0 25 17" fill="none" xmlns="http://www.w3.org/2000/svg">
<g clip-path="url(#clip0_156_102)">
<path d="M12.7198 16.7582C12.6469 16.7429 12.5306 16.7122 12.4631 16.6877C12.2414 16.6049 11.8847 16.5436 11.6252 16.5436C11.4063 16.5436 11.3306 16.5283 11.0982 16.4394C10.909 16.3689 10.7523 16.3321 10.5712 16.3168C10.4306 16.3046 10.2306 16.2739 10.1252 16.2463C10.0225 16.2218 9.88198 16.1881 9.81442 16.1728C9.74685 16.1544 9.51171 16.1084 9.28739 16.0685C8.7009 15.9613 8.72253 15.9705 8.71171 15.8019C8.70361 15.6823 8.71442 15.6456 8.78469 15.5567C8.87388 15.4402 9.14144 15.3298 9.26847 15.3574C9.30901 15.3666 9.45226 15.4034 9.58469 15.4371C9.71982 15.4708 9.88198 15.5015 9.94955 15.5015C10.0171 15.5015 10.1117 15.5138 10.1577 15.5291C10.2279 15.5536 10.2523 15.5475 10.2712 15.5076C10.2928 15.4647 10.3198 15.4616 10.5604 15.4984C10.709 15.5229 10.9009 15.5475 10.9901 15.5536C11.0793 15.5628 11.1658 15.5812 11.182 15.5965C11.1982 15.6118 11.2874 15.6149 11.3766 15.6057C11.4793 15.5934 11.5577 15.5965 11.5766 15.618C11.6009 15.6364 11.7144 15.6394 11.9225 15.6241C12.2847 15.5934 12.7441 15.5873 12.7658 15.6088C12.7739 15.618 12.8739 15.6333 12.9874 15.6394C13.1009 15.6456 13.2063 15.6609 13.2198 15.6701C13.2333 15.6793 13.3658 15.6915 13.5117 15.6946C13.7198 15.7007 13.7874 15.713 13.8225 15.7528C13.8928 15.8295 13.8793 15.9797 13.7901 16.1237C13.7469 16.1942 13.6955 16.3138 13.6793 16.3873C13.636 16.5743 13.5577 16.6509 13.3874 16.6785C13.3117 16.6877 13.2306 16.7184 13.209 16.7429C13.1658 16.7919 12.9604 16.798 12.7198 16.7582V16.7582Z" fill="#264759"/>
<path d="M2.0847 15.2042C1.9874 15.1858 1.86578 15.1306 1.7874 15.0693C1.74956 15.0418 1.63605 14.9866 1.53064 14.9467C1.07118 14.7751 0.814426 14.4257 0.733345 13.8709C0.695507 13.6042 0.700912 13.2609 0.746858 12.9881C0.80902 12.6264 0.833345 12.4701 0.86848 12.2218C0.949561 11.6333 1.04956 11.1736 1.20361 10.6647C1.24145 10.5391 1.27389 10.4195 1.27389 10.395C1.27389 10.254 1.47118 9.72681 1.59821 9.52758C1.64686 9.45402 1.69821 9.34674 1.71172 9.29156C1.76578 9.06168 2.17118 8.56819 2.4874 8.34137C2.57929 8.27394 2.76848 8.13907 2.90632 8.03792C3.04686 7.93678 3.23064 7.80497 3.31713 7.74061C3.40632 7.6793 3.66037 7.48927 3.88199 7.31762C4.34686 6.96206 4.62524 6.78122 4.76037 6.75057C4.81172 6.73831 5.01983 6.62796 5.21983 6.50536C5.89551 6.09156 5.95767 6.06091 6.10902 6.06091C6.31713 6.06091 6.35497 6.09463 6.35497 6.27854C6.35497 6.38582 6.33064 6.4839 6.27389 6.61264C6.20091 6.77509 6.16848 6.81187 5.91713 6.99884C5.29551 7.46168 4.67659 7.86015 4.31713 8.02566C4.20091 8.08084 4.14145 8.12681 4.09551 8.20957C4.05497 8.28314 3.95497 8.37815 3.80361 8.4793C3.51443 8.67854 3.45497 8.75517 3.49551 8.88697C3.54145 9.03103 3.65226 9.06781 3.97118 9.04635C4.12794 9.03409 4.32794 9.04022 4.45226 9.06168C4.6928 9.09846 5.11443 9.13831 6.00362 9.20268C6.33875 9.2272 6.6901 9.26091 6.7874 9.27624C6.8847 9.29156 7.13875 9.32222 7.35497 9.34061C7.57118 9.359 7.89821 9.39578 8.0847 9.4203C8.26848 9.44482 8.59821 9.47854 8.81443 9.49386C9.03064 9.50612 9.35767 9.53984 9.54416 9.56743C9.73064 9.59195 10.0523 9.63486 10.2604 9.66245C10.4685 9.68697 10.9009 9.74214 11.2198 9.78505C11.5388 9.82796 11.8982 9.86168 12.0171 9.86168C12.136 9.86168 12.3117 9.877 12.4063 9.89233C12.536 9.91379 12.6279 9.90766 12.7658 9.87394C12.8685 9.85248 13.055 9.83103 13.182 9.83103C13.409 9.83103 13.409 9.83103 13.409 9.91072C13.409 9.98122 13.4739 10.0977 13.6252 10.3C13.6496 10.3337 14.1469 10.1498 14.3306 10.0395C14.4252 9.98428 14.5144 9.95363 14.5604 9.95976C14.6279 9.96896 14.6388 9.98428 14.6469 10.0793C14.655 10.1835 14.6469 10.1988 14.5171 10.2877C14.4442 10.3398 14.3604 10.4103 14.336 10.4441C14.309 10.4778 14.2685 10.5054 14.2415 10.5054C14.2171 10.5054 14.1874 10.5207 14.1793 10.536C14.1712 10.5544 14.1279 10.5667 14.0847 10.5667C14.0415 10.5667 13.9847 10.5912 13.9577 10.6218C13.9306 10.6525 13.855 10.7077 13.7874 10.7444C13.6793 10.8027 13.609 10.8119 13.1388 10.8272C12.8496 10.8333 12.4982 10.8487 12.3604 10.8609C12.1928 10.8701 12.0955 10.867 12.0712 10.8425C12.0496 10.8241 11.8009 10.7965 11.4442 10.7782C11.1198 10.7628 10.7415 10.7291 10.6036 10.7046C10.309 10.6494 10.2279 10.6464 10.2144 10.6893C10.2036 10.7322 9.51713 10.769 9.51713 10.726C9.51713 10.7046 9.46578 10.6985 9.36578 10.7107C9.25226 10.726 9.20902 10.7199 9.1901 10.6862C9.17389 10.6525 9.11172 10.6464 8.94416 10.6494C8.81983 10.6555 8.52524 10.6372 8.2874 10.6126C8.04956 10.5881 7.64956 10.5544 7.39551 10.536C7.14416 10.5176 6.91172 10.49 6.88199 10.4747C6.81713 10.4441 6.65497 10.4195 5.76307 10.3214C5.5874 10.3 5.44145 10.2693 5.41983 10.2479C5.37118 10.1896 5.0928 10.1621 4.82794 10.1866C4.69821 10.1988 4.59821 10.1958 4.59821 10.1805C4.59821 10.1651 4.44145 10.1529 4.25226 10.1529C4.04686 10.1529 3.87659 10.1375 3.83875 10.1192C3.57118 9.97202 2.93875 9.93831 2.83064 10.064C2.80902 10.0885 2.77118 10.1069 2.74956 10.1069C2.72524 10.1069 2.70632 10.1253 2.70632 10.1498C2.70632 10.1713 2.65767 10.2418 2.59821 10.3031C2.53875 10.3644 2.4901 10.4257 2.4901 10.441C2.4901 10.4594 2.46848 10.49 2.44416 10.5115C2.3928 10.5544 2.27389 10.7352 2.27389 10.769C2.27389 10.7812 2.23334 10.8885 2.1847 11.008C1.9874 11.4831 1.96307 11.572 1.90632 12.0992C1.87389 12.3935 1.86578 12.6264 1.87929 12.9115C1.89551 13.313 1.99821 13.9965 2.05497 14.0732C2.07389 14.0977 2.11983 14.1222 2.16037 14.1314C2.20091 14.1406 2.31172 14.1621 2.40902 14.1835C2.50632 14.2019 2.64956 14.251 2.72794 14.2939C2.80632 14.3368 2.96578 14.3919 3.07929 14.4165C3.34145 14.4716 3.40902 14.5421 3.40902 14.7659C3.40902 14.8609 3.3928 14.9314 3.36578 14.9621C3.31172 15.0234 3.09821 15.0264 2.77389 14.9651C2.49821 14.9161 2.47929 14.9253 2.44686 15.1245C2.43064 15.2257 2.42794 15.2257 2.2901 15.2226C2.21443 15.2195 2.12253 15.2103 2.0847 15.2042V15.2042Z" fill="#264759"/>
<path d="M14.1793 16.9114C14.1145 16.8685 14.0442 16.8532 13.8496 16.8532C13.4766 16.8501 13.0631 16.7888 13.0469 16.7367C13.0388 16.7122 13.0415 16.6999 13.0523 16.7091C13.0658 16.7183 13.0955 16.6969 13.1199 16.6662C13.1469 16.6294 13.2172 16.5988 13.3063 16.5865C13.4766 16.5589 13.555 16.4823 13.5982 16.2953C13.6145 16.2218 13.6658 16.1022 13.7091 16.0287C13.782 15.9153 13.7874 15.8938 13.7496 15.854C13.728 15.8294 13.6982 15.808 13.682 15.808C13.6658 15.808 13.6523 15.7804 13.6523 15.7467C13.6523 15.6701 13.7685 15.6639 13.9928 15.7314C14.1145 15.7651 14.1847 15.7712 14.3118 15.7467C14.5901 15.6946 14.8928 15.7099 15.028 15.7773C15.1712 15.854 15.1307 15.8632 15.8955 15.5229C16.5307 15.2409 16.7199 15.198 16.7982 15.3206C16.8226 15.3605 16.8415 15.4248 16.8415 15.4616C16.8415 15.5107 16.8577 15.5321 16.8955 15.5321C17.0118 15.5321 16.9388 15.6271 16.7009 15.7804C16.5631 15.8693 16.4199 15.9643 16.382 15.995C16.1712 16.1574 15.5577 16.5099 15.4226 16.5436C15.3469 16.562 15.2118 16.6325 15.1199 16.703C14.8199 16.9206 14.3415 17.0279 14.1793 16.9114V16.9114Z" fill="#305370"/>
<path d="M11.7036 16.7459C11.6982 16.7367 11.455 16.7153 11.1658 16.6969C10.8766 16.6785 10.4685 16.6417 10.2604 16.6172C10.0523 16.5927 9.73065 16.5589 9.54417 16.5436C9.20903 16.513 9.05498 16.4976 8.35498 16.4087C7.60903 16.3168 7.00093 16.1973 6.82525 16.1114C6.76309 16.0838 6.64147 16.0501 6.55498 16.0379C6.46579 16.0287 6.31714 16.0072 6.21984 15.9888C6.12255 15.9735 5.91174 15.949 5.74687 15.9306C4.8766 15.8417 3.69552 15.6026 2.69822 15.3145C2.35768 15.2164 2.35498 15.2164 2.35498 15.1275C2.35498 15.0785 2.3739 14.9927 2.39282 14.9344C2.44147 14.8087 2.4766 14.8026 2.85498 14.8731C3.16309 14.9314 3.23336 14.9314 3.28471 14.87C3.34417 14.8026 3.33876 14.7229 3.26849 14.631C3.21985 14.5697 3.15768 14.5421 2.99822 14.5084C2.88471 14.4838 2.72525 14.4287 2.64417 14.3858C2.56309 14.3428 2.48471 14.3061 2.46849 14.3061C2.44957 14.3061 2.43606 14.2846 2.43606 14.2601C2.43606 14.2294 2.46309 14.2141 2.51714 14.2141C2.62525 14.2141 3.11174 14.2969 3.28741 14.3459C3.36309 14.3643 3.55768 14.3827 3.71985 14.3827C4.28741 14.3858 5.06579 14.5268 5.49012 14.7045C5.5712 14.7413 6.32795 14.8639 6.88201 14.9344C7.13606 14.9681 7.40903 15.0264 7.61174 15.0907C7.95228 15.198 8.16309 15.2348 8.76038 15.2869C9.34687 15.339 9.35498 15.339 9.35498 15.4432C9.35498 15.5291 9.35228 15.5321 9.29552 15.4892C9.24147 15.4494 9.21714 15.4494 9.08741 15.4984C8.93336 15.5536 8.7766 15.713 8.79282 15.8018C8.80363 15.8632 8.8766 15.8846 9.36849 15.9766C9.59282 16.0164 9.82795 16.0624 9.89552 16.0808C9.96309 16.0961 10.1036 16.1298 10.2063 16.1543C10.3117 16.1819 10.5117 16.2126 10.6523 16.2248C10.8334 16.2402 10.9901 16.2769 11.1793 16.3474C11.4117 16.4363 11.4874 16.4517 11.7117 16.4517C11.9631 16.4517 12.1901 16.4915 12.5685 16.5957C12.7117 16.6356 12.7334 16.6509 12.6847 16.6693C12.6523 16.6846 12.6252 16.7061 12.6252 16.7214C12.6252 16.7367 12.5442 16.7337 12.4442 16.7183C12.3144 16.6969 12.2144 16.6969 12.109 16.7245C11.9604 16.7582 11.7252 16.7704 11.7036 16.7459V16.7459Z" fill="#305370"/>
<path d="M12.7388 16.7244C12.7442 16.706 12.7604 16.6937 12.7739 16.6937C12.7874 16.6937 12.8036 16.706 12.809 16.7244C12.8144 16.7428 12.7982 16.7581 12.7739 16.7581C12.7496 16.7581 12.7334 16.7428 12.7388 16.7244Z" fill="#305370"/>
<path d="M12.6604 15.7037C12.5658 15.6516 12.5847 15.5934 12.6928 15.5934C12.7766 15.5934 12.7874 15.6026 12.7874 15.67C12.7874 15.7528 12.7577 15.7589 12.6604 15.7037Z" fill="#305370"/>
<path d="M11.0658 15.6731C10.9712 15.621 10.9901 15.5627 11.0982 15.5627C11.182 15.5627 11.1928 15.5719 11.1928 15.6394C11.1928 15.7221 11.1631 15.7283 11.0658 15.6731Z" fill="#305370"/>
<path d="M11.9225 15.6578C11.9225 15.6118 11.9523 15.5996 12.0874 15.5812C12.382 15.5475 12.4631 15.5567 12.4631 15.621C12.4631 15.667 12.4334 15.6793 12.282 15.6946C11.9739 15.7283 11.9225 15.7222 11.9225 15.6578Z" fill="#305370"/>
<path d="M10.2253 15.5567C10.2334 15.4249 10.2334 15.4249 10.4766 15.4311C10.6577 15.4372 10.728 15.4494 10.7496 15.4862C10.7658 15.5108 10.8009 15.5322 10.8253 15.5322C10.8523 15.5322 10.8685 15.5567 10.8685 15.6088C10.8685 15.6947 10.8604 15.6977 10.7874 15.6548C10.7604 15.6395 10.655 15.6119 10.555 15.5966C10.3874 15.569 10.3685 15.5721 10.3361 15.6242C10.2685 15.7345 10.2144 15.7008 10.2253 15.5567Z" fill="#305370"/>
<path d="M9.89554 15.6209C9.89554 15.5995 9.86851 15.5933 9.82797 15.6056C9.77122 15.6209 9.76041 15.6148 9.76041 15.5596C9.76041 15.4615 9.83878 15.4125 9.99824 15.4094C10.1388 15.4094 10.1388 15.4094 10.1388 15.5198C10.1388 15.6271 10.1361 15.6301 10.0577 15.6148C10.0118 15.6025 9.97662 15.6087 9.97662 15.624C9.97662 15.6424 9.9577 15.6546 9.93608 15.6546C9.91446 15.6546 9.89554 15.6393 9.89554 15.6209V15.6209Z" fill="#305370"/>
<path d="M9.57392 15.5659C9.55229 15.5505 9.51986 15.5444 9.49824 15.5536C9.47662 15.5628 9.4631 15.5475 9.4631 15.5046C9.4631 15.4524 9.47932 15.4402 9.5577 15.4402C9.64148 15.4402 9.65229 15.4494 9.65229 15.5168C9.65229 15.5996 9.63608 15.6088 9.57392 15.5659Z" fill="#305370"/>
<path d="M2.12526 14.2326C2.00094 14.1928 1.94958 14.1621 1.94958 14.1192C1.94958 14.0824 2.02526 14.0855 2.23337 14.1284C2.37121 14.1591 2.40904 14.1775 2.40904 14.2204C2.40904 14.2847 2.30094 14.2878 2.12526 14.2326Z" fill="#305370"/>
<path d="M1.8685 13.6777C1.8685 13.6532 1.85769 13.6317 1.84418 13.6317C1.83067 13.6317 1.82526 13.6041 1.83337 13.5704C1.85769 13.4631 1.92256 13.4968 1.92256 13.6164C1.92256 13.6746 1.91175 13.7237 1.89553 13.7237C1.88202 13.7237 1.8685 13.7022 1.8685 13.6777Z" fill="#305370"/>
<path d="M1.81445 13.221C1.81445 13.1965 1.80364 13.1719 1.78742 13.1658C1.74958 13.1505 1.78742 13.0187 1.83066 13.0187C1.85769 13.0187 1.8685 13.0585 1.8685 13.1413C1.8685 13.2087 1.85769 13.2639 1.84148 13.2639C1.82796 13.2639 1.81445 13.2455 1.81445 13.221Z" fill="#305370"/>
<path d="M1.77931 12.3383C1.7685 12.3015 1.7766 12.2616 1.79282 12.2494C1.81174 12.2371 1.81714 12.185 1.80633 12.1176C1.79822 12.0563 1.80093 12.0072 1.81714 12.0072C1.83066 12.0072 1.84147 11.9858 1.84147 11.9613C1.84147 11.9367 1.86039 11.9153 1.88471 11.9153C1.92255 11.9153 1.92795 11.9398 1.91174 12.0777C1.90363 12.1636 1.89552 12.2739 1.89552 12.3229C1.89552 12.4272 1.80093 12.4394 1.77931 12.3383Z" fill="#305370"/>
<path d="M20.0117 12.2525C20.0036 12.2188 19.9793 12.1912 19.9604 12.1912C19.9361 12.1912 19.9225 12.1575 19.9225 12.0993C19.9225 11.9583 20.0117 11.8786 20.855 11.241C21.4604 10.7812 21.5604 10.7199 21.7009 10.7199C21.7874 10.7199 21.8469 10.6832 22.0739 10.4931C22.2496 10.3429 22.3658 10.2203 22.4117 10.1314C22.455 10.0456 22.5442 9.95059 22.6685 9.85864C22.7712 9.77894 22.8901 9.67473 22.9334 9.62262C23.0063 9.53373 23.009 9.52147 22.9766 9.43565C22.8982 9.21802 23.0307 8.88086 23.1955 8.88086C23.2442 8.88086 23.2685 8.89312 23.2604 8.92071C23.255 8.94216 23.3171 8.99427 23.4171 9.04944C23.6496 9.17818 23.6874 9.24868 23.7009 9.57971C23.7117 9.85251 23.7117 9.85251 23.6225 9.96898C23.5712 10.0333 23.4496 10.1437 23.3523 10.2173C23.2523 10.2878 23.0496 10.4502 22.9009 10.5759C22.7496 10.7046 22.4658 10.9069 22.2685 11.0295C22.0712 11.1491 21.8009 11.3238 21.6685 11.4157C21.4496 11.569 20.7793 12.0134 20.4496 12.2249C20.2766 12.3383 20.0334 12.3506 20.0117 12.2525V12.2525Z" fill="#305370"/>
<path d="M1.83336 11.8172C1.82255 11.7773 1.82795 11.7436 1.84147 11.7375C1.85768 11.7314 1.86849 11.7068 1.86849 11.6823C1.86849 11.6578 1.88741 11.6394 1.91174 11.6394C1.94417 11.6394 1.94957 11.667 1.94417 11.7528C1.93336 11.8877 1.85768 11.9306 1.83336 11.8172Z" fill="#305370"/>
<path d="M1.99823 11.1582C1.99013 11.1091 2.0604 10.9957 2.09823 10.9957C2.10634 10.9957 2.11175 11.0448 2.11175 11.103C2.11175 11.1888 2.10094 11.2103 2.0604 11.2103C2.03067 11.2103 2.00364 11.1858 1.99823 11.1582V11.1582Z" fill="#305370"/>
<path d="M11.4631 10.8087C11.2171 10.7934 10.8793 10.7628 10.709 10.7352C10.5117 10.7014 10.3415 10.6923 10.2307 10.7045C10.082 10.7229 10.0577 10.7198 10.0577 10.6769C10.0577 10.6493 10.0766 10.6279 10.0982 10.6279C10.1198 10.6279 10.1388 10.6126 10.1388 10.5942C10.1388 10.5605 10.482 10.5696 10.6928 10.6095C10.8631 10.6432 11.0604 10.6616 11.5766 10.6892C12.0766 10.7168 12.2198 10.7444 12.2198 10.8179C12.2198 10.8455 12.0955 10.8424 11.4631 10.8087V10.8087Z" fill="#305370"/>
<path d="M12.4901 10.7995C12.4901 10.7781 12.5171 10.7505 12.5523 10.7382C12.6631 10.7045 12.7063 10.7168 12.7063 10.7811C12.7063 10.8332 12.6874 10.8424 12.5982 10.8424C12.5252 10.8424 12.4901 10.8302 12.4901 10.7995Z" fill="#305370"/>
<path d="M13.2469 10.7689C13.2469 10.7168 13.2658 10.7107 13.4901 10.7076C13.5982 10.7045 13.6361 10.6923 13.6307 10.6647C13.628 10.6371 13.6469 10.6279 13.6847 10.634C13.7253 10.6402 13.7442 10.6279 13.7388 10.6034C13.7361 10.5789 13.7523 10.5666 13.7847 10.5727C13.8145 10.5789 13.8361 10.5697 13.8334 10.5574C13.8253 10.5206 14.0063 10.4379 14.0469 10.4563C14.0658 10.4655 14.0955 10.4501 14.1145 10.4256C14.1334 10.4011 14.1631 10.3858 14.1793 10.395C14.1982 10.4011 14.2307 10.3827 14.255 10.349C14.282 10.3153 14.3604 10.2478 14.4361 10.1957C14.6009 10.0823 14.5928 10.021 14.4253 10.1252C14.3145 10.1957 14.0496 10.3122 13.9388 10.3367C13.9118 10.3459 13.8388 10.3704 13.7766 10.398C13.628 10.4624 13.582 10.4379 13.4172 10.2111C13.3117 10.067 13.2847 10.0149 13.3063 9.97504C13.328 9.92906 13.3145 9.92293 13.1847 9.92293C13.1036 9.92293 12.9415 9.94439 12.8253 9.97197C12.6496 10.0149 12.5685 10.0149 12.3307 9.9873C12.1739 9.96891 11.9036 9.94745 11.7334 9.93826C11.5631 9.92906 11.3928 9.9168 11.355 9.91067C11.3172 9.90147 11.1172 9.87389 10.909 9.8463C10.7009 9.81872 10.4874 9.79113 10.4361 9.785C10.3847 9.77887 10.2253 9.75741 10.0847 9.73902C9.42256 9.65626 9.07121 9.61029 9.05499 9.60109C9.04688 9.59496 8.91986 9.58576 8.77121 9.5827C8.53607 9.57657 8.33067 9.55818 8.00364 9.50914C7.95229 9.50301 7.69013 9.47542 7.42256 9.44783C7.15499 9.42331 6.79013 9.3804 6.61175 9.35588C6.43337 9.33136 6.13607 9.30377 5.94959 9.29458C5.7631 9.28538 5.47121 9.26393 5.30094 9.2486C5.13067 9.23327 4.89283 9.21182 4.77391 9.20262C4.65499 9.19343 4.47932 9.17197 4.38202 9.15358C4.28472 9.13519 4.09013 9.13212 3.93337 9.14439C3.59013 9.16891 3.47391 9.13519 3.41986 8.985C3.32797 8.73366 3.38472 8.62025 3.72256 8.3873C3.87391 8.28615 3.97391 8.19113 4.01445 8.11757C4.0604 8.03481 4.11986 7.98883 4.23607 7.93366C4.59553 7.76814 5.21445 7.36967 5.83607 6.90684C6.08742 6.7168 6.11986 6.68308 6.19553 6.5145C6.29283 6.29688 6.29013 6.21105 6.18472 6.1712C6.08472 6.13136 6.01715 6.15894 5.43067 6.51756C5.1577 6.68308 4.89283 6.83021 4.84148 6.84247C4.71715 6.87312 4.5631 6.96201 4.14418 7.24707C3.73067 7.52906 3.38472 7.7896 3.11175 8.02255C3.00094 8.11756 2.78742 8.27695 2.63878 8.37504C2.49013 8.47312 2.29283 8.61412 2.19824 8.69075C2.10364 8.76431 2.02256 8.81948 2.01715 8.81335C1.99553 8.78883 2.25769 8.5191 2.47121 8.34745C2.59013 8.25243 2.85769 8.05933 3.0658 7.91527C3.27661 7.7712 3.61445 7.52599 3.81715 7.36967C4.28472 7.00492 4.70905 6.71373 4.82256 6.68002C4.86851 6.66469 5.19553 6.46239 5.54418 6.22944C6.14148 5.83097 6.6604 5.49688 7.65229 4.87465C7.88202 4.72753 8.21175 4.5099 8.38202 4.39036C8.75499 4.1237 8.81175 4.08998 9.0631 3.98883C9.33878 3.87542 9.5631 3.74362 10.1388 3.35435C10.755 2.93749 10.9496 2.79343 11.3955 2.41335C11.9766 1.9168 12.328 1.69611 12.9145 1.46009C13.3334 1.28845 14.228 1.27005 14.7063 1.41718C14.955 1.49381 15.5685 1.55818 16.6334 1.61948C16.9577 1.63787 17.382 1.67772 17.5793 1.71143C18.009 1.78193 18.7226 1.88308 20.0415 2.06392C20.2172 2.08538 20.6118 2.12216 20.9199 2.13749C21.5739 2.17733 21.8388 2.21412 22.528 2.36431C23.1036 2.48998 23.2172 2.53596 23.3631 2.7076C23.4442 2.80262 23.4631 2.8486 23.4631 2.94668C23.4631 3.10607 23.3928 3.22255 23.1658 3.45243C23.0604 3.55971 22.955 3.68845 22.9334 3.74055C22.909 3.79573 22.8388 3.89994 22.7766 3.9735C22.6658 4.10837 22.6658 4.10837 22.8009 4.00722C23.3036 3.62714 23.7955 3.14898 23.8577 2.97427C23.8793 2.9191 23.8955 2.83327 23.8955 2.78117C23.8955 2.68002 23.9226 2.66776 24.0118 2.73212C24.0442 2.75665 24.1307 2.78423 24.2036 2.79649C24.4712 2.8394 24.5874 3.08768 24.4658 3.35741C24.3955 3.5076 24.0631 3.87235 23.8415 4.03787C23.7469 4.11143 23.5712 4.25243 23.4496 4.35358C23.3307 4.45473 23.182 4.5804 23.1199 4.63251C23.0577 4.68461 23.0036 4.73979 23.0036 4.75205C23.0009 4.86546 22.6685 5.17197 22.5523 5.17197C22.5145 5.17197 22.4901 5.19036 22.4901 5.21795C22.4901 5.24247 22.4577 5.27006 22.4172 5.28232C22.2685 5.3191 22.2469 5.33136 22.2469 5.37427C22.2469 5.39879 22.2199 5.41718 22.1793 5.41718C22.1415 5.41718 22.1009 5.4417 22.0847 5.47848C22.0685 5.5122 22.0334 5.53979 22.0063 5.53979C21.9766 5.53979 21.9496 5.56124 21.9388 5.58576C21.9307 5.61029 21.8928 5.63174 21.855 5.63174C21.8172 5.63174 21.7793 5.6532 21.7712 5.67772C21.7604 5.70224 21.7361 5.72369 21.7145 5.72369C21.6901 5.72369 21.6442 5.75741 21.609 5.80032C21.5739 5.84324 21.5199 5.87695 21.4901 5.87695C21.4145 5.87695 21.3307 5.92906 21.255 6.02101C21.2226 6.05779 21.1685 6.09151 21.1361 6.09151C21.1036 6.09151 21.0496 6.12523 21.0145 6.16814C20.9793 6.21105 20.928 6.24477 20.9009 6.24477C20.8712 6.24477 20.8415 6.26622 20.8307 6.29074C20.8226 6.31527 20.7928 6.33672 20.7631 6.33672C20.7361 6.33672 20.7063 6.35818 20.6955 6.3827C20.6874 6.40722 20.655 6.42868 20.6253 6.42868C20.5955 6.42868 20.5712 6.44094 20.5712 6.45626C20.5712 6.49611 20.0955 6.79649 20.0307 6.79649C20.0009 6.79649 19.9766 6.81182 19.9766 6.83021C19.9766 6.88232 19.8901 6.94668 19.8226 6.94975C19.7874 6.94975 19.7604 6.96507 19.7604 6.98347C19.7604 7.03557 19.6739 7.09994 19.6036 7.10301C19.5712 7.10301 19.5361 7.12446 19.528 7.14898C19.5172 7.1735 19.4955 7.19496 19.4739 7.19496C19.455 7.19496 19.409 7.25013 19.3766 7.31756C19.3415 7.385 19.2928 7.44017 19.2685 7.44017C19.2415 7.44017 19.2199 7.45243 19.2199 7.47082C19.2199 7.50454 18.9712 7.65473 18.9118 7.65473C18.8901 7.65473 18.8685 7.66699 18.8631 7.68232C18.8496 7.72523 18.4874 7.96124 18.4361 7.96124C18.3577 7.96124 18.3009 7.99496 18.3009 8.04094C18.3009 8.06546 18.2793 8.08385 18.2523 8.08385C18.2253 8.08385 18.1847 8.10837 18.1631 8.13902C18.1063 8.21258 17.6469 8.51297 17.5874 8.51297C17.5631 8.51297 17.5442 8.52523 17.5442 8.53749C17.5442 8.55281 17.4631 8.60186 17.3631 8.6509C17.2604 8.69688 17.0982 8.7827 17.0009 8.83787C16.9009 8.89611 16.8063 8.94209 16.7901 8.94209C16.7739 8.94209 16.7118 8.9758 16.6523 9.01871C16.5928 9.06163 16.528 9.09534 16.5036 9.09534C16.482 9.09534 16.4631 9.1168 16.4631 9.14132C16.4631 9.19343 16.382 9.2486 16.3036 9.2486C16.2739 9.2486 16.228 9.27312 16.2009 9.30684C16.1361 9.38347 15.9928 9.46316 15.9226 9.46316C15.8523 9.46316 15.5928 9.61029 15.5631 9.66546C15.5523 9.68998 15.5226 9.70837 15.5009 9.70837C15.4793 9.70837 15.4415 9.72063 15.4145 9.73596C15.1442 9.89228 15.082 9.92293 15.0334 9.92293C15.0036 9.92293 14.9766 9.93826 14.9766 9.95358C14.9766 9.97197 14.9658 9.98423 14.9523 9.98423C14.9361 9.98423 14.8928 10.021 14.8496 10.0639C14.809 10.1068 14.7415 10.1497 14.7009 10.1589C14.6496 10.1712 14.6253 10.1957 14.6253 10.2325C14.6253 10.2754 14.6063 10.2907 14.5442 10.2907C14.5009 10.2907 14.4631 10.3061 14.4631 10.3214C14.4631 10.3398 14.4388 10.352 14.409 10.352C14.3793 10.352 14.355 10.3735 14.355 10.398C14.355 10.4225 14.3361 10.444 14.3145 10.444C14.2928 10.444 14.2739 10.4593 14.2739 10.4747C14.2739 10.493 14.2523 10.5145 14.228 10.5237C14.1793 10.5421 14.0226 10.6218 13.8307 10.726C13.7685 10.7597 13.6334 10.7904 13.4874 10.8026C13.2739 10.8179 13.2469 10.8149 13.2469 10.7689V10.7689ZM5.3577 7.51986C5.40905 7.48615 5.68742 7.29611 5.97391 7.10301C6.44959 6.78117 6.54148 6.69841 6.37121 6.74745C6.33607 6.75665 6.12797 6.90071 5.90634 7.06622C5.68472 7.23174 5.42256 7.41871 5.32256 7.48308C5.21986 7.54745 5.13878 7.60569 5.13878 7.61488C5.13878 7.6394 5.2577 7.59036 5.3577 7.51986V7.51986ZM18.0388 6.99879C18.6253 6.61871 18.7847 6.49611 18.3361 6.76584C17.8928 7.03251 17.4361 7.33289 17.4361 7.35741C17.4361 7.37274 17.4442 7.3758 17.4577 7.36967C17.4685 7.36354 17.728 7.19496 18.0388 6.99879V6.99879ZM9.84959 4.28308C9.91715 4.23097 10.1523 4.08691 10.3658 3.96124C10.582 3.83557 10.9928 3.56278 11.2793 3.35435C11.955 2.86392 12.1199 2.75051 12.6253 2.44094C13.4199 1.95665 13.2685 1.99956 14.0442 2.04247C14.8604 2.08845 15.7631 2.17427 16.4226 2.27542C16.6901 2.31527 17.1036 2.37044 17.3415 2.39802C17.5793 2.42561 17.8955 2.47465 18.0442 2.5053C18.1928 2.53902 18.4009 2.57887 18.509 2.59726C19.0063 2.67695 20.8766 2.7873 20.6118 2.71986C20.5523 2.7076 20.3469 2.67082 20.1523 2.64324C19.9604 2.61871 19.6063 2.55435 19.3685 2.5053C19.1307 2.45626 18.6982 2.38576 18.409 2.35205C18.1199 2.31527 17.7766 2.26622 17.6496 2.2417C17.2847 2.17427 16.3955 2.07619 16.1253 2.07619C15.6496 2.07619 14.8415 1.99036 14.5172 1.90454C14.2685 1.8371 14.1388 1.82178 13.8685 1.81871C13.4631 1.81871 13.3063 1.86163 12.8712 2.08232C12.4712 2.28768 12.2145 2.46546 11.8117 2.81182C11.3172 3.23787 10.3415 3.93672 9.8631 4.20952C9.70634 4.29841 9.60905 4.3873 9.5631 4.48232C9.53878 4.53442 9.54959 4.53136 9.62797 4.46086C9.67932 4.41795 9.77932 4.33825 9.84959 4.28308V4.28308ZM22.8631 3.20415C22.9469 3.10301 22.9496 3.09687 22.9036 3.04783C22.8766 3.02331 22.8226 2.98653 22.782 2.96814C22.6577 2.91603 22.3766 2.86699 22.3036 2.88845C22.2388 2.90684 22.2415 2.91297 22.3658 2.96507C22.5766 3.05703 22.6063 3.10301 22.5901 3.31143C22.5766 3.48615 22.5766 3.48615 22.6739 3.39726C22.7307 3.34822 22.8145 3.25933 22.8631 3.20415V3.20415Z" fill="#305370"/>
<path d="M9.46311 10.7199C9.46311 10.7015 9.40094 10.6984 9.30094 10.7107C9.20905 10.7199 9.13878 10.7168 9.13878 10.7015C9.13878 10.6861 9.06851 10.6739 8.98473 10.6739C8.84689 10.6739 8.82797 10.6677 8.82797 10.6126C8.82797 10.5574 8.84689 10.5513 9.04149 10.5513C9.19013 10.5513 9.2604 10.5635 9.26851 10.5911C9.27932 10.634 9.355 10.6402 9.355 10.5972C9.355 10.5605 9.57932 10.5942 9.59283 10.634C9.59824 10.6463 9.61986 10.6586 9.64148 10.6586C9.66311 10.6586 9.67932 10.68 9.67932 10.7045C9.67932 10.7382 9.64959 10.7505 9.57121 10.7505C9.51175 10.7505 9.46311 10.7382 9.46311 10.7199V10.7199Z" fill="#305370"/>
<path d="M2.2739 10.5452C2.2739 10.5115 2.30633 10.4655 2.36308 10.4164C2.40363 10.3797 2.40903 10.3827 2.40903 10.4716C2.40903 10.5513 2.39822 10.5666 2.34146 10.5666C2.30363 10.5666 2.2739 10.5574 2.2739 10.5452V10.5452Z" fill="#305370"/>
<path d="M6.84149 10.4133C6.84149 10.3428 6.91176 10.3336 6.98473 10.3949C7.0523 10.4562 7.04149 10.4746 6.93609 10.4746C6.86041 10.4746 6.84149 10.4623 6.84149 10.4133Z" fill="#305370"/>
<path d="M6.48472 10.4226C6.40364 10.4134 6.38202 10.395 6.38202 10.3491C6.38202 10.2816 6.44418 10.2755 6.65229 10.3245C6.73607 10.346 6.78743 10.3736 6.78743 10.4012C6.78743 10.4441 6.71715 10.4502 6.48472 10.4226Z" fill="#305370"/>
<path d="M5.32797 10.2694C5.27661 10.2632 5.21445 10.251 5.19283 10.2387C5.17121 10.2295 5.10905 10.2234 5.05499 10.2265C4.99824 10.2295 4.94959 10.2203 4.93878 10.205C4.93067 10.1897 4.82797 10.1835 4.71175 10.1927C4.57121 10.2019 4.49013 10.1958 4.47932 10.1713C4.46851 10.1529 4.43607 10.1376 4.40634 10.1376C4.34148 10.1376 4.33878 10.1008 4.40364 10.0579C4.4577 10.018 4.6577 10.0334 4.68202 10.0824C4.69283 10.1039 4.70364 10.1008 4.71445 10.0732C4.72526 10.0364 4.73337 10.0395 4.7577 10.0763C4.77932 10.11 4.78743 10.11 4.78743 10.0824C4.78743 10.0548 4.82256 10.0487 4.91716 10.0579C4.98743 10.0671 5.13878 10.0824 5.25499 10.0947C5.37932 10.1039 5.47932 10.1284 5.50094 10.156C5.52256 10.1805 5.55229 10.1989 5.56851 10.1989C5.58472 10.1989 5.59824 10.2203 5.59824 10.2448C5.59824 10.2908 5.54689 10.297 5.32797 10.2694Z" fill="#305370"/>
<path d="M2.60635 10.0916C2.62527 10.0487 2.6604 10.0149 2.68743 10.0149C2.71446 10.0149 2.73067 10.0027 2.72256 9.98735C2.70094 9.95057 2.94148 9.89233 3.11175 9.89233C3.22527 9.89233 3.24689 9.90153 3.24689 9.95057C3.24689 9.99961 3.21716 10.0088 3.04148 10.0241C2.88202 10.0364 2.82256 10.0548 2.78202 10.1038C2.755 10.1406 2.69824 10.1682 2.655 10.1682C2.58202 10.1682 2.57932 10.1651 2.60635 10.0916V10.0916Z" fill="#305370"/>
<path d="M3.55229 10.0516C3.33337 10.0118 3.30093 9.99648 3.30093 9.94437C3.30093 9.8892 3.31445 9.88613 3.4658 9.90452C3.72256 9.93211 3.97661 10.021 3.97661 10.0823C3.97661 10.116 3.84147 10.1068 3.55229 10.0516Z" fill="#305370"/>
<path d="M15.382 16.5007C15.382 16.4547 15.5658 16.3444 15.5928 16.375C15.6009 16.3842 15.582 16.3996 15.5496 16.4118C15.5144 16.421 15.4901 16.4517 15.4901 16.4854C15.4901 16.5222 15.4712 16.5436 15.436 16.5436C15.4063 16.5436 15.382 16.5252 15.382 16.5007V16.5007Z" fill="#3E6087"/>
<path d="M14.9631 15.8815C14.809 15.7988 14.6901 15.7926 14.3631 15.8417C14.1874 15.8693 14.1063 15.8693 13.9847 15.8386C13.8982 15.8172 13.7847 15.7957 13.7333 15.7926C13.682 15.7896 13.5982 15.7865 13.5523 15.7835C13.4847 15.7773 13.4631 15.762 13.4631 15.7191C13.4631 15.67 13.4928 15.6608 13.6955 15.6455C13.8225 15.6394 13.9415 15.6149 13.9577 15.5965C13.9739 15.5781 14.0198 15.5628 14.0604 15.5628C14.1009 15.5628 14.1387 15.5474 14.1442 15.5321C14.1523 15.5015 14.6658 15.3666 14.909 15.3267C14.9685 15.3175 15.0901 15.2716 15.1793 15.2256C15.4874 15.0601 15.6604 14.9804 15.6955 14.9804C15.7469 14.9804 16.1658 14.729 16.1658 14.6984C16.1658 14.6861 16.1901 14.6739 16.2198 14.6739C16.2523 14.6739 16.309 14.6371 16.3469 14.5942C16.3847 14.5513 16.455 14.4992 16.5009 14.4808C16.5469 14.4654 16.6063 14.4256 16.6333 14.3949C16.6604 14.3612 16.6982 14.3367 16.7198 14.3367C16.7387 14.3367 16.7604 14.3244 16.7658 14.3122C16.7739 14.2907 17.1279 14.0333 17.309 13.9168C17.3415 13.8953 17.3793 13.8616 17.3955 13.8371C17.409 13.8156 17.4793 13.7666 17.5523 13.7298C17.6225 13.693 17.6793 13.6471 17.6793 13.6317C17.6793 13.6133 17.7036 13.6011 17.7333 13.6011C17.7631 13.6011 17.8117 13.5735 17.8442 13.5367C17.8739 13.503 17.955 13.4509 18.0198 13.4264C18.0847 13.4018 18.1388 13.3681 18.1388 13.3528C18.1388 13.3375 18.1577 13.3252 18.1793 13.3252C18.2036 13.3252 18.2523 13.2915 18.2901 13.2486C18.3279 13.2057 18.382 13.172 18.409 13.172C18.4388 13.172 18.4631 13.1505 18.4631 13.126C18.4631 13.1015 18.482 13.08 18.5036 13.08C18.5252 13.08 18.5442 13.0677 18.5442 13.0494C18.5442 13.034 18.5658 13.0187 18.5928 13.0187C18.6198 13.0187 18.6604 12.9942 18.6847 12.9666C18.7577 12.8746 18.8496 12.8011 18.9631 12.7428C19.0225 12.7153 19.1685 12.5988 19.2874 12.4884C19.5144 12.28 19.8955 12.0072 19.9631 12.0072C19.9847 12.0072 20.0036 11.9827 20.0036 11.9551C20.0063 11.8785 20.0685 11.7926 20.1225 11.7926C20.1469 11.7926 20.1658 11.7712 20.1658 11.7467C20.1658 11.713 20.1982 11.7007 20.2955 11.7038C20.4225 11.7038 20.4225 11.7038 20.3306 11.7865C20.0928 12.0041 20.0036 12.0992 20.0388 12.0992C20.0604 12.0992 20.0847 12.1267 20.0928 12.1605C20.1117 12.2463 20.2063 12.2371 20.3685 12.1329C20.6982 11.9214 21.3685 11.4769 21.5874 11.3237C21.7198 11.2317 21.9901 11.057 22.1874 10.9375C22.3847 10.8149 22.6685 10.6126 22.8198 10.4838C22.9685 10.3582 23.1712 10.1957 23.2712 10.1252C23.3685 10.0517 23.4901 9.94131 23.5415 9.87694C23.6279 9.76353 23.6306 9.75127 23.6171 9.57656C23.5982 9.34667 23.5442 9.26085 23.3469 9.14131C23.2415 9.07694 23.1982 9.03403 23.2063 9.00644C23.2171 8.97579 23.2009 8.98192 23.1658 9.0187C23.1063 9.08 23.1063 9.08 23.1171 8.98805C23.1225 8.91449 23.1388 8.89303 23.1982 8.8869C23.2523 8.88077 23.2685 8.8869 23.2604 8.91755C23.2496 8.9482 23.2847 8.97272 23.3739 8.99725C23.4739 9.0279 23.5388 9.08 23.6604 9.21794C23.7442 9.31909 23.8144 9.42023 23.8144 9.44782C23.8144 9.47541 23.8442 9.57656 23.882 9.67771C24.0036 10.0087 23.9685 10.1191 23.6388 10.4471C23.536 10.5482 23.3631 10.726 23.2604 10.8363C23.155 10.9497 22.9442 11.1582 22.7874 11.3022C22.6333 11.4463 22.4955 11.5781 22.4793 11.5934C22.3955 11.6823 21.782 12.2555 21.6523 12.3658C21.5144 12.4823 21.3117 12.6294 20.8631 12.9359C20.7631 13.0034 20.5739 13.1628 20.4442 13.2854C20.2225 13.4938 19.755 13.8769 19.482 14.067C19.2306 14.2448 18.455 14.7229 17.9658 14.9988C17.6847 15.1582 17.3333 15.3697 17.182 15.4708C16.9712 15.6087 16.8928 15.6455 16.836 15.6333C16.7793 15.621 16.7604 15.5995 16.7604 15.5474C16.7604 15.5076 16.7387 15.4463 16.709 15.4064C16.6631 15.339 16.6523 15.339 16.5415 15.3758C16.4766 15.3972 16.2415 15.4984 16.0171 15.5995C15.582 15.7988 15.1739 15.9612 15.1279 15.9582C15.1117 15.9582 15.0387 15.9244 14.9631 15.8815V15.8815Z" fill="#3E6087"/>
<path d="M9.81442 15.5015C9.81442 15.431 9.82794 15.4126 9.89821 15.3973C10.082 15.3574 10.1117 15.3697 10.1117 15.4861C10.1117 15.5597 10.0982 15.5934 10.0712 15.5934C10.0469 15.5934 10.0387 15.575 10.0469 15.5475C10.0604 15.5137 10.0442 15.5015 9.9928 15.5015C9.95226 15.5015 9.91442 15.5199 9.90631 15.5413C9.88199 15.6179 9.81442 15.5873 9.81442 15.5015V15.5015Z" fill="#3E6087"/>
<path d="M10.4306 15.5107C10.4036 15.5046 10.382 15.477 10.382 15.4525C10.382 15.4218 10.4171 15.4095 10.5036 15.4095C10.6063 15.4095 10.6252 15.4187 10.6252 15.4708C10.6252 15.5168 10.609 15.5322 10.5523 15.5291C10.509 15.526 10.455 15.5199 10.4306 15.5107Z" fill="#3E6087"/>
<path d="M8.94956 15.4065C8.882 15.3943 8.76308 15.382 8.6874 15.382C8.56308 15.379 8.54416 15.3698 8.54416 15.3177C8.54416 15.2655 8.56308 15.2563 8.67389 15.2563C8.74416 15.2563 8.90092 15.2717 9.02524 15.2931C9.20902 15.3207 9.24686 15.336 9.24686 15.382C9.24686 15.4433 9.1847 15.4495 8.94956 15.4065V15.4065Z" fill="#3E6087"/>
<path d="M8.40361 15.3574C8.32252 15.3482 8.3009 15.3298 8.3009 15.2838C8.3009 15.2348 8.31982 15.2256 8.40901 15.2256C8.50631 15.2256 8.51712 15.2348 8.51712 15.3022C8.51712 15.3451 8.51442 15.3758 8.51172 15.3727C8.50631 15.3696 8.45766 15.3635 8.40361 15.3574V15.3574Z" fill="#3E6087"/>
<path d="M8.04416 15.3145C7.76308 15.2716 7.50632 15.1827 7.49551 15.1245C7.4874 15.0846 7.50632 15.0724 7.582 15.0724C7.63605 15.0724 7.67929 15.0846 7.67929 15.1C7.67929 15.1122 7.80632 15.1429 7.96308 15.1643C8.23065 15.2042 8.24686 15.2103 8.24686 15.2777C8.24686 15.3176 8.24416 15.3452 8.24146 15.3452C8.23605 15.3421 8.14686 15.3268 8.04416 15.3145Z" fill="#3E6087"/>
<path d="M7.32254 15.1183C7.31443 15.1091 7.26849 15.0938 7.21714 15.0877C6.80092 15.0264 6.47119 14.9804 6.30092 14.962C6.19011 14.9497 6.09281 14.9375 6.0847 14.9344C6.07119 14.9283 5.85227 14.8915 5.71984 14.87C5.582 14.8486 5.482 14.8241 5.35497 14.7781C5.28741 14.7566 5.14416 14.7076 5.03876 14.6739C4.89822 14.6279 4.84146 14.5942 4.84146 14.5605C4.84146 14.5206 4.86308 14.5145 4.982 14.5298C5.06038 14.5421 5.12795 14.5635 5.13335 14.5819C5.13876 14.5973 5.1847 14.6126 5.23606 14.6126C5.28741 14.6126 5.32795 14.6279 5.32795 14.6432C5.32795 14.6616 5.35497 14.6739 5.39011 14.6739C5.42254 14.6739 5.5766 14.7015 5.73065 14.7352C5.8847 14.7689 6.12795 14.8087 6.27119 14.8271C6.79281 14.8884 7.01984 14.9191 7.20092 14.9528C7.36579 14.9835 7.382 14.9927 7.382 15.0601C7.382 15.1275 7.35498 15.1551 7.32254 15.1183Z" fill="#3E6087"/>
<path d="M4.78469 14.6004C4.75496 14.5666 3.88198 14.4778 3.66306 14.4839C3.52793 14.49 3.36306 14.4778 3.2982 14.4594C3.23333 14.4379 3.13604 14.4165 3.08469 14.4103C3.03333 14.4011 2.84685 14.3674 2.66577 14.3337C2.48739 14.3 2.31712 14.2663 2.28739 14.2632C2.17117 14.2509 2.08469 14.205 2.08469 14.1621C2.08469 14.1007 2.23333 14.1191 2.8955 14.254C3.27388 14.3306 3.42793 14.349 3.66577 14.3429C3.82793 14.3398 4.02252 14.349 4.0982 14.3644C4.17117 14.3797 4.36306 14.4103 4.52523 14.4318C4.8009 14.4655 4.81442 14.4716 4.81442 14.5391C4.81442 14.6126 4.80631 14.6249 4.78469 14.6004V14.6004Z" fill="#3E6087"/>
<path d="M1.86038 11.6088C1.85227 11.5751 1.85767 11.5475 1.87119 11.5475C1.8847 11.5475 1.89551 11.5261 1.89551 11.5015C1.89551 11.477 1.91443 11.4556 1.93605 11.4556C1.96308 11.4556 1.97659 11.4893 1.97659 11.5628C1.97659 11.6487 1.96578 11.6701 1.92524 11.6701C1.89821 11.6701 1.86849 11.6425 1.86038 11.6088Z" fill="#3E6087"/>
<path d="M20.5171 11.5352C20.5171 11.4586 20.5279 11.4249 20.5577 11.4249C20.5793 11.4249 20.5982 11.4126 20.5982 11.3942C20.5982 11.3789 20.6225 11.3635 20.6523 11.3635C20.682 11.3635 20.7063 11.3513 20.7063 11.3329C20.7063 11.3176 20.7496 11.3022 20.8009 11.3022C20.8523 11.3022 20.8955 11.3145 20.8955 11.3298C20.8955 11.3421 20.8252 11.4095 20.7415 11.477C20.5063 11.6609 20.5171 11.6578 20.5171 11.5352V11.5352Z" fill="#3E6087"/>
<path d="M20.9496 11.2225C20.9496 11.1429 21.0036 11.057 21.055 11.057C21.0712 11.057 21.0847 11.0448 21.0847 11.0264C21.0847 11.0111 21.1036 10.9957 21.1253 10.9957C21.1469 10.9957 21.1658 10.9835 21.1658 10.9651C21.1658 10.9497 21.1847 10.9344 21.2063 10.9344C21.228 10.9344 21.2469 10.9222 21.2469 10.9038C21.2469 10.8884 21.2847 10.8731 21.328 10.8731C21.3766 10.8731 21.409 10.8578 21.409 10.8333C21.409 10.7781 21.5793 10.6984 21.7334 10.677C21.7982 10.6708 21.8577 10.6463 21.8631 10.631C21.8685 10.6126 21.8955 10.5973 21.9253 10.5973C21.9523 10.5973 21.9766 10.5758 21.9766 10.5513C21.9766 10.5268 21.9955 10.5053 22.0172 10.5053C22.0388 10.5053 22.0712 10.4777 22.0901 10.444C22.109 10.4103 22.1415 10.3827 22.1604 10.3827C22.1793 10.3827 22.2009 10.3643 22.209 10.3398C22.2172 10.3153 22.2469 10.2907 22.2739 10.2816C22.3009 10.2724 22.3442 10.2141 22.3685 10.1497C22.4117 10.0271 22.4928 9.92293 22.5442 9.92293C22.5577 9.92293 22.5712 9.91067 22.5712 9.89228C22.5712 9.87695 22.6009 9.8555 22.6388 9.84324C22.6766 9.83404 22.7063 9.81258 22.7063 9.79726C22.7063 9.78193 22.7361 9.76967 22.7712 9.76967C22.8117 9.76967 22.8415 9.74822 22.8496 9.70837C22.8577 9.67465 22.8874 9.64707 22.9172 9.64707C22.9523 9.64707 22.9739 9.61948 22.9847 9.56431C23.0117 9.42331 23.0469 9.38347 23.0955 9.42944C23.1199 9.45396 23.1388 9.49381 23.1388 9.5214C23.1388 9.5919 22.9361 9.81258 22.7307 9.96584C22.6172 10.0486 22.5388 10.1344 22.4982 10.2172C22.455 10.303 22.3496 10.4195 22.1793 10.5635C21.9036 10.7996 21.809 10.8547 21.7307 10.8271C21.6712 10.8057 21.5172 10.8915 21.2144 11.1214C21.0847 11.2225 20.9712 11.3022 20.9631 11.3022C20.955 11.3022 20.9496 11.2655 20.9496 11.2225V11.2225Z" fill="#3E6087"/>
<path d="M10.828 10.8517C10.7847 10.8456 10.6415 10.8119 10.5144 10.7813C10.3847 10.7475 10.2361 10.7199 10.182 10.7199C10.1171 10.7199 10.0847 10.7046 10.0847 10.677C10.0847 10.5881 10.3766 10.5728 10.782 10.6433C10.9226 10.6648 11.2253 10.6954 11.4577 10.7046C11.6928 10.7138 11.9226 10.7291 11.9712 10.7383C12.1009 10.7598 12.0793 10.8303 11.9334 10.8548C11.8009 10.8732 10.9712 10.8732 10.828 10.8517Z" fill="#3E6087"/>
<path d="M7.94955 10.5237C7.94955 10.4655 8.03874 10.444 8.0928 10.49C8.16037 10.5452 8.14956 10.5666 8.04415 10.5666C7.98199 10.5666 7.94955 10.5513 7.94955 10.5237Z" fill="#3E6087"/>
<path d="M7.51712 10.4931C7.51712 10.4348 7.61982 10.4103 7.68199 10.4532C7.76036 10.5084 7.74415 10.536 7.62523 10.536C7.55226 10.536 7.51712 10.5237 7.51712 10.4931Z" fill="#3E6087"/>
<path d="M7.16577 10.4624C7.16577 10.4042 7.25496 10.3827 7.30901 10.4287C7.37658 10.4839 7.36577 10.5053 7.26036 10.5053C7.1982 10.5053 7.16577 10.49 7.16577 10.4624Z" fill="#3E6087"/>
<path d="M5.5712 10.2478C5.5712 10.1896 5.66039 10.1681 5.71444 10.2141C5.78201 10.2693 5.7712 10.2907 5.66579 10.2907C5.60363 10.2907 5.5712 10.2754 5.5712 10.2478Z" fill="#3E6087"/>
<path d="M5.03874 10.2202C4.82523 10.1988 4.73334 10.1773 4.73334 10.1528C4.73334 10.1313 4.75226 10.1038 4.77658 10.0946C4.83604 10.07 4.99009 10.07 5.01442 10.0976C5.02523 10.1099 5.07928 10.116 5.13604 10.1099C5.1955 10.1068 5.24955 10.1191 5.26036 10.1375C5.27118 10.1589 5.30901 10.1651 5.35496 10.1528C5.42793 10.1344 5.54415 10.1865 5.54415 10.2356C5.54415 10.2631 5.44955 10.2601 5.03874 10.2202Z" fill="#3E6087"/>
<path d="M2.96309 10.1375C2.91985 10.1252 2.83066 10.113 2.7685 10.1099C2.70363 10.1099 2.65228 10.1007 2.65228 10.0915C2.65228 10.0823 2.67661 10.0486 2.70634 10.0149C2.74958 9.96585 2.81985 9.94439 3.02796 9.92294C3.25769 9.89535 3.34147 9.89841 3.59282 9.94746C4.0685 10.0425 4.0739 10.0823 3.61985 10.1314C3.25769 10.1712 3.08742 10.1743 2.96309 10.1375V10.1375Z" fill="#3E6087"/>
<path d="M4.32794 10.1252C4.32794 10.0609 4.482 10.0302 4.56038 10.0792C4.66308 10.1405 4.63605 10.1681 4.47659 10.1681C4.36578 10.1681 4.32794 10.1559 4.32794 10.1252Z" fill="#3E6087"/>
<path d="M14.7685 9.98118C14.7928 9.96279 14.809 9.93827 14.8009 9.91988C14.7901 9.90455 14.809 9.89229 14.8388 9.89229C14.8712 9.89229 14.8955 9.88003 14.8955 9.86471C14.8955 9.84938 14.9334 9.83099 14.9766 9.82486C15.0442 9.8126 15.0577 9.82179 15.0577 9.87697C15.0577 9.95972 14.9604 10.0149 14.8198 10.0149C14.7388 10.0118 14.728 10.0088 14.7685 9.98118V9.98118Z" fill="#3E6087"/>
<path d="M13.5712 9.67461C13.7279 9.58879 14.0496 9.41714 14.2874 9.29454C14.5252 9.17193 14.8225 9.01561 14.9496 8.94818C15.0766 8.88381 15.2712 8.78266 15.382 8.72749C15.4928 8.67231 15.8198 8.50373 16.1063 8.35354C16.3955 8.20335 16.636 8.08687 16.6442 8.093C16.6604 8.11446 15.9874 8.54051 15.6928 8.69684C15.3847 8.85929 14.882 9.11063 14.3955 9.34664C14.1874 9.44473 13.9333 9.5704 13.8279 9.62251C13.6117 9.72979 13.3604 9.83093 13.3171 9.83093C13.3009 9.82787 13.4144 9.76044 13.5712 9.67461V9.67461Z" fill="#3E6087"/>
<path d="M15.1388 9.78499C15.1388 9.74208 15.2577 9.644 15.2901 9.65932C15.3117 9.66852 15.3361 9.65626 15.3469 9.62867C15.355 9.60108 15.382 9.58576 15.4117 9.59495C15.4415 9.60415 15.4712 9.59189 15.4847 9.57043C15.5144 9.50913 15.8198 9.34668 15.9036 9.34668C15.9577 9.34668 15.9766 9.36201 15.9766 9.40798C15.9766 9.47848 15.7361 9.61641 15.6063 9.61641C15.5496 9.61641 15.5171 9.63174 15.5171 9.65626C15.5171 9.70836 15.3334 9.80032 15.2253 9.80032C15.1766 9.80032 15.1388 9.79419 15.1388 9.78499V9.78499Z" fill="#3E6087"/>
<path d="M12.9901 9.3406C12.9982 9.32221 13.2333 9.17815 13.5117 9.01876C13.7901 8.86244 14.1928 8.6111 14.409 8.46397C14.6252 8.31684 15.0388 8.0655 15.3279 7.90612C15.9766 7.5475 16.3496 7.31455 17.0442 6.82106C17.6847 6.36435 17.7333 6.33677 18.3063 6.07623C18.9361 5.78811 19.636 5.39271 20.3306 4.93294C20.6631 4.71531 21.2036 4.36589 21.5306 4.16052C22.3577 3.63639 22.4225 3.58428 22.4928 3.34213C22.5225 3.23792 22.5198 3.22566 22.455 3.16129C22.2631 2.97432 21.6874 2.87623 20.5712 2.84252C19.3766 2.80573 18.5631 2.72911 17.9631 2.5973C17.8144 2.56665 17.4982 2.51761 17.2604 2.49003C17.0225 2.46244 16.609 2.40727 16.3415 2.36742C15.7388 2.27547 14.7982 2.18351 14.0279 2.13447C13.355 2.09462 13.4928 2.05478 12.7063 2.53294C12.2009 2.84252 12.0361 2.95593 11.355 3.44941C11.0658 3.66091 10.7063 3.90305 10.5577 3.98581C10.1252 4.23102 9.93605 4.36589 9.52524 4.71225C9.31173 4.89309 9.01984 5.11378 8.87389 5.20267C8.382 5.50918 7.80092 5.91378 7.26038 6.32757C6.96308 6.55439 6.49552 6.89156 6.21984 7.07853C5.94416 7.2655 5.64687 7.4678 5.55768 7.53217C5.41443 7.63639 4.33335 8.136 4.13335 8.19117C4.06849 8.20957 4.05768 8.20343 4.05768 8.15133C4.05768 8.07163 4.08471 8.05018 4.35227 7.91838C4.6766 7.76206 5.36038 7.32374 5.782 7.00803C6.21714 6.677 6.25227 6.65554 6.42254 6.62796C6.60633 6.5973 6.70903 6.536 7.41443 6.01186C7.74957 5.76052 8.16308 5.46014 8.33335 5.34367C8.99822 4.88083 9.36849 4.58964 9.43335 4.47317C9.54687 4.28313 9.60633 4.21876 9.76578 4.12681C10.2766 3.83255 11.2334 3.14903 11.7306 2.71991C12.1334 2.37355 12.3901 2.19577 12.7901 1.99041C13.2469 1.75746 13.3739 1.72681 13.8685 1.72681C14.2279 1.72681 14.3306 1.73907 14.5982 1.80957C14.9225 1.89845 15.7279 1.98428 16.2063 1.98428C16.4766 1.98428 17.3658 2.08236 17.7306 2.1498C17.8577 2.17432 18.2009 2.22336 18.4901 2.26014C18.7793 2.29386 19.2117 2.36435 19.4496 2.4134C19.6874 2.46244 19.9982 2.51761 20.1388 2.536C20.2793 2.55746 20.582 2.6065 20.8117 2.64635C21.309 2.7383 21.7739 2.78428 22.2874 2.79347C22.6982 2.80267 22.8793 2.84865 22.9928 2.96819C23.0847 3.06627 23.0739 3.13064 22.9333 3.30229C22.7766 3.49232 22.4442 3.7498 21.9766 4.04405C21.7766 4.16972 21.4117 4.40267 21.1658 4.56512C20.9198 4.72451 20.4333 5.01876 20.0847 5.21799C19.7361 5.41723 19.2982 5.67163 19.1117 5.78504C18.9252 5.89845 18.5847 6.09769 18.355 6.22949C17.9333 6.47163 17.2198 6.92527 16.8415 7.19501C16.2144 7.63945 14.8117 8.47317 14.1117 8.81646C13.8361 8.94826 13.4739 9.12911 13.3036 9.21493C12.9739 9.38351 12.9658 9.38658 12.9901 9.3406Z" fill="#3E6087"/>
<path d="M16.0306 9.32518C16.0306 9.27921 16.1577 9.17499 16.236 9.1566C16.3198 9.13515 16.3279 9.13821 16.3279 9.19951C16.3279 9.24549 16.3036 9.28227 16.2604 9.30373C16.1901 9.34051 16.0306 9.35583 16.0306 9.32518V9.32518Z" fill="#3E6087"/>
<path d="M16.5712 8.96041C16.5712 8.91137 16.682 8.82861 16.7442 8.82861C16.8036 8.82861 16.8144 8.84087 16.809 8.89298C16.8036 8.94509 16.7793 8.96041 16.6874 8.96654C16.6225 8.97267 16.5712 8.96961 16.5712 8.96041Z" fill="#3E6087"/>
<path d="M16.9766 8.74594C16.9766 8.6969 17.0874 8.61414 17.1496 8.61414C17.209 8.61414 17.2198 8.6264 17.2144 8.6785C17.209 8.73061 17.1847 8.74594 17.0928 8.75207C17.0279 8.7582 16.9766 8.75513 16.9766 8.74594Z" fill="#3E6087"/>
<path d="M2.20631 8.58349C2.32793 8.43943 3.26848 7.7467 3.34145 7.7467C3.3955 7.7467 2.87658 8.16969 2.61712 8.33828C2.44956 8.44556 2.27929 8.55897 2.23334 8.58962C2.15226 8.64479 2.15226 8.64479 2.20631 8.58349Z" fill="#3E6087"/>
<path d="M17.4361 8.47626C17.4712 8.43641 17.5307 8.40269 17.5658 8.39963C17.6172 8.3935 17.628 8.40576 17.6199 8.46093C17.6144 8.5161 17.5928 8.53143 17.4901 8.53756C17.3685 8.54675 17.3685 8.54675 17.4361 8.47626Z" fill="#3E6087"/>
<path d="M18.1388 8.02256C18.1388 8.00723 18.1577 7.99191 18.1793 7.99191C18.2009 7.99191 18.2198 7.97352 18.2198 7.949C18.2198 7.90608 18.3793 7.82333 18.4036 7.85398C18.4117 7.86317 18.4334 7.85398 18.455 7.83559C18.482 7.808 18.4901 7.81719 18.4901 7.88156C18.4901 7.93674 18.4685 7.97352 18.409 8.00723C18.3198 8.05934 18.1388 8.06854 18.1388 8.02256V8.02256Z" fill="#3E6087"/>
<path d="M18.7604 7.61798C18.7955 7.57813 18.855 7.54442 18.8901 7.54135C18.9415 7.53522 18.9523 7.54748 18.9442 7.60265C18.9388 7.65783 18.9171 7.67315 18.8144 7.67928C18.6928 7.68848 18.6928 7.68848 18.7604 7.61798Z" fill="#3E6087"/>
<path d="M3.47931 7.62716C3.54687 7.5536 4.36309 6.95896 4.71985 6.71988C4.94417 6.57276 5.30904 6.31528 5.53066 6.15283C5.93877 5.85551 6.05769 5.77276 6.38201 5.57659C6.47931 5.51835 6.61174 5.43559 6.67931 5.39574C6.74687 5.35283 7.09823 5.1444 7.46309 4.93291C8.35228 4.42103 8.45498 4.3536 8.58201 4.2218C8.70904 4.09 9.13877 3.76509 9.53066 3.50149C9.67931 3.40341 9.9712 3.20724 10.1793 3.06318C10.3874 2.91912 10.655 2.73827 10.7739 2.65858C10.8928 2.58195 11.1198 2.42563 11.2739 2.31528C11.6496 2.05168 11.928 1.86164 12.1253 1.7421C12.2144 1.68693 12.3009 1.63176 12.3144 1.61643C12.3307 1.60417 12.3901 1.56126 12.4496 1.52448C12.509 1.4877 12.6766 1.38042 12.8198 1.28846C13.1604 1.07084 13.2874 1.03406 13.7117 1.03406C14.0171 1.03406 14.0766 1.04325 14.2388 1.11375C14.4036 1.18425 14.4469 1.19038 14.6523 1.17505C14.8739 1.15666 15.0847 1.18731 15.3685 1.27927C15.5334 1.33444 15.7631 1.36509 15.8793 1.3467C15.9793 1.33138 16.2334 1.36203 16.8009 1.45092C16.9496 1.47544 17.328 1.51528 17.6388 1.5398C18.1523 1.58272 18.6117 1.63482 19.1144 1.71145C19.2117 1.72678 19.4928 1.7513 19.7361 1.76662C20.1226 1.79115 20.4334 1.84019 20.9631 1.95666C21.0388 1.97199 21.1901 1.99957 21.3009 2.0149C21.4117 2.03023 21.5712 2.05781 21.6523 2.07314C21.7334 2.08846 21.8793 2.11605 21.9766 2.13444C22.0739 2.15283 22.2685 2.19574 22.409 2.22946C22.5496 2.26318 22.7198 2.30609 22.7874 2.32141C23.028 2.37659 23.655 2.56969 23.7009 2.59728C23.7253 2.61567 23.8009 2.64632 23.8685 2.66777C23.9901 2.70762 23.9901 2.70762 23.9793 2.84555C23.9658 3.06318 23.9171 3.15513 23.6766 3.40647C23.2009 3.90302 22.4874 4.4241 21.4388 5.03406C19.9171 5.92601 19.4415 6.21413 18.8685 6.59728C17.8847 7.25015 17.5334 7.47084 17.4604 7.47084C17.3712 7.47084 17.2144 7.38195 17.2334 7.34517C17.2847 7.25322 18.0901 6.76586 20.382 5.44172C21.309 4.90532 22.4415 4.14517 22.6739 3.90302C22.7388 3.83559 22.8144 3.72831 22.8442 3.66701C22.8712 3.60571 22.9793 3.46777 23.0847 3.36049C23.2604 3.18578 23.382 3.01413 23.382 2.9467C23.382 2.88846 23.1766 2.67697 23.0685 2.62486C22.9496 2.56356 22.1009 2.37046 21.6658 2.30609C21.5171 2.28157 21.1442 2.24785 20.8388 2.22946C20.5307 2.21413 20.1361 2.17735 19.9604 2.1559C18.6442 1.97505 17.928 1.8739 17.5009 1.80341C17.309 1.77276 16.8955 1.72984 16.582 1.71145C15.3928 1.64095 14.9712 1.59804 14.6793 1.52141C14.0955 1.36509 13.4198 1.38042 12.9901 1.55207C12.409 1.78808 12.0577 2.00877 11.4766 2.50532C11.0307 2.8854 10.8361 3.02946 10.2198 3.44632C9.64417 3.83559 9.41985 3.96739 9.14687 4.0808C8.89012 4.18195 8.7766 4.24938 8.43606 4.49766C8.27931 4.61107 7.96309 4.8195 7.73336 4.96663C6.74417 5.58578 6.22255 5.92295 5.62525 6.32141C5.22525 6.58808 4.93606 6.75973 4.84147 6.78731C4.69552 6.83329 4.14417 7.17659 3.71444 7.4923C3.51444 7.63942 3.41174 7.69766 3.47931 7.62716V7.62716Z" fill="#3E6087"/>
<path d="M19.0928 7.43709C19.1171 7.42176 19.1388 7.38498 19.1388 7.35739C19.1388 7.32674 19.155 7.31448 19.1874 7.32368C19.2225 7.33594 19.2523 7.30529 19.2955 7.22253C19.3307 7.15509 19.3739 7.10299 19.3928 7.10299C19.4144 7.10299 19.4361 7.08153 19.4469 7.05701C19.455 7.03249 19.4901 7.01103 19.5225 7.01103C19.5928 7.00797 19.6793 6.9436 19.6793 6.89149C19.6793 6.8731 19.7063 6.85778 19.7415 6.85778C19.809 6.85471 19.8955 6.79034 19.8955 6.74437C19.8955 6.72598 19.9334 6.70452 19.9793 6.69839C20.0523 6.68613 20.0604 6.69226 20.0523 6.76276C20.0442 6.83019 20.0279 6.84245 19.9442 6.85165C19.8658 6.85778 19.8415 6.87617 19.8415 6.91908C19.8415 6.98038 19.7901 7.01103 19.6928 7.01103C19.6469 7.01103 19.6252 7.02942 19.6198 7.08153C19.6144 7.12444 19.5901 7.15203 19.5523 7.15816C19.5198 7.16429 19.482 7.20414 19.4631 7.25931C19.4388 7.32061 19.4117 7.3482 19.3685 7.3482C19.3307 7.3482 19.3009 7.36965 19.2928 7.4095C19.282 7.45854 19.2577 7.4708 19.1604 7.4708C19.0685 7.46774 19.055 7.46161 19.0928 7.43709V7.43709Z" fill="#3E6087"/>
<path d="M20.4523 6.41334C20.4793 6.38882 20.4928 6.36736 20.4766 6.3643C20.4631 6.36123 20.4847 6.35204 20.5279 6.33978C20.5739 6.33058 20.6036 6.30913 20.5982 6.29073C20.5928 6.27541 20.6225 6.25089 20.6685 6.24169C20.7117 6.2325 20.7442 6.21104 20.7415 6.18959C20.736 6.16813 20.7577 6.1528 20.7901 6.1528C20.8631 6.1528 20.955 6.09457 20.936 6.06085C20.9279 6.04552 20.955 6.02407 20.9955 6.01487C21.1171 5.98422 21.1982 5.94131 21.182 5.91066C21.1685 5.88614 21.2793 5.82483 21.4496 5.76353C21.4955 5.74821 21.5279 5.71756 21.5225 5.69916C21.5198 5.67771 21.5523 5.65319 21.5982 5.64399C21.6415 5.63173 21.6712 5.61334 21.6631 5.59801C21.6577 5.58269 21.6847 5.5643 21.7252 5.55204C21.8523 5.52139 21.8712 5.51219 21.855 5.48154C21.8469 5.46621 21.8712 5.44782 21.909 5.44169C21.9469 5.43556 21.9766 5.42024 21.9739 5.40491C21.9712 5.36507 22.036 5.32522 22.1063 5.32522C22.1415 5.32522 22.1658 5.30683 22.1658 5.27924C22.1658 5.25472 22.1982 5.22713 22.2415 5.21487C22.3874 5.17809 22.409 5.16583 22.409 5.12598C22.409 5.10453 22.4469 5.08001 22.4928 5.07388C22.5658 5.06162 22.5739 5.06775 22.5658 5.13824C22.5604 5.20261 22.5415 5.221 22.4739 5.22713C22.4171 5.23326 22.382 5.25472 22.3739 5.29457C22.3658 5.32828 22.3252 5.362 22.2847 5.37426C22.2415 5.38652 22.1847 5.4233 22.155 5.45395C22.1252 5.4846 22.0793 5.50913 22.0523 5.50913C22.0252 5.50913 22.0036 5.52445 22.0036 5.53978C22.0036 5.55817 21.9739 5.57043 21.936 5.57043C21.8982 5.57043 21.8685 5.58882 21.8685 5.61028C21.8685 5.66238 21.6387 5.81564 21.5577 5.81564C21.5198 5.81564 21.4901 5.83403 21.4901 5.85549C21.4901 5.90759 21.2928 6.0302 21.209 6.0302C21.1685 6.0302 21.1387 6.04552 21.1387 6.06392C21.1387 6.11909 21.0523 6.18039 20.9739 6.18346C20.9252 6.18346 20.8982 6.20491 20.8874 6.24476C20.8793 6.28154 20.8496 6.30606 20.8171 6.30606C20.7847 6.30606 20.7604 6.32139 20.7604 6.33671C20.7604 6.3551 20.7306 6.36736 20.6928 6.36736C20.6496 6.36736 20.6252 6.38575 20.6252 6.41334C20.6252 6.44706 20.5955 6.45932 20.5117 6.45932C20.4063 6.45932 20.4036 6.45625 20.4523 6.41334V6.41334Z" fill="#3E6087"/>
<path d="M13.1523 15.7743C13.1415 15.756 13.1009 15.7529 13.0577 15.7621C13.0172 15.7713 12.9739 15.7682 12.9658 15.7529C12.9577 15.7345 12.9009 15.7284 12.8388 15.7376C12.7766 15.7468 12.7199 15.7406 12.709 15.7253C12.6847 15.6793 12.2199 15.6456 12.2199 15.6885C12.2199 15.71 12.1955 15.7161 12.1604 15.7069C12.128 15.6947 11.9793 15.7039 11.8334 15.7222C11.6496 15.7468 11.5523 15.7498 11.5226 15.7284C11.4982 15.71 11.3955 15.7008 11.2955 15.71C11.1604 15.7192 11.1117 15.713 11.1117 15.6855C11.1117 15.6548 11.0739 15.6517 10.9658 15.6671C10.8766 15.6763 10.8117 15.6732 10.8009 15.6548C10.7928 15.6395 10.7658 15.6242 10.7415 15.6242C10.7172 15.6242 10.6847 15.6027 10.6658 15.5751C10.6226 15.5046 10.3172 15.4954 10.3117 15.5629C10.309 15.5874 10.3063 15.6272 10.3036 15.6487C10.2982 15.7345 10.0442 15.6395 10.0442 15.5475C10.0442 15.523 10.0361 15.5016 10.0253 15.5016C9.91715 15.5016 9.89553 15.5077 9.89553 15.5475C9.89553 15.5721 9.88742 15.5904 9.87661 15.5874C9.8631 15.5874 9.83337 15.5935 9.80634 15.6088C9.77931 15.6211 9.74418 15.615 9.71985 15.5935C9.69823 15.5751 9.6685 15.5659 9.65229 15.5782C9.63607 15.5904 9.60634 15.5812 9.58472 15.5629C9.5631 15.5445 9.53337 15.5353 9.51715 15.5475C9.50093 15.5598 9.4712 15.5506 9.44958 15.5322C9.42796 15.5138 9.39823 15.5046 9.38202 15.5169C9.3658 15.5291 9.33066 15.5169 9.30364 15.4893C9.27661 15.4617 9.20093 15.4311 9.13607 15.4249C9.0712 15.4157 8.97391 15.4004 8.92256 15.3912C8.8712 15.382 8.74958 15.3698 8.65228 15.3636C8.55499 15.3575 8.40904 15.3452 8.32796 15.336C8.24688 15.3268 8.13337 15.3207 8.07931 15.3176C8.02526 15.3176 7.97391 15.3054 7.9658 15.2901C7.95769 15.2747 7.92526 15.2686 7.89553 15.2778C7.8658 15.287 7.82526 15.2778 7.80634 15.2594C7.78472 15.241 7.76309 15.2349 7.75499 15.241C7.74688 15.2502 7.70634 15.241 7.6631 15.2226C7.61985 15.2012 7.57391 15.1828 7.55769 15.1828C7.49823 15.1736 7.33877 15.1245 7.31445 15.1092C7.25769 15.0694 6.91715 15.0081 6.4631 14.9529C6.29282 14.9314 6.06039 14.9008 5.94958 14.8824C5.83877 14.864 5.71985 14.8456 5.68742 14.8425C5.65769 14.8364 5.60904 14.8272 5.57931 14.815C5.55228 14.8058 5.47661 14.7904 5.40904 14.7812C5.34147 14.769 5.27391 14.7475 5.25769 14.7322C5.24147 14.7169 5.22255 14.7138 5.21445 14.7199C5.20634 14.7291 5.1658 14.7199 5.12255 14.7016C5.07931 14.6801 5.03336 14.6617 5.01715 14.6586C5.00364 14.6556 4.98472 14.6494 4.97661 14.6464C4.9685 14.6402 4.92796 14.6311 4.88472 14.6249C4.84147 14.6157 4.78472 14.5973 4.76309 14.5851C4.73877 14.5698 4.59282 14.5422 4.43607 14.5207C4.27931 14.5023 4.09282 14.4717 4.02255 14.4563C3.8658 14.4226 3.73336 14.4196 3.73336 14.4533C3.73336 14.4655 3.64418 14.4717 3.53877 14.4686C3.43066 14.4655 3.34147 14.4625 3.34147 14.4563C3.34147 14.4502 3.27931 14.438 3.14418 14.4134C3.09823 14.4042 3.02526 14.392 2.98201 14.3828C2.7712 14.346 2.71445 14.3368 2.66039 14.3368C2.62796 14.3368 2.59282 14.3215 2.58472 14.3061C2.57661 14.2878 2.53877 14.2847 2.50093 14.2939C2.4658 14.3031 2.41715 14.297 2.39553 14.2755C2.3739 14.2571 2.33336 14.2479 2.30093 14.2602C2.2685 14.2724 2.23066 14.2663 2.21174 14.251C2.19282 14.2357 2.13336 14.2142 2.07661 14.2019C1.95499 14.1774 1.94688 14.159 1.8685 13.7023C1.72255 12.8686 1.78742 11.7437 2.00904 11.1644C2.0658 11.0142 2.13336 10.8334 2.15769 10.7659C2.18201 10.6985 2.24688 10.5789 2.30363 10.4993C2.36309 10.4196 2.40904 10.346 2.41174 10.3307C2.41445 10.2816 2.70634 10.015 2.77661 9.99657C2.81445 9.98431 2.89823 9.99657 2.95769 10.018C3.07931 10.064 3.52255 10.064 3.66309 10.0211C3.7712 9.98737 4.16309 10.0609 4.20363 10.1222C4.22526 10.156 4.30093 10.1743 4.4712 10.1897C4.67931 10.205 4.70634 10.2019 4.70634 10.156C4.70634 10.1161 4.73877 10.0977 4.81445 10.1008C4.82255 10.1008 4.92526 10.11 5.04418 10.1222C5.16309 10.1376 5.29282 10.1498 5.33607 10.1529C5.37661 10.156 5.42796 10.1621 5.44958 10.1652C5.4712 10.1652 5.49012 10.1958 5.49012 10.2295C5.49012 10.2847 5.50904 10.2908 5.6658 10.2908C5.76309 10.2908 5.84147 10.2786 5.84147 10.2632C5.84147 10.2295 5.99553 10.2019 6.02255 10.2326C6.03607 10.2418 6.22796 10.2755 6.44958 10.3031C6.67391 10.3337 6.89823 10.3675 6.94958 10.3828C7.10093 10.4288 7.44958 10.4594 8.03337 10.4839C8.20634 10.4901 8.36039 10.5054 8.37661 10.5146C8.39012 10.5268 8.51174 10.5391 8.64688 10.5483C8.78201 10.5544 8.90364 10.5667 8.91715 10.5789C8.93337 10.5881 8.95228 10.5789 8.95769 10.5606C8.9658 10.5391 8.97391 10.536 8.97391 10.5514C8.97661 10.5698 9.02796 10.5789 9.09823 10.5728C9.17391 10.5636 9.21985 10.5728 9.21985 10.5943C9.21985 10.6372 9.34688 10.6402 9.3685 10.5973C9.38742 10.5636 9.52256 10.5912 9.54688 10.6341C9.55499 10.6494 9.65499 10.6525 9.7685 10.6433C9.95769 10.628 9.97661 10.6311 9.97661 10.6801C9.97661 10.7138 9.94418 10.7506 9.89553 10.772C9.83607 10.7966 9.81445 10.8272 9.81445 10.8793C9.81445 10.9192 9.79823 10.9805 9.77661 11.0142C9.74147 11.0663 9.70364 11.0724 9.41715 11.0724C9.05499 11.0724 7.41174 11.0081 6.62526 10.9621C6.33607 10.9468 5.74688 10.9192 5.31445 10.9038C4.75499 10.8855 4.4712 10.8609 4.32796 10.8272C4.00093 10.7445 3.97931 10.7414 4.10363 10.8088C4.22255 10.8701 4.26039 10.9498 4.24147 11.0908C4.23607 11.146 4.19823 11.1766 4.0712 11.2288C3.98201 11.2655 3.87391 11.3176 3.82796 11.3452C3.78472 11.3728 3.70904 11.3943 3.66309 11.3943C3.55769 11.3943 3.52526 11.4372 3.50093 11.5966C3.48472 11.71 3.49012 11.7253 3.58201 11.805C3.66039 11.8724 3.67931 11.9092 3.67931 11.995C3.67931 12.0993 3.67931 12.0993 3.55228 12.0993C3.44418 12.0993 3.40363 12.1207 3.24147 12.2586C3.05769 12.418 3.05769 12.418 3.13877 12.51C3.21985 12.6019 3.21985 12.6019 3.66039 12.5927C4.19553 12.5835 4.30363 12.6081 4.3658 12.7552C4.39012 12.8134 4.40904 12.9023 4.40904 12.9544C4.40904 13.0494 4.40904 13.0494 4.57931 13.0494C4.89823 13.0494 4.93877 13.0678 5.05769 13.2671C5.1712 13.4571 5.19823 13.6104 5.12255 13.6441C5.05769 13.6717 4.90364 13.6655 4.52526 13.6196C4.33607 13.595 4.02796 13.5583 3.84147 13.5399C3.65499 13.5215 3.35769 13.4847 3.18201 13.4602C3.00363 13.4387 2.85228 13.4234 2.84688 13.4326C2.84147 13.4387 2.84147 13.4786 2.85228 13.5184C2.8712 13.6073 2.95499 13.6502 3.20093 13.6931C3.40093 13.7268 3.48201 13.7698 3.50634 13.8525C3.51445 13.8801 3.57661 13.9445 3.64688 13.9935C3.71715 14.0425 3.81174 14.1222 3.85499 14.1713C3.92796 14.251 3.9712 14.2694 4.24688 14.3184C4.62255 14.3828 4.81985 14.4288 4.85499 14.4594C4.94688 14.536 5.90364 14.7445 6.32796 14.7812C6.80093 14.8211 7.17931 14.8947 7.50364 15.0173C7.83877 15.1429 7.81445 15.1399 8.77391 15.2257C8.9685 15.241 9.24147 15.2686 9.38202 15.287C9.52256 15.3023 9.77931 15.3176 9.94958 15.3176C10.1199 15.3207 10.328 15.333 10.409 15.3483C10.5307 15.3667 10.5712 15.3606 10.6388 15.3176C10.8307 15.1889 10.9793 15.1552 11.4901 15.1307C11.7658 15.1184 12.028 15.0939 12.0766 15.0724C12.1577 15.0387 12.1604 15.0357 12.1334 14.9253C12.082 14.7107 12.155 14.0947 12.2658 13.8219C12.3253 13.6747 12.3307 13.6226 12.3172 13.4632C12.309 13.3621 12.2901 12.9789 12.2739 12.6111C12.2496 11.946 12.2496 11.946 12.0982 11.6947C12.0172 11.5598 11.9415 11.4096 11.9334 11.3667C11.9253 11.3238 11.9117 11.2655 11.9063 11.2379C11.8982 11.1981 11.8334 11.1797 11.6496 11.1521C11.3009 11.1 11.1658 11.0142 11.1658 10.8395C11.1658 10.7751 11.1577 10.7782 12.1658 10.7629C12.3523 10.7598 12.7631 10.7445 13.0793 10.7291C13.6523 10.7046 13.6523 10.7046 13.6523 10.772C13.6523 10.8211 13.6172 10.864 13.5307 10.9222C13.4063 11.005 13.3172 11.0081 13.0658 10.9498C12.9496 10.9222 12.9199 10.9958 13.0009 11.1184C13.082 11.2471 13.0793 11.4586 12.9928 11.5874C12.9253 11.6855 12.9253 11.6855 12.9901 11.756C13.0712 11.8448 13.0955 11.9858 13.0766 12.2525C13.0658 12.415 13.0712 12.4763 13.109 12.5468C13.2117 12.746 13.2739 12.9667 13.2739 13.1445C13.2739 13.3008 13.2658 13.3314 13.209 13.3713C13.1117 13.4448 13.1036 13.5031 13.1793 13.6073C13.2307 13.6747 13.2469 13.733 13.2469 13.8372C13.2469 13.9598 13.2334 13.9904 13.1496 14.0732C13.0658 14.159 13.0523 14.1927 13.028 14.3889C13.0063 14.5667 13.009 14.628 13.0442 14.723C13.0658 14.7843 13.0847 14.864 13.0847 14.9008C13.0847 14.9376 13.1036 14.9958 13.1253 15.0357C13.182 15.1245 13.2063 15.382 13.1685 15.4648C13.1415 15.5199 13.1496 15.5322 13.2307 15.5629C13.482 15.6548 13.9739 15.6517 14.0334 15.5537C14.0442 15.5383 14.1063 15.5169 14.1766 15.5107C14.2442 15.5016 14.3009 15.4832 14.3009 15.474C14.3009 15.4617 14.4523 15.4188 14.6388 15.3789C14.8253 15.336 14.9766 15.2931 14.9766 15.2809C14.9766 15.2655 14.9928 15.2563 15.0117 15.2563C15.0307 15.2563 15.155 15.192 15.2874 15.1153C15.4226 15.0387 15.6226 14.9314 15.7307 14.8824C15.8415 14.8303 16.028 14.7353 16.1415 14.6709C16.282 14.5912 16.3847 14.5514 16.4604 14.5514C16.5604 14.5514 16.5712 14.5452 16.5712 14.4747C16.5712 14.4134 16.5847 14.3981 16.6388 14.3981C16.682 14.3981 16.7063 14.3797 16.7063 14.3521C16.7063 14.3276 16.7199 14.3061 16.7361 14.3061C16.7523 14.3061 16.782 14.2847 16.8036 14.2602C16.828 14.2357 16.8739 14.2142 16.9117 14.2142C16.9523 14.2142 16.9766 14.1958 16.9766 14.1682C16.9766 14.1406 17.0009 14.1222 17.0442 14.1222C17.0874 14.1222 17.1117 14.1039 17.1117 14.0763C17.1117 14.0456 17.1415 14.0303 17.2063 14.0303C17.2577 14.0303 17.3009 14.0395 17.3009 14.0548C17.3009 14.0671 17.2009 14.1437 17.0793 14.2265C16.955 14.3092 16.8496 14.3889 16.8415 14.3981C16.8334 14.4104 16.8009 14.4288 16.7658 14.441C16.7334 14.4533 16.7117 14.4747 16.7199 14.4901C16.728 14.5054 16.6712 14.5391 16.5955 14.5667C16.5226 14.5943 16.4658 14.628 16.4739 14.6372C16.4982 14.6617 16.3523 14.7659 16.2955 14.7659C16.2685 14.7659 16.2469 14.7782 16.2469 14.7904C16.2469 14.8211 15.7712 15.1061 15.755 15.0847C15.7415 15.0724 15.5577 15.1583 15.2496 15.3238C15.1523 15.3759 15.0388 15.4188 14.9982 15.4157C14.9577 15.4157 14.9226 15.4249 14.9226 15.4402C14.9226 15.4525 14.8982 15.4586 14.8685 15.4494C14.8388 15.4402 14.8144 15.4494 14.8144 15.4678C14.8144 15.4832 14.7955 15.4924 14.7739 15.4832C14.7523 15.474 14.7199 15.477 14.7009 15.4893C14.682 15.5046 14.6388 15.5107 14.6063 15.5046C14.5712 15.5016 14.5442 15.5107 14.5442 15.5291C14.5442 15.5506 14.5172 15.5567 14.4766 15.5445C14.4388 15.5353 14.409 15.5383 14.409 15.5506C14.409 15.5659 14.3712 15.5812 14.3226 15.5812C14.2739 15.5843 14.2307 15.5996 14.2253 15.6211C14.2199 15.6395 14.182 15.6548 14.1388 15.6548C14.0982 15.6548 14.0496 15.6732 14.0334 15.6977C14.0144 15.7222 13.9766 15.7345 13.9496 15.7253C13.9199 15.7161 13.8955 15.7253 13.8955 15.7437C13.8955 15.759 13.8766 15.7682 13.8523 15.756C13.8307 15.7468 13.7793 15.756 13.7442 15.7805C13.6928 15.8081 13.6631 15.8111 13.6307 15.7866C13.5982 15.7652 13.5361 15.7621 13.4496 15.7805C13.2604 15.8142 13.1712 15.8142 13.1523 15.7743V15.7743Z" fill="#97776F"/>
<path d="M17.328 13.9353C17.328 13.8679 17.3415 13.8464 17.382 13.8464C17.4118 13.8464 17.4361 13.825 17.4361 13.8005C17.4361 13.7759 17.455 13.7545 17.4766 13.7545C17.4982 13.7545 17.5172 13.7422 17.5172 13.73C17.5172 13.6962 17.6415 13.6319 17.7064 13.6319C17.7361 13.6319 17.7604 13.6135 17.7604 13.589C17.7604 13.5338 17.8199 13.5093 17.9523 13.5093C18.0469 13.5093 18.0577 13.5001 18.0577 13.4326C18.0577 13.3713 18.0712 13.356 18.1253 13.356C18.1685 13.356 18.1928 13.3376 18.1928 13.31C18.1928 13.2855 18.2118 13.2641 18.2334 13.2641C18.255 13.2641 18.2739 13.2518 18.2739 13.2334C18.2739 13.2181 18.328 13.2028 18.3955 13.2028C18.4631 13.2028 18.5172 13.2181 18.5172 13.2334C18.5172 13.2518 18.4928 13.2641 18.4604 13.2641C18.4307 13.2641 18.4118 13.2763 18.4199 13.2916C18.428 13.3039 18.3901 13.3438 18.3334 13.3744C18.2793 13.4051 18.2307 13.4418 18.2253 13.4541C18.2199 13.4664 18.155 13.497 18.082 13.5246C18.0091 13.5522 17.955 13.5859 17.9631 13.5982C17.9766 13.6257 17.8604 13.6932 17.7982 13.6932C17.7766 13.6932 17.7631 13.7054 17.7712 13.7177C17.7793 13.733 17.7226 13.7759 17.6442 13.8158C17.5658 13.8556 17.4901 13.9108 17.4712 13.9415C17.4523 13.969 17.4118 13.9997 17.382 14.0089C17.3361 14.0212 17.328 14.0089 17.328 13.9353V13.9353Z" fill="#97776F"/>
<path d="M18.5982 13.0739C18.5982 13.0034 18.6226 12.9513 18.7009 12.8747C18.8658 12.703 19.1145 12.559 19.2415 12.559C19.3036 12.559 19.355 12.5682 19.355 12.5835C19.3523 12.6172 19.1361 12.7919 19.0307 12.844C18.9307 12.8931 18.8388 12.9666 18.7658 13.0586C18.7415 13.0862 18.6982 13.1107 18.6712 13.1107C18.6442 13.1107 18.6307 13.126 18.6388 13.1413C18.6469 13.1597 18.6415 13.172 18.628 13.172C18.6117 13.172 18.5982 13.1291 18.5982 13.0739Z" fill="#97776F"/>
<path d="M19.4901 12.3598C19.4901 12.2985 19.5171 12.1912 19.5523 12.1207C19.5847 12.0502 19.6171 11.9245 19.6252 11.8387C19.6388 11.6701 19.6117 11.7008 20.2604 11.1766C20.3658 11.0939 20.5279 10.956 20.6252 10.8701C20.7225 10.7843 20.8847 10.6617 20.982 10.6004C21.1063 10.5238 21.2171 10.4196 21.3415 10.2632C21.5658 9.97818 21.7712 9.82492 21.9144 9.83718C22.009 9.84638 22.0171 9.85557 22.0252 9.94446C22.0307 10.018 22.0036 10.0916 21.9117 10.251C21.8063 10.4318 21.7955 10.4594 21.8415 10.4686C21.9658 10.4931 22.2252 10.2755 22.3685 10.0303C22.4928 9.82186 22.7523 9.61649 22.8955 9.61649C22.9604 9.61649 22.9766 9.60423 22.9766 9.55212C22.9766 9.51841 22.9577 9.46937 22.9361 9.44484C22.8928 9.3958 22.8793 9.15672 22.9198 9.15672C22.9334 9.15672 22.9496 9.11687 22.9604 9.06477C22.9739 8.98201 22.9874 8.97281 23.0712 8.97281C23.1361 8.97281 23.1658 8.95749 23.1658 8.92684C23.1658 8.90232 23.1901 8.88086 23.2198 8.88086C23.255 8.88086 23.2685 8.89619 23.2577 8.92684C23.2469 8.95749 23.2577 8.97281 23.2955 8.97281C23.3279 8.97281 23.3604 8.98814 23.3685 9.00346C23.3928 9.04638 23.2901 9.04025 23.2523 8.99733C23.2279 8.96975 23.2036 8.97894 23.1523 9.03412C23.055 9.13833 23.0279 9.2732 23.082 9.38661C23.1469 9.53067 23.1496 9.52454 22.9739 9.74216C22.9198 9.80653 22.855 9.8617 22.8307 9.8617C22.8063 9.8617 22.7874 9.87396 22.7874 9.88929C22.7874 9.90461 22.7577 9.92607 22.7198 9.93527C22.682 9.94753 22.6523 9.96898 22.6523 9.98431C22.6523 10.0027 22.6415 10.015 22.6252 10.015C22.5847 10.015 22.4901 10.1161 22.5063 10.1437C22.5144 10.156 22.5063 10.1682 22.4901 10.1682C22.4739 10.1682 22.4685 10.1835 22.4766 10.1989C22.4847 10.2173 22.4793 10.2295 22.4604 10.2295C22.4415 10.2295 22.4361 10.2387 22.4442 10.251C22.4685 10.2755 22.3847 10.3828 22.3415 10.3828C22.3225 10.3828 22.3009 10.4042 22.2901 10.4288C22.282 10.4533 22.2604 10.4747 22.2415 10.4747C22.2225 10.4747 22.1901 10.5023 22.1712 10.536C22.1523 10.5697 22.1198 10.5973 22.0982 10.5973C22.0766 10.5973 22.0577 10.6188 22.0577 10.6433C22.0577 10.6678 22.0334 10.6893 22.0063 10.6893C21.9766 10.6893 21.9496 10.7046 21.9442 10.723C21.9388 10.7383 21.8685 10.7659 21.7874 10.7782C21.6388 10.7996 21.5361 10.8487 21.4685 10.9253C21.4496 10.9468 21.409 10.9652 21.3793 10.9652C21.3496 10.9652 21.3334 10.9805 21.3415 10.9958C21.3496 11.0142 21.3334 11.0265 21.3009 11.0265C21.2685 11.0265 21.2523 11.0418 21.2604 11.0571C21.2685 11.0755 21.2523 11.0878 21.2198 11.0878C21.1874 11.0878 21.1712 11.1031 21.1793 11.1184C21.1874 11.1368 21.1712 11.1491 21.1388 11.1491C21.1063 11.1491 21.0901 11.1644 21.0982 11.1797C21.1063 11.1981 21.0982 11.2104 21.0766 11.2104C21.055 11.2104 21.0307 11.2288 21.0225 11.2502C21.0171 11.2717 20.9604 11.3176 20.8982 11.3483C20.8388 11.382 20.7874 11.4188 20.7874 11.4341C20.7874 11.4464 20.7631 11.4556 20.7307 11.4556C20.7009 11.4556 20.6847 11.4709 20.6928 11.4862C20.7009 11.5046 20.6847 11.5169 20.6523 11.5169C20.6198 11.5169 20.6009 11.5291 20.609 11.5445C20.628 11.5751 20.3469 11.7927 20.2874 11.7927C20.2658 11.7927 20.2496 11.8081 20.255 11.8295C20.2577 11.8479 20.2307 11.8755 20.1928 11.8878C20.155 11.9 20.1361 11.9092 20.1469 11.9123C20.1901 11.9184 19.9685 12.1299 19.8198 12.2249C19.7334 12.277 19.6252 12.3537 19.5793 12.3966C19.4901 12.4701 19.4901 12.4701 19.4901 12.3598V12.3598Z" fill="#97776F"/>
<path d="M10.5388 10.821C10.509 10.8118 10.4901 10.7781 10.4901 10.7321C10.4901 10.6739 10.5009 10.6585 10.5388 10.6708C10.5631 10.68 10.6361 10.7015 10.7009 10.7198C10.7685 10.7382 10.8144 10.772 10.8144 10.7965C10.8144 10.8302 10.7847 10.8424 10.7009 10.8394C10.6361 10.8363 10.5631 10.8302 10.5388 10.821Z" fill="#97776F"/>
<path d="M14.1388 10.4839C14.1415 10.4195 14.4766 10.1529 14.5171 10.1835C14.5307 10.1927 14.5442 10.1804 14.5442 10.1529C14.5442 10.1283 14.5766 10.0915 14.6144 10.0762C14.7063 10.0364 14.7063 10.0364 14.7063 10.1161C14.7063 10.254 14.3928 10.5053 14.2198 10.5053C14.1766 10.5053 14.1388 10.4961 14.1388 10.4839Z" fill="#97776F"/>
<path d="M15.4091 9.66249C15.4091 9.62264 15.5172 9.53069 15.582 9.51843C15.6415 9.50617 15.6523 9.5123 15.6523 9.57054C15.6523 9.61038 15.6334 9.65023 15.6091 9.65942C15.5577 9.68088 15.4091 9.68394 15.4091 9.66249Z" fill="#97776F"/>
<path d="M16.3361 9.12299C16.3604 9.10766 16.382 9.07088 16.382 9.04942C16.382 9.0249 16.4036 9.00345 16.4307 9.00345C16.4577 9.00345 16.4928 8.98812 16.5117 8.96666C16.5361 8.93908 16.5442 8.95134 16.5442 9.0249C16.5442 9.12912 16.509 9.1567 16.3739 9.1567C16.3009 9.15364 16.2955 9.15057 16.3361 9.12299V9.12299Z" fill="#97776F"/>
<path d="M19.2225 7.33602C19.2577 7.29311 19.3009 7.25632 19.3144 7.25632C19.3307 7.25632 19.3604 7.21648 19.3847 7.16743C19.409 7.12146 19.455 7.07242 19.4874 7.06322C19.5388 7.04789 19.5469 7.05709 19.5388 7.12759C19.5334 7.17663 19.5063 7.22261 19.4712 7.241C19.4388 7.25632 19.409 7.29924 19.4036 7.33295C19.3982 7.38199 19.3712 7.39732 19.2766 7.40345C19.1577 7.41265 19.1577 7.41265 19.2225 7.33602V7.33602Z" fill="#97776F"/>
<path d="M13.4225 15.7498C13.4144 15.7345 13.3685 15.713 13.3198 15.7008C13.209 15.6763 12.9766 15.5935 12.9766 15.5782C12.9766 15.572 13.0063 15.5138 13.0442 15.4525C13.1144 15.336 13.1144 15.241 13.0415 15.1184C13.0198 15.0847 13.0036 15.0326 13.0036 14.9989C13.0036 14.9651 12.982 14.8763 12.9577 14.8027C12.9198 14.6862 12.9171 14.6249 12.9415 14.3736C12.9685 14.0885 12.9712 14.0763 13.0685 13.9812C13.1225 13.9291 13.1658 13.8648 13.1658 13.8372C13.1658 13.8096 13.1307 13.7391 13.0847 13.6839C12.9766 13.5429 12.9793 13.4448 13.0982 13.3161C13.2334 13.1659 13.2253 13.077 13.0253 12.6387C12.9469 12.464 12.9442 12.4487 12.9766 12.2954C13.0225 12.0778 12.9955 11.9399 12.882 11.8172C12.8307 11.7621 12.7874 11.7069 12.7874 11.6916C12.7874 11.6763 12.8307 11.6058 12.882 11.5353C12.9955 11.3789 12.9982 11.3299 12.909 11.1981C12.8361 11.0908 12.8253 10.9989 12.8685 10.9008C12.9036 10.8333 13.0928 10.8211 13.2361 10.8793C13.3171 10.913 13.3361 10.9038 13.509 10.7874C13.6685 10.677 13.8577 10.5759 14.3144 10.3582C14.3739 10.3307 14.4928 10.2356 14.5766 10.1498C14.7469 9.97817 14.9847 9.82798 15.4496 9.60116C15.8631 9.39886 16.3225 9.13526 16.4361 9.03411C16.555 8.92683 17.2415 8.56514 17.3144 8.56821C17.3442 8.57127 17.409 8.62031 17.4577 8.67855C17.5253 8.76438 17.5442 8.81648 17.5442 8.90844C17.5442 9.04943 17.4982 9.11074 17.3361 9.1935C17.1496 9.28545 16.9766 9.29771 16.8955 9.22415C16.828 9.16284 16.828 9.16284 16.6658 9.23334C16.3685 9.35901 16.1253 9.51533 16.0496 9.62874C16.009 9.68698 15.9496 9.74522 15.9171 9.75441C15.8009 9.79426 14.9901 10.2264 14.6874 10.4104C14.2631 10.6648 14.1253 10.7782 14.4415 10.6127C14.6036 10.5268 14.8171 10.5115 14.8658 10.5789C14.9009 10.628 15.0604 10.5697 16.1117 10.1314C16.3712 10.0211 16.7361 9.87089 16.9225 9.79733C17.1063 9.72376 17.3253 9.61648 17.409 9.56131C17.6496 9.39579 17.9847 9.24867 18.1225 9.24867C18.209 9.24867 18.4496 9.16591 18.928 8.97281C19.7847 8.62644 19.728 8.65403 19.7766 8.52836C19.8225 8.40269 19.8847 8.35978 20.0225 8.35978C20.155 8.35978 20.1928 8.40269 20.1928 8.54982C20.1928 8.6571 20.182 8.67549 20.0469 8.77357C19.9388 8.8502 19.8928 8.90844 19.8685 8.98813C19.8307 9.11687 19.7496 9.18736 19.6388 9.18736C19.5577 9.18736 19.4766 9.23947 19.2063 9.46016C19.1036 9.54292 19.0415 9.56744 18.8739 9.5889C18.528 9.63794 17.8171 9.89848 17.4766 10.1038C17.3739 10.1682 17.1469 10.2908 16.9766 10.3766C16.5712 10.5851 16.4739 10.6525 16.5144 10.6985C16.5307 10.7169 16.5442 10.7782 16.5442 10.8364C16.5442 10.9529 16.5225 10.9559 16.882 10.8058C17.0523 10.7353 17.1361 10.7199 17.2766 10.7261C17.4361 10.7322 17.4685 10.723 17.5874 10.6372C17.7063 10.5513 18.7253 10.0701 19.109 9.91993C19.3928 9.80652 19.4712 9.84943 19.4577 10.11C19.4469 10.3123 19.4144 10.3429 18.955 10.5483C18.6063 10.7046 18.6063 10.7046 18.6685 10.7598C18.728 10.8088 18.7334 10.8364 18.7334 11.0694C18.7334 11.2717 18.7225 11.333 18.6874 11.3728C18.6117 11.4494 18.2009 11.6364 17.9307 11.7161C17.7928 11.7559 17.5712 11.854 17.4361 11.9307C17.2469 12.0379 17.1577 12.0686 17.0577 12.0686C16.9171 12.0686 16.8766 12.0349 16.8523 11.8939C16.8361 11.7989 16.8361 11.7989 16.6009 11.9061C15.4928 12.418 14.7171 12.7429 14.609 12.7429C14.4685 12.7429 14.409 12.6663 14.409 12.4885C14.409 12.3291 14.4442 12.2648 14.5793 12.1881C14.6415 12.1513 14.7361 12.0717 14.7874 12.0104C14.8658 11.9215 14.9847 11.854 15.409 11.6671C15.6982 11.5383 15.9847 11.4127 16.0442 11.3881C16.1442 11.3483 16.1523 11.336 16.1604 11.2165C16.1685 11.0939 16.1658 11.0877 16.0928 11.0877C15.909 11.0908 15.455 11.1797 15.3955 11.2226C15.3496 11.2563 15.328 11.3023 15.328 11.3605C15.328 11.4065 15.3063 11.4678 15.2766 11.4985C15.2496 11.5261 15.0523 11.6119 14.8388 11.6885C14.4982 11.8142 14.428 11.8295 14.282 11.8142C14.1874 11.8081 14.082 11.7774 14.0442 11.7498C14.009 11.7222 13.9523 11.7008 13.9198 11.7008C13.8658 11.7008 13.8658 11.71 13.882 11.8786C13.9253 12.3046 13.9253 12.792 13.8847 12.9268C13.8577 13.0157 13.8523 13.0801 13.8712 13.1291C13.8955 13.2027 13.8955 13.2027 14.0361 13.1138C14.1144 13.0648 14.2955 12.982 14.4361 12.933C14.828 12.792 16.3388 12.3751 16.455 12.3751C16.5117 12.3751 16.728 12.3414 16.9361 12.3015C17.3063 12.231 17.3144 12.228 17.3955 12.1176C17.4685 12.0195 17.5415 11.9797 17.9901 11.7897C18.2955 11.664 18.5658 11.569 18.6604 11.5567C18.8144 11.5383 18.8144 11.5383 18.8144 11.6456C18.8144 11.7437 18.8009 11.759 18.6144 11.8847C18.4144 12.0165 18.4144 12.0165 18.4307 12.1422C18.4469 12.2954 18.4469 12.2954 18.5117 12.2556C18.5442 12.2372 18.6063 12.2218 18.6577 12.2218C18.7198 12.2218 18.855 12.1483 19.128 11.9613C19.3415 11.8172 19.5198 11.7008 19.528 11.7008C19.5469 11.7008 19.882 11.4372 20.1739 11.195C20.2766 11.1092 20.4361 10.9651 20.5253 10.8732C20.6171 10.7782 20.7955 10.631 20.9225 10.5452C21.2117 10.346 21.3793 10.1835 21.4252 10.0579C21.4496 9.99043 21.4847 9.95671 21.5361 9.94445C21.6415 9.91993 22.0225 9.60116 22.0496 9.51533C22.0604 9.47855 22.0658 9.38966 22.0604 9.31916C22.0523 9.19349 22.0631 9.17817 22.2604 8.94215C22.4036 8.77051 22.4604 8.68162 22.4415 8.66016C22.4225 8.63871 22.3739 8.67855 22.282 8.78583C22.1712 8.91763 22.1334 8.94215 22.0523 8.94215C21.982 8.94215 21.9442 8.92376 21.9171 8.87472C21.8766 8.80729 21.8766 8.80729 21.7144 8.87472C21.6252 8.9115 21.5144 8.94215 21.4658 8.94215C21.3928 8.94215 21.382 8.92989 21.382 8.86246C21.382 8.68162 21.4658 8.45173 21.5631 8.36897C21.6955 8.25556 21.8712 7.95518 21.8388 7.89694C21.8253 7.87242 21.8144 7.79273 21.8144 7.71303C21.8144 7.59349 21.828 7.55978 21.909 7.47089C21.9928 7.37894 22.0334 7.28698 21.9874 7.28698C21.9793 7.28698 21.9361 7.3207 21.8901 7.36361C21.8009 7.44943 21.6928 7.46169 21.5523 7.40346C21.4712 7.36974 21.4631 7.35441 21.4631 7.241C21.4631 7.17051 21.4766 7.10001 21.4955 7.07855C21.5198 7.05097 21.5144 7.03871 21.482 7.02338C21.4523 7.01112 21.3171 7.08162 21.1009 7.22261C20.8685 7.37587 20.7117 7.45556 20.582 7.48928C20.0442 7.63028 19.8685 7.73449 19.8685 7.9092C19.8685 7.97664 19.8361 8.00116 19.5658 8.13296C19.209 8.30461 18.9604 8.34752 18.8685 8.2525C18.7982 8.17894 18.7955 7.96131 18.8631 7.89081C18.8901 7.86323 19.0442 7.7774 19.209 7.70077C19.7252 7.45556 19.728 7.4525 19.7388 7.32376C19.7469 7.21035 19.7523 7.20729 20.1225 6.98047C20.4604 6.7751 20.582 6.67395 20.4928 6.67395C20.4307 6.67395 19.5063 7.23487 19.4766 7.29005C19.4658 7.30537 19.4225 7.31763 19.3793 7.31763C19.2982 7.31763 19.2982 7.31763 19.355 7.22568C19.3874 7.17357 19.482 7.07855 19.5658 7.01418C19.7496 6.87319 20.7361 6.22031 21.2469 5.90154C21.9117 5.48468 22.582 5.0433 22.7766 4.89311C22.882 4.81035 22.9766 4.74292 22.9874 4.74292C23.028 4.74292 22.9009 4.95135 22.6388 5.32223C22.3577 5.71763 22.3442 5.76667 22.4793 5.86782C22.555 5.923 22.6252 6.05786 22.6252 6.14982C22.6252 6.18353 22.5901 6.23871 22.5442 6.27549C22.4496 6.35212 22.4415 6.43487 22.5063 6.6433C22.5307 6.71993 22.5496 6.85173 22.5496 6.93756C22.5469 7.07549 22.555 7.10001 22.6252 7.15825C22.6685 7.19503 22.7307 7.22568 22.7604 7.22568C22.8415 7.22568 22.9658 7.30537 22.9901 7.36974C22.9982 7.40039 23.0198 7.56284 23.0334 7.73143C23.0955 8.43641 23.0874 8.39656 23.1928 8.43641C23.3874 8.50997 23.4063 8.75212 23.228 8.95441C23.1739 9.01572 23.1117 9.06476 23.0928 9.06476C23.0712 9.06476 23.0631 9.08008 23.0712 9.09541C23.0793 9.1138 23.0766 9.12606 23.0631 9.12606C23.0469 9.12606 23.0415 9.15365 23.0496 9.18736C23.0604 9.23028 23.0496 9.24867 23.0198 9.24867C22.9955 9.24867 22.9766 9.26399 22.9766 9.27932C22.9766 9.29771 22.9982 9.30997 23.0252 9.30997C23.0631 9.30997 23.0658 9.3161 23.0307 9.34062C22.9955 9.36821 22.9955 9.37127 23.0307 9.37127C23.082 9.37127 23.1577 9.49388 23.1063 9.49388C23.082 9.49388 23.0847 9.50307 23.1117 9.52453C23.1469 9.54905 23.1442 9.55518 23.1036 9.55518C23.0766 9.55518 23.0604 9.56744 23.0685 9.5797C23.0955 9.62874 23.0063 9.73296 22.9523 9.71763C22.855 9.69005 22.5685 9.91993 22.4496 10.1222C22.282 10.4104 22.1144 10.5299 21.7928 10.5973C21.6847 10.6188 21.5901 10.6494 21.582 10.6648C21.5631 10.6985 21.5171 10.6954 21.5171 10.6617C21.5171 10.6464 21.582 10.5391 21.6604 10.4257C21.8658 10.1192 21.9523 9.95978 21.9225 9.93832C21.8712 9.90154 21.5982 10.1284 21.4225 10.3552C21.2982 10.5115 21.1874 10.6157 21.0631 10.6923C20.9658 10.7536 20.8036 10.8763 20.7063 10.9621C20.609 11.0479 20.4469 11.1858 20.3415 11.2686C19.709 11.7774 19.7198 11.7682 19.7198 11.9C19.7171 12.0809 19.5685 12.3935 19.4198 12.5345C19.3496 12.5989 19.2766 12.651 19.2523 12.651C19.1577 12.651 18.7388 12.9636 18.755 13.0249C18.7577 13.0372 18.7388 13.0494 18.7144 13.0494C18.6739 13.0494 18.6712 13.0556 18.7063 13.0801C18.7388 13.1046 18.7334 13.1107 18.6847 13.1107C18.6496 13.1107 18.6307 13.123 18.6388 13.1414C18.6469 13.1598 18.6307 13.172 18.5982 13.172C18.5658 13.172 18.5496 13.1874 18.5577 13.2027C18.5739 13.2333 18.555 13.2456 18.428 13.2763C18.3874 13.2885 18.3604 13.31 18.3685 13.3253C18.3766 13.3437 18.3604 13.3559 18.328 13.3559C18.2955 13.3559 18.2766 13.3682 18.2847 13.3835C18.2955 13.3989 18.2658 13.4203 18.2198 13.4326C18.1739 13.4448 18.1442 13.4663 18.155 13.4816C18.1631 13.4969 18.155 13.5092 18.1388 13.5092C18.0766 13.5092 17.8415 13.641 17.8577 13.6655C17.8658 13.6809 17.8523 13.6931 17.8307 13.6931C17.7739 13.6931 17.5982 13.7912 17.5982 13.8218C17.5982 13.8341 17.5793 13.8464 17.5577 13.8464C17.5334 13.8464 17.509 13.8678 17.5009 13.8923C17.4901 13.9169 17.4658 13.9383 17.4415 13.9383C17.4198 13.9383 17.409 13.9475 17.4171 13.9598C17.428 13.969 17.4117 13.9935 17.382 14.0119C17.1036 14.1897 16.6577 14.5084 16.6685 14.5238C16.6739 14.536 16.6469 14.5544 16.6063 14.5667C16.5685 14.5759 16.4171 14.6525 16.2712 14.7353C16.128 14.818 15.9198 14.9253 15.809 14.9743C15.7009 15.0234 15.5036 15.1307 15.3685 15.2073C15.2361 15.2839 15.1117 15.3483 15.0955 15.3483C15.0766 15.3483 15.055 15.3697 15.0469 15.3973C15.0388 15.4218 15.0198 15.4372 15.0036 15.4249C14.9712 15.4035 14.5334 15.5046 14.5225 15.5353C14.5171 15.5506 14.4955 15.5506 14.4739 15.5414C14.455 15.5322 14.2982 15.5782 14.128 15.6395C13.8793 15.7314 13.7874 15.7498 13.6658 15.7406C13.5847 15.7345 13.5171 15.7376 13.5171 15.7529C13.5171 15.7866 13.4442 15.7835 13.4225 15.7498V15.7498ZM14.1117 15.0694C14.3685 15.005 14.3685 15.005 14.3577 14.8671C14.3523 14.7598 14.3604 14.7169 14.409 14.6586C14.4658 14.5881 14.455 14.5912 14.2442 14.6923C13.8793 14.8701 13.7334 14.9192 13.5793 14.9192C13.4712 14.9192 13.4361 14.9314 13.4361 14.9651C13.4361 14.9897 13.4117 15.0387 13.382 15.0724C13.3307 15.1307 13.3307 15.1307 13.5117 15.1429C13.7307 15.1552 13.7847 15.1491 14.1117 15.0694V15.0694ZM13.9739 14.1529C14.4036 13.9445 14.5739 13.8402 14.5415 13.8035C14.5253 13.7851 14.1415 13.9659 13.8982 14.1038C13.8144 14.1529 13.7171 14.1835 13.6415 14.1835C13.5334 14.1835 13.5198 14.1927 13.4928 14.2755C13.4739 14.3399 13.4739 14.3674 13.4955 14.3674C13.5117 14.3674 13.7253 14.2694 13.9739 14.1529V14.1529ZM16.2739 13.5521C16.2739 13.5092 16.2631 13.4816 16.2469 13.4939C16.2334 13.5031 16.2198 13.5399 16.2198 13.5736C16.2198 13.6042 16.2334 13.6318 16.2469 13.6318C16.2631 13.6318 16.2739 13.595 16.2739 13.5521ZM17.4144 13.0525C17.428 13.0402 17.3577 13.0372 17.2631 13.0433C17.109 13.0556 17.0847 13.0494 17.0523 12.9912C17.0334 12.9575 17.0036 12.9268 16.9874 12.9268C16.9739 12.9268 16.8928 12.9912 16.8144 13.0678C16.7334 13.1475 16.6388 13.2303 16.6036 13.2579C16.5415 13.3038 16.5415 13.3038 16.5982 13.3468C16.628 13.3713 16.6523 13.4172 16.6523 13.451C16.6523 13.5061 16.6955 13.4877 17.0253 13.2946C17.228 13.1751 17.4036 13.0648 17.4144 13.0525V13.0525ZM14.1253 10.7598C14.1225 10.7567 14.0874 10.7628 14.0415 10.7751C13.9847 10.7935 13.9604 10.8211 13.955 10.8824C13.9469 10.9651 13.9469 10.9651 14.0361 10.864C14.0847 10.8119 14.1253 10.7628 14.1253 10.7598Z" fill="#A48B7E"/>
<path d="M10.3009 15.4372C10.2198 15.4218 10.0307 15.4127 9.88201 15.4157C9.73336 15.4157 9.47931 15.4035 9.31444 15.382C8.79552 15.3176 8.39552 15.29 8.38742 15.3207C8.3739 15.3575 8.2739 15.3575 8.2739 15.3176C8.2739 15.2655 8.13606 15.2441 8.10904 15.29C8.09012 15.3268 8.08471 15.3238 8.08471 15.287C8.08471 15.2471 8.08201 15.2471 8.05498 15.287C8.03336 15.3238 8.02255 15.3238 8.01174 15.2931C8.00363 15.2655 7.9685 15.2594 7.90633 15.2747C7.84417 15.287 7.81444 15.2808 7.81444 15.2563C7.81444 15.2349 7.79282 15.2287 7.76039 15.241C7.73066 15.2533 7.70634 15.2471 7.70634 15.2287C7.70634 15.2104 7.68742 15.2042 7.66579 15.2134C7.64417 15.2257 7.62525 15.2165 7.62525 15.195C7.62525 15.1736 7.60363 15.1674 7.5712 15.1797C7.54147 15.192 7.51715 15.1858 7.51715 15.1674C7.51715 15.149 7.49823 15.1429 7.47661 15.1521C7.45498 15.1644 7.43606 15.1552 7.43606 15.1337C7.43606 15.1123 7.41715 15.1031 7.39552 15.1153C7.3739 15.1245 7.35498 15.1184 7.35498 15.1031C7.35498 15.0356 6.77661 14.9161 6.24688 14.8732C6.11985 14.864 5.8712 14.8272 5.69552 14.7935C5.51985 14.7598 5.35769 14.7383 5.33607 14.7475C5.31715 14.7567 5.30093 14.7536 5.30093 14.7383C5.30093 14.6954 5.19553 14.677 5.18201 14.7169C5.1739 14.7383 5.1685 14.7383 5.1685 14.7107C5.1658 14.6893 5.15498 14.6801 5.13877 14.6893C5.12525 14.6985 5.11174 14.6923 5.11174 14.674C5.11174 14.6494 5.08742 14.6433 5.04417 14.6556C5.00093 14.6678 4.97661 14.6617 4.97661 14.6402C4.97661 14.6218 4.95769 14.6127 4.93607 14.6249C4.91444 14.6341 4.89553 14.628 4.89553 14.6096C4.89553 14.5912 4.8739 14.5851 4.84417 14.5973C4.81444 14.6065 4.78742 14.5973 4.77931 14.5728C4.76309 14.5268 4.63066 14.4931 4.1658 14.4104C3.89282 14.3613 3.84688 14.3429 3.7739 14.2632C3.73066 14.2142 3.63607 14.1345 3.5658 14.0854C3.49553 14.0364 3.43336 13.972 3.42526 13.9445C3.40093 13.8617 3.31985 13.8188 3.11985 13.7851C2.84958 13.7391 2.79282 13.7054 2.76039 13.5736C2.72526 13.4326 2.72526 13.3345 2.76039 13.31C2.7739 13.3008 2.86309 13.3069 2.95499 13.3222C3.1739 13.3621 3.30093 13.3805 3.6658 13.4172C3.82796 13.4356 4.01174 13.454 4.0712 13.4632C4.13066 13.4694 4.2658 13.4847 4.3685 13.4939C4.4739 13.5031 4.59553 13.5184 4.63877 13.5245C4.83336 13.5582 4.99012 13.5705 5.03607 13.5521C5.07661 13.5399 5.0685 13.5153 4.97661 13.359C4.85498 13.1567 4.83066 13.1475 4.43066 13.1383C4.20904 13.1322 4.11715 13.1015 4.21715 13.0648C4.37661 13.0096 4.31715 12.7674 4.12796 12.7092C4.02526 12.6786 3.46309 12.6847 3.2658 12.7215C3.20634 12.7307 3.1658 12.7092 3.0658 12.6081C2.90093 12.4364 2.91444 12.3812 3.1685 12.1605C3.34147 12.0104 3.37661 11.992 3.48471 11.995C3.60634 11.9981 3.60634 11.9981 3.48742 11.8847C3.3712 11.7682 3.3712 11.7682 3.40634 11.5751C3.44688 11.3422 3.4712 11.3023 3.57661 11.3023C3.61985 11.3023 3.73336 11.2625 3.82796 11.2104C3.92255 11.1613 4.01444 11.1184 4.03066 11.1184C4.09553 11.1184 4.16309 11.054 4.14958 11.0111C4.13066 10.9621 3.73336 10.723 3.56039 10.6586C3.26309 10.5483 3.80363 10.5728 4.24147 10.6893C4.3712 10.723 4.50093 10.7567 4.53336 10.7659C4.56309 10.772 4.80093 10.7874 5.06039 10.7966C5.68201 10.8149 6.35769 10.8487 6.40904 10.8579C6.43066 10.8609 6.71715 10.8763 7.04417 10.8854C7.3712 10.8977 7.74958 10.913 7.88201 10.9192C9.13066 10.9866 9.63606 10.9958 9.67931 10.9467C9.70904 10.913 9.72796 10.8456 9.73066 10.7567C9.73336 10.7353 9.77931 10.6954 9.83606 10.6678C9.95769 10.6096 10.4874 10.6218 10.555 10.6862C10.5766 10.7077 10.609 10.7169 10.6253 10.7046C10.6388 10.6954 10.6523 10.7015 10.6523 10.7199C10.6523 10.7383 10.6739 10.7506 10.7009 10.7475C10.7253 10.7445 10.8604 10.7506 10.9955 10.7659C11.2063 10.7843 11.2469 10.7996 11.2604 10.8456C11.2874 10.9406 11.4658 11.0203 11.7307 11.0602C11.9631 11.0939 11.9793 11.1 11.9928 11.1766C12.0009 11.2195 12.0144 11.2808 12.0198 11.3084C12.028 11.336 12.1009 11.4709 12.182 11.6088C12.3307 11.854 12.3307 11.854 12.3577 12.5529C12.3712 12.936 12.3955 13.3376 12.4117 13.4448C12.4361 13.6318 12.4171 13.8004 12.355 13.8923C12.309 13.9628 12.2496 14.2172 12.2226 14.4778C12.1982 14.7046 12.2009 14.7843 12.2307 14.9008C12.2523 14.9835 12.2631 15.0663 12.2577 15.0877C12.228 15.1674 12.0658 15.2012 11.5712 15.2226C11.0577 15.2471 10.909 15.2808 10.7171 15.4127C10.628 15.474 10.5415 15.4801 10.3009 15.4372Z" fill="#A48B7E"/>
<path d="M7.13607 10.5636C6.93337 10.5513 6.74418 10.536 6.71715 10.5237C6.69013 10.5145 6.55769 10.4931 6.42256 10.4747C6.29013 10.4563 6.14418 10.4348 6.09823 10.4287C5.98742 10.4134 5.71715 10.3889 5.39553 10.3674C5.24688 10.3582 5.07121 10.3429 5.00364 10.3368C4.93607 10.3306 4.7658 10.3153 4.62526 10.3061C4.18472 10.2724 3.94958 10.205 3.94958 10.1069C3.94958 10.0548 4.64959 10.0793 5.25499 10.1529C5.90634 10.2325 6.27121 10.2969 6.35499 10.349C6.43337 10.395 6.53607 10.4103 6.93607 10.4256C7.75499 10.4563 8.34148 10.5145 8.37121 10.5697C8.38742 10.6034 7.83878 10.6004 7.13607 10.5636V10.5636Z" fill="#A48B7E"/>
<path d="M19.6442 10.0242C19.6334 10.015 19.6253 9.9598 19.6253 9.90156C19.6253 9.80041 19.6253 9.80042 19.828 9.80042C20.0307 9.80042 20.0307 9.80041 20.0307 9.90463C20.0307 9.97206 20.0145 10.015 19.9874 10.0272C19.9307 10.0518 19.6658 10.0518 19.6442 10.0242V10.0242Z" fill="#A48B7E"/>
<path d="M18.0577 8.07473C18.0955 8.03488 18.1523 7.99504 18.1874 7.98278C18.2415 7.96745 18.2496 7.97665 18.2415 8.04714C18.2334 8.12071 18.2198 8.1299 18.1117 8.1391C17.9928 8.14829 17.9928 8.14829 18.0577 8.07473Z" fill="#A48B7E"/>
<path d="M13.436 15.2287C13.2604 15.2103 13.1009 15.1306 13.0712 15.0479C13.0604 15.0142 13.0766 15.008 13.1496 15.0233C13.2252 15.0387 13.2577 15.0295 13.3009 14.9804C13.3306 14.9467 13.355 14.8915 13.355 14.8609C13.355 14.8057 13.3712 14.8027 13.4982 14.818C13.6577 14.8364 13.6766 14.8272 14.5036 14.4471C14.7847 14.3153 15.1739 14.1437 15.3685 14.0609C16.0631 13.7697 16.1388 13.7176 16.1388 13.5398C16.1388 13.4264 16.1469 13.4172 16.2955 13.3253C16.3793 13.2732 16.5171 13.1689 16.5982 13.0954C16.7631 12.9421 17.0063 12.7521 17.0766 12.7214C17.1117 12.7061 17.1171 12.7153 17.1036 12.7582C17.0766 12.8348 17.1523 12.9575 17.2306 12.9575C17.3496 12.9575 18.3171 12.3659 18.3442 12.277C18.3658 12.1973 18.3333 12.1053 18.2712 12.0839C18.1901 12.0532 18.209 12.0226 18.3631 11.9122C18.7279 11.6578 18.7523 11.6333 18.6658 11.6548C18.6225 11.664 18.355 11.7682 18.0712 11.8847C17.6198 12.0716 17.5496 12.1084 17.4766 12.2096C17.3955 12.3199 17.3874 12.323 17.0171 12.3935C16.809 12.4333 16.5928 12.467 16.536 12.467C16.4198 12.467 14.9063 12.8839 14.5171 13.0249C14.3766 13.0739 14.1847 13.1628 14.0928 13.2211C13.8712 13.359 13.8333 13.3559 13.7766 13.1935C13.7225 13.031 13.7225 13.0034 13.7793 12.9053C13.8144 12.844 13.8306 12.7398 13.836 12.5038C13.8469 12.2157 13.8415 12.1758 13.7901 12.0961C13.7252 11.995 13.7198 11.9674 13.7658 11.8847C13.7928 11.8356 13.7901 11.8111 13.7415 11.7375C13.6739 11.6333 13.6847 11.6088 13.7901 11.6088C13.8306 11.6088 13.8982 11.5935 13.936 11.5781C13.9982 11.5506 14.0225 11.5597 14.0874 11.6211C14.2279 11.7559 14.3333 11.7498 14.7604 11.5965C14.9739 11.5199 15.1685 11.4341 15.1955 11.4065C15.2252 11.3758 15.2469 11.3145 15.2469 11.2686C15.2469 11.2103 15.2685 11.1643 15.3144 11.1306C15.3766 11.0847 15.7198 11.0234 16.1712 10.9804C16.2847 10.9682 16.3982 10.9437 16.4252 10.9191C16.4739 10.8824 16.4739 10.8762 16.4252 10.7751C16.3469 10.6096 16.3901 10.5575 16.782 10.349C16.9712 10.2479 17.2279 10.1069 17.355 10.0333C17.7496 9.80343 18.436 9.54596 18.7928 9.49691C18.9604 9.47546 19.0225 9.45094 19.1252 9.36818C19.3955 9.14749 19.4766 9.09538 19.5577 9.09538C19.6685 9.09538 19.7496 9.02488 19.7874 8.89615C19.8117 8.81645 19.8577 8.75822 19.9658 8.68159C20.1225 8.56818 20.136 8.54366 20.0712 8.48235C20.009 8.42412 19.9036 8.48848 19.8577 8.62029C19.809 8.74596 19.8685 8.7153 19.009 9.06473C18.5306 9.25783 18.2901 9.34059 18.2036 9.34059C18.0685 9.34059 17.7117 9.49385 17.5063 9.64404C17.436 9.69308 17.2442 9.79117 17.0766 9.8586C16.909 9.92603 16.6036 10.0517 16.3955 10.1375C14.8955 10.7567 14.8928 10.7597 14.809 10.6893C14.7685 10.6555 14.7225 10.6279 14.7036 10.6279C14.6874 10.6279 14.5604 10.6862 14.4198 10.7567C14.1631 10.8824 14.0306 11.005 14.0306 11.1184C14.0306 11.2042 13.9631 11.2532 13.9225 11.195C13.8793 11.1368 13.8415 10.7781 13.8739 10.7322C13.8874 10.7107 13.9415 10.6862 13.9982 10.6739C14.0523 10.6617 14.1739 10.6004 14.2658 10.5329C14.5442 10.3368 15.6144 9.74212 15.836 9.6655C15.8685 9.65324 15.9279 9.595 15.9685 9.53676C16.0442 9.42335 16.2874 9.26703 16.5928 9.13829C16.7982 9.0494 16.8793 9.04634 16.9658 9.12297C17.0225 9.17201 17.0469 9.17814 17.1333 9.15055C17.3063 9.09538 17.4631 8.98197 17.4631 8.91147C17.4631 8.85324 17.2982 8.67239 17.2252 8.65094C17.1577 8.62948 17.1685 8.62029 17.3739 8.51301C17.4955 8.44864 17.7577 8.28925 17.955 8.15745C18.6442 7.70381 18.8036 7.60266 19.0442 7.4586C19.1793 7.37584 19.3252 7.27163 19.3685 7.22565C19.4793 7.10917 20.2712 6.62795 20.4901 6.54825C20.5874 6.51147 20.7496 6.43484 20.8523 6.37967C20.9577 6.3245 21.0469 6.28465 21.0523 6.29078C21.082 6.32143 20.982 6.41032 20.8225 6.49615C20.6739 6.57891 20.6496 6.60343 20.6171 6.71684C20.582 6.83638 20.5631 6.8517 20.2036 7.07239C19.8333 7.29921 19.8279 7.30228 19.8198 7.41569C19.809 7.54442 19.8063 7.54749 19.2901 7.7927C18.8928 7.97967 18.836 8.04404 18.9496 8.16052C19.0225 8.23408 19.1225 8.21262 19.4874 8.03791C19.755 7.90917 19.7874 7.88465 19.7874 7.81722C19.7874 7.64251 19.9631 7.53829 20.4982 7.3973C20.6306 7.36358 20.7901 7.28082 21.0387 7.11837C21.4063 6.87929 21.5036 6.84864 21.5793 6.94366C21.636 7.01416 21.636 7.07239 21.5847 7.15209C21.5252 7.24098 21.536 7.26856 21.6333 7.31147C21.709 7.34519 21.7279 7.34212 21.7874 7.28695C21.9658 7.1245 21.9712 7.12143 22.0442 7.17661C22.1496 7.25324 22.136 7.38197 22.0036 7.54442C21.8847 7.68848 21.8739 7.73446 21.936 7.82642C21.9577 7.85707 21.9739 7.90611 21.9766 7.93063C21.9766 8.00419 21.7712 8.33523 21.6523 8.4517C21.5766 8.52527 21.5333 8.60496 21.5063 8.70611C21.4712 8.84404 21.4712 8.85324 21.5117 8.83484C21.5901 8.795 21.8712 8.69691 21.8982 8.69691C21.9144 8.69691 21.955 8.7337 21.9928 8.77967C22.0577 8.85937 22.0577 8.85937 22.2198 8.67239C22.309 8.56818 22.3955 8.48235 22.409 8.48235C22.4604 8.48235 22.5712 8.62948 22.5712 8.69691C22.5712 8.7337 22.4847 8.86243 22.3631 9.00649C22.1658 9.23944 22.155 9.2609 22.1631 9.37737C22.1658 9.44787 22.155 9.54289 22.136 9.59193C22.0982 9.69615 21.7306 10.0119 21.6171 10.0364C21.5658 10.0486 21.5306 10.0824 21.5063 10.1498C21.4604 10.2755 21.2928 10.4379 21.0036 10.6371C20.8766 10.723 20.6982 10.8701 20.6063 10.9651C20.5171 11.0571 20.3577 11.2011 20.255 11.287C19.9631 11.5291 19.6279 11.7927 19.609 11.7927C19.6009 11.7927 19.4225 11.9092 19.209 12.0532C18.9171 12.2525 18.8036 12.3138 18.7279 12.3138C18.6496 12.3138 18.5469 12.3781 18.1874 12.6479C17.5009 13.1628 16.6442 13.6992 16.5982 13.641C16.5847 13.6287 16.5712 13.5827 16.5658 13.5429C16.5442 13.3559 16.3685 13.3866 16.3685 13.5797C16.3685 13.6379 16.3604 13.6961 16.3496 13.7084C16.3415 13.7207 16.055 13.8494 15.7144 13.9965C15.1117 14.2601 15.0982 14.2693 15.0415 14.3858C14.9928 14.49 14.9604 14.5145 14.7658 14.5973C14.5009 14.7076 14.4252 14.7812 14.4523 14.9007C14.4604 14.9467 14.4874 14.9927 14.5063 15.0019C14.5901 15.0387 14.5306 15.0693 14.2469 15.146C13.9198 15.2379 13.6982 15.2594 13.436 15.2287V15.2287ZM15.3982 12.3168C15.8144 12.136 16.3523 11.8938 16.5955 11.7804C16.8388 11.667 17.0442 11.5812 17.0496 11.5904C17.0577 11.5996 17.0333 11.6486 16.9955 11.7007C16.9252 11.7927 16.9225 11.8509 16.9847 11.9398C17.0279 12.0011 17.0955 11.9827 17.355 11.8387C17.4901 11.762 17.7117 11.664 17.8496 11.6241C18.1198 11.5444 18.5306 11.3574 18.6036 11.2808C18.6739 11.2073 18.6712 10.9314 18.5982 10.8578C18.5523 10.8119 18.5306 10.8088 18.4225 10.8394C18.355 10.8578 18.1901 10.9283 18.0577 10.9927C17.9225 11.0571 17.8144 11.1061 17.8144 11.1C17.8144 11.0908 17.8469 11.0325 17.8847 10.9651C17.9387 10.8732 17.9793 10.8394 18.055 10.8241C18.109 10.8119 18.2388 10.7597 18.3415 10.7046C18.4469 10.6494 18.6793 10.5391 18.8604 10.4624C19.236 10.2969 19.3658 10.2111 19.3766 10.113C19.3955 9.97814 19.3415 9.95055 19.1847 10.0119C18.782 10.1712 17.7901 10.6433 17.6333 10.7506C17.455 10.8701 17.3469 10.9038 17.3144 10.8425C17.2847 10.7873 17.1847 10.8119 16.7198 10.9927C16.2604 11.1705 16.2604 11.1705 16.2469 11.3053C16.2333 11.4279 16.2252 11.4402 16.1252 11.4801C16.0658 11.5046 15.7793 11.6302 15.4901 11.759C15.0658 11.946 14.9469 12.0134 14.8685 12.1023C14.8171 12.1636 14.7225 12.2433 14.6577 12.2801C14.509 12.3659 14.4658 12.464 14.5279 12.5743C14.5523 12.6172 14.5901 12.6509 14.609 12.6509C14.6279 12.6509 14.9847 12.5007 15.3982 12.3168V12.3168ZM19.9225 9.92297C19.9523 9.90151 19.9279 9.89232 19.8333 9.89232C19.7523 9.89232 19.709 9.90458 19.7198 9.92297C19.7415 9.96281 19.8685 9.96281 19.9225 9.92297Z" fill="#D5C6A2"/>
<path d="M17.2469 11.4004C17.3415 11.2962 17.409 11.1981 17.409 11.1613C17.409 11.0663 17.4333 11.0571 17.5469 11.1092C17.6063 11.1337 17.6847 11.149 17.7225 11.1398C17.7901 11.1276 17.7901 11.1276 17.7144 11.2195C17.6415 11.3053 17.4117 11.4433 17.1847 11.5352C17.082 11.5751 17.082 11.5751 17.2469 11.4004V11.4004Z" fill="#D5C6A2"/>
<path d="M13.3279 14.5085C13.3279 14.4073 13.436 14.0916 13.4739 14.0885C13.4901 14.0855 13.5415 14.0885 13.5874 14.0916C13.6361 14.0947 13.7415 14.0579 13.8306 14.0058C14.109 13.8464 14.5117 13.6625 14.5793 13.6625C14.6171 13.6625 14.6523 13.6809 14.6577 13.7023C14.682 13.7759 14.6252 13.9322 14.555 13.9812C14.4712 14.0456 13.7442 14.4012 13.5523 14.4717C13.4739 14.5023 13.4036 14.5391 13.3955 14.5544C13.3658 14.6065 13.3279 14.582 13.3279 14.5085V14.5085Z" fill="#D5C6A2"/>
<path d="M19.0361 12.6817C19.055 12.6142 19.4144 12.3997 19.4442 12.4334C19.4793 12.4732 19.4442 12.5284 19.3982 12.51C19.3631 12.4947 19.2496 12.556 19.0928 12.6725C19.0361 12.7154 19.0252 12.7184 19.0361 12.6817Z" fill="#D5C6A2"/>
</g>
<defs>
<clipPath id="clip0_156_102">
<rect width="24" height="16" fill="white" transform="translate(0.625244 0.972778)"/>
</clipPath>
</defs>
</svg>
