<svg width="241" height="120" viewBox="0 0 241 120" fill="none" xmlns="http://www.w3.org/2000/svg">
<path fill-rule="evenodd" clip-rule="evenodd" d="M240.568 120C240.568 53.7258 186.842 0 120.568 0C54.2935 0 0.567688 53.7258 0.567688 120H240.568Z" fill="#170204"/>
<path fill-rule="evenodd" clip-rule="evenodd" d="M120.568 2.4C56.4209 2.4 4.2697 53.7592 2.99169 117.6H238.144C236.866 53.7592 184.714 2.4 120.568 2.4ZM240.544 117.6C239.266 52.4336 186.04 0 120.568 0C55.0954 0 1.8696 52.4336 0.59121 117.6C0.575553 118.398 0.567688 119.198 0.567688 120H240.568C240.568 119.198 240.56 118.398 240.544 117.6Z" fill="url(#paint0_linear_362_3285)"/>
<path fill-rule="evenodd" clip-rule="evenodd" d="M120.568 2.4C56.4209 2.4 4.2697 53.7592 2.99169 117.6H238.144C236.866 53.7592 184.714 2.4 120.568 2.4ZM240.544 117.6C239.266 52.4336 186.04 0 120.568 0C55.0954 0 1.8696 52.4336 0.59121 117.6C0.575553 118.398 0.567688 119.198 0.567688 120H240.568C240.568 119.198 240.56 118.398 240.544 117.6Z" fill="url(#paint1_radial_362_3285)" style="mix-blend-mode:overlay"/>
<path fill-rule="evenodd" clip-rule="evenodd" d="M120.568 2.4C56.4209 2.4 4.2697 53.7592 2.99169 117.6H238.144C236.866 53.7592 184.714 2.4 120.568 2.4ZM240.544 117.6C239.266 52.4336 186.04 0 120.568 0C55.0954 0 1.8696 52.4336 0.59121 117.6C0.575553 118.398 0.567688 119.198 0.567688 120H240.568C240.568 119.198 240.56 118.398 240.544 117.6Z" fill="#AD800C" style="mix-blend-mode:color"/>
<path d="M111.582 82.7748C110.786 82.8734 109.99 83.0775 109.194 83.3873C108.411 83.683 107.563 84.1055 106.649 84.6546C106.427 82.472 105.984 80.0571 105.318 77.4098C104.666 74.7625 103.785 71.8265 102.675 68.6019C101.462 65.0956 100.352 62.1878 99.3474 59.8784C98.3425 57.5691 97.4159 55.823 96.5676 54.6401C97.0636 54.5838 97.5595 54.4852 98.0554 54.3444C98.5644 54.1895 99.0407 54.0206 99.4844 53.8375C99.9282 53.6544 100.326 53.4714 100.679 53.2883C101.031 53.0912 101.305 52.9081 101.501 52.7392C101.697 53.5981 102.147 55.2949 102.851 57.8296C103.569 60.3501 104.548 63.7297 105.788 67.9682C107.576 74.0514 108.809 77.5224 109.488 78.3814C110.192 77.283 111.589 73.6923 113.677 67.6091C114.943 63.8494 115.902 60.9064 116.555 58.7801C117.22 56.6397 117.553 55.3231 117.553 54.8302V54.5557C119.419 54.1614 120.75 53.5559 121.546 52.7392C120.724 54.443 119.811 56.5411 118.806 59.0335C117.801 61.5119 116.692 64.4126 115.478 67.7358C113.416 73.3402 112.143 78.0716 111.661 81.9299L111.582 82.7748Z" fill="url(#paint2_linear_362_3285)"/>
<path d="M111.582 82.7748C110.786 82.8734 109.99 83.0775 109.194 83.3873C108.411 83.683 107.563 84.1055 106.649 84.6546C106.427 82.472 105.984 80.0571 105.318 77.4098C104.666 74.7625 103.785 71.8265 102.675 68.6019C101.462 65.0956 100.352 62.1878 99.3474 59.8784C98.3425 57.5691 97.4159 55.823 96.5676 54.6401C97.0636 54.5838 97.5595 54.4852 98.0554 54.3444C98.5644 54.1895 99.0407 54.0206 99.4844 53.8375C99.9282 53.6544 100.326 53.4714 100.679 53.2883C101.031 53.0912 101.305 52.9081 101.501 52.7392C101.697 53.5981 102.147 55.2949 102.851 57.8296C103.569 60.3501 104.548 63.7297 105.788 67.9682C107.576 74.0514 108.809 77.5224 109.488 78.3814C110.192 77.283 111.589 73.6923 113.677 67.6091C114.943 63.8494 115.902 60.9064 116.555 58.7801C117.22 56.6397 117.553 55.3231 117.553 54.8302V54.5557C119.419 54.1614 120.75 53.5559 121.546 52.7392C120.724 54.443 119.811 56.5411 118.806 59.0335C117.801 61.5119 116.692 64.4126 115.478 67.7358C113.416 73.3402 112.143 78.0716 111.661 81.9299L111.582 82.7748Z" fill="url(#paint3_radial_362_3285)" style="mix-blend-mode:overlay"/>
<path d="M111.582 82.7748C110.786 82.8734 109.99 83.0775 109.194 83.3873C108.411 83.683 107.563 84.1055 106.649 84.6546C106.427 82.472 105.984 80.0571 105.318 77.4098C104.666 74.7625 103.785 71.8265 102.675 68.6019C101.462 65.0956 100.352 62.1878 99.3474 59.8784C98.3425 57.5691 97.4159 55.823 96.5676 54.6401C97.0636 54.5838 97.5595 54.4852 98.0554 54.3444C98.5644 54.1895 99.0407 54.0206 99.4844 53.8375C99.9282 53.6544 100.326 53.4714 100.679 53.2883C101.031 53.0912 101.305 52.9081 101.501 52.7392C101.697 53.5981 102.147 55.2949 102.851 57.8296C103.569 60.3501 104.548 63.7297 105.788 67.9682C107.576 74.0514 108.809 77.5224 109.488 78.3814C110.192 77.283 111.589 73.6923 113.677 67.6091C114.943 63.8494 115.902 60.9064 116.555 58.7801C117.22 56.6397 117.553 55.3231 117.553 54.8302V54.5557C119.419 54.1614 120.75 53.5559 121.546 52.7392C120.724 54.443 119.811 56.5411 118.806 59.0335C117.801 61.5119 116.692 64.4126 115.478 67.7358C113.416 73.3402 112.143 78.0716 111.661 81.9299L111.582 82.7748Z" fill="#AD800C" style="mix-blend-mode:color"/>
<path d="M133.958 52.6547C134.284 52.7532 134.708 52.9222 135.23 53.1616C135.765 53.401 136.352 53.7037 136.992 54.0698C137.644 54.436 138.329 54.9006 139.047 55.4639C139.765 56.0131 140.489 56.6679 141.22 57.4283C141.429 57.6536 141.625 57.8859 141.807 58.1253C142.003 58.3506 142.186 58.5829 142.356 58.8223L138.46 60.8923C137.86 60.0756 137.253 59.3856 136.639 58.8223C136.026 58.245 135.367 57.7662 134.662 57.386C133.958 57.0058 133.214 56.6819 132.431 56.4144C131.648 56.1328 130.786 55.9004 129.847 55.7174C128.437 56.7876 127.732 58.428 127.732 60.6388C127.732 62.1737 128.502 63.2368 130.042 63.8283C137.455 66.6868 141.807 68.806 143.099 70.186C143.556 70.6789 143.915 71.3125 144.176 72.087C144.437 72.8615 144.568 73.7556 144.568 74.7695C144.568 75.5299 144.418 76.2621 144.117 76.9662C143.83 77.6703 143.354 78.4025 142.688 79.1629C141.488 80.5006 140.633 81.3033 140.124 81.5708L134.897 84.6546C133.54 84.4857 131.53 83.6267 128.868 82.0778C128.411 81.8102 127.863 81.4089 127.223 80.8738C126.584 80.3387 125.853 79.6487 125.031 78.8038C124.809 78.5926 124.607 78.3673 124.424 78.1279C124.241 77.8885 124.065 77.6492 123.896 77.4098L127.791 75.3398C128.222 76.1002 129.625 77.2197 132 78.6982C134.036 79.9515 136.666 80.8949 139.889 81.5286C141.312 80.4443 142.023 78.7968 142.023 76.586C142.023 74.7273 140.855 73.2558 138.519 72.1715C135.608 70.8478 133.39 69.834 131.863 69.1299C130.336 68.4258 129.481 68.0386 129.298 67.9682C126.636 66.8558 125.305 64.9829 125.305 62.3497C125.305 60.843 125.892 59.4208 127.067 58.083C128.267 56.7453 129.116 55.9427 129.612 55.6751L133.958 52.6547Z" fill="url(#paint4_linear_362_3285)"/>
<path d="M133.958 52.6547C134.284 52.7532 134.708 52.9222 135.23 53.1616C135.765 53.401 136.352 53.7037 136.992 54.0698C137.644 54.436 138.329 54.9006 139.047 55.4639C139.765 56.0131 140.489 56.6679 141.22 57.4283C141.429 57.6536 141.625 57.8859 141.807 58.1253C142.003 58.3506 142.186 58.5829 142.356 58.8223L138.46 60.8923C137.86 60.0756 137.253 59.3856 136.639 58.8223C136.026 58.245 135.367 57.7662 134.662 57.386C133.958 57.0058 133.214 56.6819 132.431 56.4144C131.648 56.1328 130.786 55.9004 129.847 55.7174C128.437 56.7876 127.732 58.428 127.732 60.6388C127.732 62.1737 128.502 63.2368 130.042 63.8283C137.455 66.6868 141.807 68.806 143.099 70.186C143.556 70.6789 143.915 71.3125 144.176 72.087C144.437 72.8615 144.568 73.7556 144.568 74.7695C144.568 75.5299 144.418 76.2621 144.117 76.9662C143.83 77.6703 143.354 78.4025 142.688 79.1629C141.488 80.5006 140.633 81.3033 140.124 81.5708L134.897 84.6546C133.54 84.4857 131.53 83.6267 128.868 82.0778C128.411 81.8102 127.863 81.4089 127.223 80.8738C126.584 80.3387 125.853 79.6487 125.031 78.8038C124.809 78.5926 124.607 78.3673 124.424 78.1279C124.241 77.8885 124.065 77.6492 123.896 77.4098L127.791 75.3398C128.222 76.1002 129.625 77.2197 132 78.6982C134.036 79.9515 136.666 80.8949 139.889 81.5286C141.312 80.4443 142.023 78.7968 142.023 76.586C142.023 74.7273 140.855 73.2558 138.519 72.1715C135.608 70.8478 133.39 69.834 131.863 69.1299C130.336 68.4258 129.481 68.0386 129.298 67.9682C126.636 66.8558 125.305 64.9829 125.305 62.3497C125.305 60.843 125.892 59.4208 127.067 58.083C128.267 56.7453 129.116 55.9427 129.612 55.6751L133.958 52.6547Z" fill="url(#paint5_radial_362_3285)" style="mix-blend-mode:overlay"/>
<path d="M133.958 52.6547C134.284 52.7532 134.708 52.9222 135.23 53.1616C135.765 53.401 136.352 53.7037 136.992 54.0698C137.644 54.436 138.329 54.9006 139.047 55.4639C139.765 56.0131 140.489 56.6679 141.22 57.4283C141.429 57.6536 141.625 57.8859 141.807 58.1253C142.003 58.3506 142.186 58.5829 142.356 58.8223L138.46 60.8923C137.86 60.0756 137.253 59.3856 136.639 58.8223C136.026 58.245 135.367 57.7662 134.662 57.386C133.958 57.0058 133.214 56.6819 132.431 56.4144C131.648 56.1328 130.786 55.9004 129.847 55.7174C128.437 56.7876 127.732 58.428 127.732 60.6388C127.732 62.1737 128.502 63.2368 130.042 63.8283C137.455 66.6868 141.807 68.806 143.099 70.186C143.556 70.6789 143.915 71.3125 144.176 72.087C144.437 72.8615 144.568 73.7556 144.568 74.7695C144.568 75.5299 144.418 76.2621 144.117 76.9662C143.83 77.6703 143.354 78.4025 142.688 79.1629C141.488 80.5006 140.633 81.3033 140.124 81.5708L134.897 84.6546C133.54 84.4857 131.53 83.6267 128.868 82.0778C128.411 81.8102 127.863 81.4089 127.223 80.8738C126.584 80.3387 125.853 79.6487 125.031 78.8038C124.809 78.5926 124.607 78.3673 124.424 78.1279C124.241 77.8885 124.065 77.6492 123.896 77.4098L127.791 75.3398C128.222 76.1002 129.625 77.2197 132 78.6982C134.036 79.9515 136.666 80.8949 139.889 81.5286C141.312 80.4443 142.023 78.7968 142.023 76.586C142.023 74.7273 140.855 73.2558 138.519 72.1715C135.608 70.8478 133.39 69.834 131.863 69.1299C130.336 68.4258 129.481 68.0386 129.298 67.9682C126.636 66.8558 125.305 64.9829 125.305 62.3497C125.305 60.843 125.892 59.4208 127.067 58.083C128.267 56.7453 129.116 55.9427 129.612 55.6751L133.958 52.6547Z" fill="#AD800C" style="mix-blend-mode:color"/>
<defs>
<linearGradient id="paint0_linear_362_3285" x1="0.567687" y1="79.5053" x2="206.266" y2="-37.1438" gradientUnits="userSpaceOnUse">
<stop offset="0.0677083" stop-color="#576265"/>
<stop offset="0.21875" stop-color="#9EA1A1"/>
<stop offset="0.453125" stop-color="#848B8A"/>
<stop offset="0.524381" stop-color="#576265"/>
<stop offset="0.796875" stop-color="#576265"/>
<stop offset="0.895833" stop-color="#757A7B"/>
<stop offset="1" stop-color="#576265"/>
</linearGradient>
<radialGradient id="paint1_radial_362_3285" cx="0" cy="0" r="1" gradientUnits="userSpaceOnUse" gradientTransform="translate(0.567683 -10.3887) rotate(41.1123) scale(146.064 177.176)">
<stop stop-color="white"/>
<stop offset="1" stop-color="white" stop-opacity="0"/>
</radialGradient>
<linearGradient id="paint2_linear_362_3285" x1="96.5676" y1="73.8561" x2="142.609" y2="54.274" gradientUnits="userSpaceOnUse">
<stop offset="0.0677083" stop-color="#576265"/>
<stop offset="0.21875" stop-color="#9EA1A1"/>
<stop offset="0.453125" stop-color="#848B8A"/>
<stop offset="0.524381" stop-color="#576265"/>
<stop offset="0.796875" stop-color="#576265"/>
<stop offset="0.895833" stop-color="#757A7B"/>
<stop offset="1" stop-color="#576265"/>
</linearGradient>
<radialGradient id="paint3_radial_362_3285" cx="0" cy="0" r="1" gradientUnits="userSpaceOnUse" gradientTransform="translate(96.5676 49.8843) rotate(49.3253) scale(33.7692 40.872)">
<stop stop-color="white"/>
<stop offset="1" stop-color="white" stop-opacity="0"/>
</radialGradient>
<linearGradient id="paint4_linear_362_3285" x1="96.5676" y1="73.8561" x2="142.609" y2="54.274" gradientUnits="userSpaceOnUse">
<stop offset="0.0677083" stop-color="#576265"/>
<stop offset="0.21875" stop-color="#9EA1A1"/>
<stop offset="0.453125" stop-color="#848B8A"/>
<stop offset="0.524381" stop-color="#576265"/>
<stop offset="0.796875" stop-color="#576265"/>
<stop offset="0.895833" stop-color="#757A7B"/>
<stop offset="1" stop-color="#576265"/>
</linearGradient>
<radialGradient id="paint5_radial_362_3285" cx="0" cy="0" r="1" gradientUnits="userSpaceOnUse" gradientTransform="translate(96.5676 49.8843) rotate(49.3253) scale(33.7692 40.872)">
<stop stop-color="white"/>
<stop offset="1" stop-color="white" stop-opacity="0"/>
</radialGradient>
</defs>
</svg>
