<svg width="241" height="120" viewBox="0 0 241 120" fill="none" xmlns="http://www.w3.org/2000/svg">
<path fill-rule="evenodd" clip-rule="evenodd" d="M240.568 120C240.568 53.7258 186.842 0 120.568 0C54.2935 0 0.567688 53.7258 0.567688 120H240.568Z" fill="#170204"/>
<path fill-rule="evenodd" clip-rule="evenodd" d="M120.568 2.4C56.4209 2.4 4.2697 53.7592 2.99169 117.6H238.144C236.866 53.7592 184.714 2.4 120.568 2.4ZM240.544 117.6C239.266 52.4336 186.04 0 120.568 0C55.0954 0 1.8696 52.4336 0.59121 117.6C0.575553 118.398 0.567688 119.198 0.567688 120H240.568C240.568 119.198 240.56 118.398 240.544 117.6Z" fill="url(#paint0_linear_362_3285)"/>
<path fill-rule="evenodd" clip-rule="evenodd" d="M120.568 2.4C56.4209 2.4 4.2697 53.7592 2.99169 117.6H238.144C236.866 53.7592 184.714 2.4 120.568 2.4ZM240.544 117.6C239.266 52.4336 186.04 0 120.568 0C55.0954 0 1.8696 52.4336 0.59121 117.6C0.575553 118.398 0.567688 119.198 0.567688 120H240.568C240.568 119.198 240.56 118.398 240.544 117.6Z" fill="url(#paint1_radial_362_3285)" style="mix-blend-mode:overlay"/>
<path fill-rule="evenodd" clip-rule="evenodd" d="M120.568 2.4C56.4209 2.4 4.2697 53.7592 2.99169 117.6H238.144C236.866 53.7592 184.714 2.4 120.568 2.4ZM240.544 117.6C239.266 52.4336 186.04 0 120.568 0C55.0954 0 1.8696 52.4336 0.59121 117.6C0.575553 118.398 0.567688 119.198 0.567688 120H240.568C240.568 119.198 240.56 118.398 240.544 117.6Z" fill="#AD800C" style="mix-blend-mode:color"/>
<defs>
<linearGradient id="paint0_linear_362_3285" x1="0.567687" y1="79.5053" x2="206.266" y2="-37.1438" gradientUnits="userSpaceOnUse">
<stop offset="0.0677083" stop-color="#576265"/>
<stop offset="0.21875" stop-color="#9EA1A1"/>
<stop offset="0.453125" stop-color="#848B8A"/>
<stop offset="0.524381" stop-color="#576265"/>
<stop offset="0.796875" stop-color="#576265"/>
<stop offset="0.895833" stop-color="#757A7B"/>
<stop offset="1" stop-color="#576265"/>
</linearGradient>
<radialGradient id="paint1_radial_362_3285" cx="0" cy="0" r="1" gradientUnits="userSpaceOnUse" gradientTransform="translate(0.567683 -10.3887) rotate(41.1123) scale(146.064 177.176)">
<stop stop-color="white"/>
<stop offset="1" stop-color="white" stop-opacity="0"/>
</radialGradient>
</defs>
</svg>
