<svg width="151" height="126" viewBox="0 0 151 126" fill="none" xmlns="http://www.w3.org/2000/svg">
<rect x="5.58777" y="57.7962" width="59.3558" height="89.0337" rx="8" transform="rotate(-40 5.58777 57.7962)" fill="#240A0A"/>
<g opacity="0.6" filter="url(#filter0_f_362_3289)">
<path fill-rule="evenodd" clip-rule="evenodd" d="M8.75964 60.0658C7.88312 59.0212 7.96021 57.5135 8.93183 56.6982L49.3949 22.7456C50.3665 21.9303 51.8647 22.1162 52.7412 23.1608L105.115 85.5771C105.991 86.6217 105.914 88.1295 104.943 88.9447L64.4795 122.897C63.5079 123.713 62.0097 123.527 61.1331 122.482L8.75964 60.0658ZM19.3152 51.2086L42.1857 32.018L49.4862 40.7185C51.5314 43.1559 55.1585 43.4795 57.5876 41.4412L61.9857 37.7508L96.0549 78.3529L91.6568 82.0434C89.2277 84.0816 88.9166 87.7098 90.9618 90.1471L94.5592 94.4343L71.6887 113.625L68.0914 109.338C66.0462 106.9 62.4191 106.577 59.99 108.615L55.5919 112.305L21.5226 71.7033L25.9208 68.0128C28.3498 65.9746 28.661 62.3464 26.6158 59.909L19.3152 51.2086Z" fill="black"/>
</g>
<path fill-rule="evenodd" clip-rule="evenodd" d="M18.1355 50.5881L41.7795 30.7485L49.3011 39.7124C51.4082 42.2236 55.1521 42.5511 57.6633 40.444L62.2102 36.6287L104.833 87.4242L97.3111 78.4602L92.7642 82.2756C90.253 84.3827 89.9254 88.1266 92.0326 90.6378L95.7389 95.0548L72.095 114.894L68.3887 110.477C66.2816 107.966 62.5377 107.639 60.0265 109.746L55.4795 113.561L63.0012 122.525L63.0011 122.525L9.04167 58.2187L9.0419 58.2185L20.3788 71.7293L24.9255 67.9142C27.4367 65.807 27.7643 62.0631 25.6572 59.5519L18.1355 50.5881ZM7.2229 59.7449C6.31984 58.6686 6.40206 57.1129 7.40653 56.27L49.2382 21.1691C50.2426 20.3263 51.789 20.5155 52.6921 21.5917L106.652 85.8981C107.555 86.9743 107.472 88.53 106.468 89.3729L64.6363 124.474C63.6318 125.317 62.0854 125.127 61.1824 124.051L7.2229 59.7449Z" fill="url(#paint0_linear_362_3289)"/>
<path fill-rule="evenodd" clip-rule="evenodd" d="M18.1355 50.5881L41.7795 30.7485L49.3011 39.7124C51.4082 42.2236 55.1521 42.5511 57.6633 40.444L62.2102 36.6287L104.833 87.4242L97.3111 78.4602L92.7642 82.2756C90.253 84.3827 89.9254 88.1266 92.0326 90.6378L95.7389 95.0548L72.095 114.894L68.3887 110.477C66.2816 107.966 62.5377 107.639 60.0265 109.746L55.4795 113.561L63.0012 122.525L63.0011 122.525L9.04167 58.2187L9.0419 58.2185L20.3788 71.7293L24.9255 67.9142C27.4367 65.807 27.7643 62.0631 25.6572 59.5519L18.1355 50.5881ZM7.2229 59.7449C6.31984 58.6686 6.40206 57.1129 7.40653 56.27L49.2382 21.1691C50.2426 20.3263 51.789 20.5155 52.6921 21.5917L106.652 85.8981C107.555 86.9743 107.472 88.53 106.468 89.3729L64.6363 124.474C63.6318 125.317 62.0854 125.127 61.1824 124.051L7.2229 59.7449Z" fill="url(#paint1_radial_362_3289)" style="mix-blend-mode:overlay"/>
<path fill-rule="evenodd" clip-rule="evenodd" d="M18.1355 50.5881L41.7795 30.7485L49.3011 39.7124C51.4082 42.2236 55.1521 42.5511 57.6633 40.444L62.2102 36.6287L104.833 87.4242L97.3111 78.4602L92.7642 82.2756C90.253 84.3827 89.9254 88.1266 92.0326 90.6378L95.7389 95.0548L72.095 114.894L68.3887 110.477C66.2816 107.966 62.5377 107.639 60.0265 109.746L55.4795 113.561L63.0012 122.525L63.0011 122.525L9.04167 58.2187L9.0419 58.2185L20.3788 71.7293L24.9255 67.9142C27.4367 65.807 27.7643 62.0631 25.6572 59.5519L18.1355 50.5881ZM7.2229 59.7449C6.31984 58.6686 6.40206 57.1129 7.40653 56.27L49.2382 21.1691C50.2426 20.3263 51.789 20.5155 52.6921 21.5917L106.652 85.8981C107.555 86.9743 107.472 88.53 106.468 89.3729L64.6363 124.474C63.6318 125.317 62.0854 125.127 61.1824 124.051L7.2229 59.7449Z" fill="#AD800C" style="mix-blend-mode:color"/>
<rect x="36.0819" y="26.3008" width="59.3558" height="89.0337" rx="8" transform="rotate(-20 36.0819 26.3008)" fill="#240A0A"/>
<g opacity="0.6" filter="url(#filter1_f_362_3289)">
<path fill-rule="evenodd" clip-rule="evenodd" d="M38.2862 29.5184C37.8198 28.237 38.408 26.8466 39.5998 26.4128L89.2351 8.34702C90.427 7.91322 91.7713 8.60032 92.2377 9.88171L120.105 86.4466C120.571 87.728 119.983 89.1185 118.791 89.5523L69.1561 107.618C67.9642 108.052 66.62 107.365 66.1536 106.083L38.2862 29.5184ZM51.2346 24.8056L79.2893 14.5945L83.1739 25.2672C84.2621 28.2571 87.5598 29.8017 90.5394 28.7172L95.9346 26.7535L114.062 76.5594L108.667 78.5231C105.688 79.6076 104.154 82.9106 105.243 85.9005L107.157 91.1595L79.1019 101.371L77.1878 96.1115C76.0996 93.1217 72.8019 91.577 69.8222 92.6615L64.4271 94.6252L46.2992 44.8193L51.6944 42.8557C54.674 41.7711 56.2073 38.4682 55.1191 35.4783L51.2346 24.8056Z" fill="black"/>
</g>
<path fill-rule="evenodd" clip-rule="evenodd" d="M90.497 9.20243L90.497 9.20241L119.208 88.0859L119.208 88.0859L115.206 77.09L109.628 79.1201C106.548 80.2412 104.96 83.6473 106.081 86.7278L108.053 92.1461L79.0494 102.702L77.0773 97.2842C75.9561 94.2038 72.55 92.6155 69.4696 93.7367L63.892 95.7667L39.183 27.8792L39.1832 27.8791L45.2154 44.4526L50.7928 42.4226C53.8733 41.3015 55.4615 37.8954 54.3404 34.8149L50.3382 23.819L79.3418 13.2626L83.344 24.2585C84.4651 27.3389 87.8712 28.9272 90.9517 27.806L96.5293 25.7759L90.497 9.20243ZM36.9519 28.6912C36.4714 27.3711 37.0808 25.9373 38.3129 25.4888L89.627 6.81201C90.8592 6.36353 92.2476 7.07019 92.7281 8.39038L121.439 87.2738C121.92 88.594 121.31 90.0278 120.078 90.4763L68.7642 109.153C67.5321 109.602 66.1437 108.895 65.6631 107.575L36.9519 28.6912Z" fill="url(#paint2_linear_362_3289)"/>
<path fill-rule="evenodd" clip-rule="evenodd" d="M90.497 9.20243L90.497 9.20241L119.208 88.0859L119.208 88.0859L115.206 77.09L109.628 79.1201C106.548 80.2412 104.96 83.6473 106.081 86.7278L108.053 92.1461L79.0494 102.702L77.0773 97.2842C75.9561 94.2038 72.55 92.6155 69.4696 93.7367L63.892 95.7667L39.183 27.8792L39.1832 27.8791L45.2154 44.4526L50.7928 42.4226C53.8733 41.3015 55.4615 37.8954 54.3404 34.8149L50.3382 23.819L79.3418 13.2626L83.344 24.2585C84.4651 27.3389 87.8712 28.9272 90.9517 27.806L96.5293 25.7759L90.497 9.20243ZM36.9519 28.6912C36.4714 27.3711 37.0808 25.9373 38.3129 25.4888L89.627 6.81201C90.8592 6.36353 92.2476 7.07019 92.7281 8.39038L121.439 87.2738C121.92 88.594 121.31 90.0278 120.078 90.4763L68.7642 109.153C67.5321 109.602 66.1437 108.895 65.6631 107.575L36.9519 28.6912Z" fill="url(#paint3_radial_362_3289)" style="mix-blend-mode:overlay"/>
<path fill-rule="evenodd" clip-rule="evenodd" d="M90.497 9.20243L90.497 9.20241L119.208 88.0859L119.208 88.0859L115.206 77.09L109.628 79.1201C106.548 80.2412 104.96 83.6473 106.081 86.7278L108.053 92.1461L79.0494 102.702L77.0773 97.2842C75.9561 94.2038 72.55 92.6155 69.4696 93.7367L63.892 95.7667L39.183 27.8792L39.1832 27.8791L45.2154 44.4526L50.7928 42.4226C53.8733 41.3015 55.4615 37.8954 54.3404 34.8149L50.3382 23.819L79.3418 13.2626L83.344 24.2585C84.4651 27.3389 87.8712 28.9272 90.9517 27.806L96.5293 25.7759L90.497 9.20243ZM36.9519 28.6912C36.4714 27.3711 37.0808 25.9373 38.3129 25.4888L89.627 6.81201C90.8592 6.36353 92.2476 7.07019 92.7281 8.39038L121.439 87.2738C121.92 88.594 121.31 90.0278 120.078 90.4763L68.7642 109.153C67.5321 109.602 66.1437 108.895 65.6631 107.575L36.9519 28.6912Z" fill="#AD800C" style="mix-blend-mode:color"/>
<rect x="88.7915" y="6" width="59.3558" height="89.0337" rx="8" transform="rotate(20 88.7915 6)" fill="#240A0A"/>
<g opacity="0.6" filter="url(#filter2_f_362_3289)">
<path fill-rule="evenodd" clip-rule="evenodd" d="M88.4119 9.88176C88.8783 8.60038 90.2225 7.91328 91.4144 8.34708L141.05 26.4129C142.242 26.8467 142.83 28.2371 142.363 29.5185L114.496 106.083C114.03 107.365 112.685 108.052 111.493 107.618L61.8581 89.5523C60.6662 89.1185 60.0781 87.7281 60.5445 86.4467L88.4119 9.88176ZM101.36 14.5946L129.415 24.8057L125.53 35.4784C124.442 38.4683 125.975 41.7712 128.955 42.8557L134.35 44.8194L116.222 94.6253L110.827 92.6616C107.848 91.5771 104.55 93.1217 103.462 96.1116L101.548 101.371L73.4929 91.1595L75.407 85.9005C76.4952 82.9106 74.9619 79.6077 71.9823 78.5232L66.5871 76.5595L84.715 26.7536L90.1101 28.7173C93.0898 29.8018 96.3874 28.2572 97.4757 25.2673L101.36 14.5946Z" fill="black"/>
</g>
<path fill-rule="evenodd" clip-rule="evenodd" d="M141.467 27.8792L135.434 44.4528L129.857 42.4227C126.776 41.3015 125.188 37.8954 126.309 34.815L130.311 23.8191L101.308 13.2626L97.3056 24.2585C96.1844 27.3389 92.7783 28.9272 89.6979 27.806L84.1205 25.776L90.1528 9.20252L90.1526 9.20244L65.4435 77.09L71.0211 79.1201C74.1015 80.2413 75.6898 83.6473 74.5686 86.7278L72.5965 92.1461L101.6 102.703L103.572 97.2842C104.693 94.2038 108.1 92.6155 111.18 93.7367L116.758 95.7667L141.467 27.8792ZM87.9215 8.39041C88.402 7.07022 89.7904 6.36356 91.0226 6.81203L142.337 25.4888C143.569 25.9373 144.178 27.3711 143.698 28.6913L114.986 107.575C114.506 108.895 113.118 109.602 111.885 109.153L60.5713 90.4763C59.3391 90.0278 58.7298 88.594 59.2103 87.2739L87.9215 8.39041Z" fill="url(#paint4_linear_362_3289)"/>
<path fill-rule="evenodd" clip-rule="evenodd" d="M141.467 27.8792L135.434 44.4528L129.857 42.4227C126.776 41.3015 125.188 37.8954 126.309 34.815L130.311 23.8191L101.308 13.2626L97.3056 24.2585C96.1844 27.3389 92.7783 28.9272 89.6979 27.806L84.1205 25.776L90.1528 9.20252L90.1526 9.20244L65.4435 77.09L71.0211 79.1201C74.1015 80.2413 75.6898 83.6473 74.5686 86.7278L72.5965 92.1461L101.6 102.703L103.572 97.2842C104.693 94.2038 108.1 92.6155 111.18 93.7367L116.758 95.7667L141.467 27.8792ZM87.9215 8.39041C88.402 7.07022 89.7904 6.36356 91.0226 6.81203L142.337 25.4888C143.569 25.9373 144.178 27.3711 143.698 28.6913L114.986 107.575C114.506 108.895 113.118 109.602 111.885 109.153L60.5713 90.4763C59.3391 90.0278 58.7298 88.594 59.2103 87.2739L87.9215 8.39041Z" fill="url(#paint5_radial_362_3289)" style="mix-blend-mode:overlay"/>
<path fill-rule="evenodd" clip-rule="evenodd" d="M141.467 27.8792L135.434 44.4528L129.857 42.4227C126.776 41.3015 125.188 37.8954 126.309 34.815L130.311 23.8191L101.308 13.2626L97.3056 24.2585C96.1844 27.3389 92.7783 28.9272 89.6979 27.806L84.1205 25.776L90.1528 9.20252L90.1526 9.20244L65.4435 77.09L71.0211 79.1201C74.1015 80.2413 75.6898 83.6473 74.5686 86.7278L72.5965 92.1461L101.6 102.703L103.572 97.2842C104.693 94.2038 108.1 92.6155 111.18 93.7367L116.758 95.7667L141.467 27.8792ZM87.9215 8.39041C88.402 7.07022 89.7904 6.36356 91.0226 6.81203L142.337 25.4888C143.569 25.9373 144.178 27.3711 143.698 28.6913L114.986 107.575C114.506 108.895 113.118 109.602 111.885 109.153L60.5713 90.4763C59.3391 90.0278 58.7298 88.594 59.2103 87.2739L87.9215 8.39041Z" fill="#AD800C" style="mix-blend-mode:color"/>
<defs>
<filter id="filter0_f_362_3289" x="0.149536" y="14.2376" width="113.575" height="117.168" filterUnits="userSpaceOnUse" color-interpolation-filters="sRGB">
<feFlood flood-opacity="0" result="BackgroundImageFix"/>
<feBlend mode="normal" in="SourceGraphic" in2="BackgroundImageFix" result="shape"/>
<feGaussianBlur stdDeviation="4" result="effect1_foregroundBlur_362_3289"/>
</filter>
<filter id="filter1_f_362_3289" x="30.1263" y="0.21701" width="98.1387" height="115.531" filterUnits="userSpaceOnUse" color-interpolation-filters="sRGB">
<feFlood flood-opacity="0" result="BackgroundImageFix"/>
<feBlend mode="normal" in="SourceGraphic" in2="BackgroundImageFix" result="shape"/>
<feGaussianBlur stdDeviation="4" result="effect1_foregroundBlur_362_3289"/>
</filter>
<filter id="filter2_f_362_3289" x="52.3846" y="0.217072" width="98.1387" height="115.531" filterUnits="userSpaceOnUse" color-interpolation-filters="sRGB">
<feFlood flood-opacity="0" result="BackgroundImageFix"/>
<feBlend mode="normal" in="SourceGraphic" in2="BackgroundImageFix" result="shape"/>
<feGaussianBlur stdDeviation="4" result="effect1_foregroundBlur_362_3289"/>
</filter>
<linearGradient id="paint0_linear_362_3289" x1="79.7288" y1="53.6971" x2="56.9372" y2="76.4887" gradientUnits="userSpaceOnUse">
<stop stop-color="#729AA5"/>
<stop offset="0.198493" stop-color="#BFC6C5"/>
<stop offset="0.453125" stop-color="#848B8A"/>
<stop offset="0.524381" stop-color="#96A5A9"/>
<stop offset="0.796875" stop-color="#9CADB1"/>
<stop offset="0.895833" stop-color="#A5ABAD"/>
<stop offset="1" stop-color="#6E8186"/>
</linearGradient>
<radialGradient id="paint1_radial_362_3289" cx="0" cy="0" r="1" gradientUnits="userSpaceOnUse" gradientTransform="translate(0.715514 51.9894) rotate(33.321) scale(74.3881 50.0767)">
<stop stop-color="white"/>
<stop offset="1" stop-color="white" stop-opacity="0"/>
</radialGradient>
<linearGradient id="paint2_linear_362_3289" x1="107.154" y1="47.8067" x2="79.1956" y2="57.9825" gradientUnits="userSpaceOnUse">
<stop stop-color="#729AA5"/>
<stop offset="0.198493" stop-color="#BFC6C5"/>
<stop offset="0.453125" stop-color="#848B8A"/>
<stop offset="0.524381" stop-color="#96A5A9"/>
<stop offset="0.796875" stop-color="#9CADB1"/>
<stop offset="0.895833" stop-color="#A5ABAD"/>
<stop offset="1" stop-color="#6E8186"/>
</linearGradient>
<radialGradient id="paint3_radial_362_3289" cx="0" cy="0" r="1" gradientUnits="userSpaceOnUse" gradientTransform="translate(33.4895 19.1778) rotate(53.321) scale(74.388 50.0767)">
<stop stop-color="white"/>
<stop offset="1" stop-color="white" stop-opacity="0"/>
</radialGradient>
<linearGradient id="paint4_linear_362_3289" x1="129.412" y1="68.1585" x2="73.6358" y2="47.8576" gradientUnits="userSpaceOnUse">
<stop stop-color="#729AA5"/>
<stop offset="0.198493" stop-color="#BFC6C5"/>
<stop offset="0.453125" stop-color="#848B8A"/>
<stop offset="0.524381" stop-color="#96A5A9"/>
<stop offset="0.796875" stop-color="#9CADB1"/>
<stop offset="0.895833" stop-color="#A5ABAD"/>
<stop offset="1" stop-color="#6E8186"/>
</linearGradient>
<radialGradient id="paint5_radial_362_3289" cx="0" cy="0" r="1" gradientUnits="userSpaceOnUse" gradientTransform="translate(91.3843 -1.1229) rotate(93.321) scale(74.388 50.0767)">
<stop stop-color="white"/>
<stop offset="1" stop-color="white" stop-opacity="0"/>
</radialGradient>
</defs>
</svg>
