<svg width="24" height="25" fill="none" xmlns="http://www.w3.org/2000/svg">
  <g clip-path="url(#a)">
    <path d="M11.79 22.36c-.346-.143-.693-.287-.762-.43l-.208-.144-.277-.143-.208-.143c-.346-.072-.762-.359-1.177-.645l-.347-.287a11.07 11.07 0 0 1-1.523-1.219l-.693-.573-.485-.574v-.143h.416l.208.287.346.358c.138 0 .277.143.415.287l.97.717.485.358c.427.342.892.631 1.385.86l1.593.86.277-2.007.208-2.58.416-5.305a73.416 73.416 0 0 0-.485-9.534c-.715-.02-1.39.45-2.043.753-.25.128-.539-.075-.797.035l-.9.215-.624.072c-.97.215-1.8.359-2.493.359h-.762L4.1 3.65a13.019 13.019 0 0 0-1.316-.215l-.484-.143a13.87 13.87 0 0 0-.07 2.437v.645L2.37 7.45c.068.796.184 1.586.346 2.366l.277 1.505.07.43.069.216.692-.287a43.33 43.33 0 0 0 2.563-.932l-.138-.287-.07-.287.07-.143h.138l.139-.072.138-.071c.208 0 .208 0 .277.358 0 .215 0 .287.139.359l.07.358v.287l.068.358.07.359c0 .143 0 .143-.208.215-.346 0-.485 0-.485-.215v-.144c-.07-.071 0-.071-.97.215-.747.287-1.51.526-2.285.717l.138.359c.342 1.323.93 2.565 1.732 3.655l.692.717c.208.287.277.287.208.43 0 .144 0 .144-.138.144l-.277-.143-.693-.79-.277-.358a5.064 5.064 0 0 1-1.108-2.007c-.277-.573-.554-1.577-.624-2.079l-.069-.071.277-.072.346-.072a27.027 27.027 0 0 0 3.117-.86l.07.144.069.215h.208v-.86c.069-.144 0-.287-.139-.359l-.07-.287c-.068-.143-.068-.215-.138-.143-.069.072-.069 0-.138-.072-.139-.071-.139 0-.07.144l.139.501a20.69 20.69 0 0 0-2.009.789c-.512.128-1.02.271-1.523.43l-.139-.143c-.139 0-.139 0-.208-.144l-.277-1.29c-.138-.502-.138-.645-.208-1.649l-.138-.86-.07-.717-.138-1.362v-.932l.139-2.294c0-.071.207-.071.484.072l.762.215.97.215 1.108.072a9.644 9.644 0 0 0 2.078-.144c.762-.071 2.009-.43 2.84-.86.554-.215.693-.287 1.039-.287l.623-.071A3.551 3.551 0 0 1 13.591 2c.446 0 1.19.509 1.593.717.986.417 2.06.565 3.117.43l.485-.071.484-.072.485-.072.9.072h.832l.485.072.138 1.72c0 1.075 0 1.29-.208 2.007l-.207.789-.139.645c-.055.456-.125.91-.208 1.362l-.346 1.434-.139.502-.346 1.075-.139.43-.207.645-.139.573c0 .216-.138.574-.415 1.076l-.277.573-.693 1.29-.208.43-.07.216-.345.358c-.208.359-.555.645-1.524 1.506-.9.716-1.247.86-1.247.86l-.554.358-.277.287-.277.143-.347.287-.415.287-.208.143c-.139 0-.277.143-.346.215l-.208.072-.208.072c-.07.143-.346.071-.623-.072z" fill="#60413C"/>
    <path d="M11.305 22.145c-2.573-1.236-6.451-4.199-7.55-6.953-.37-.775-.623-2.581-.623-2.581a3.505 3.505 0 0 1-.277-.645C2.46 9.646 1.736 7.318 1.78 4.94c0-1.72.173-2.15.381-2.15.395.101.793.149 1.178.286.585.208 1.258.243 1.87.215 2.394.01 4.917-.86 7.203-1.505 1.408 6.192.573 14.562-.208 20.788l-.9-.43zm-6.719-6.882-.069-.143-.07-.358-.207-.574-.277-.789-.208-.501-.07.43.209.717.346.645.208.502c.07.143.138.215.138.071zM3.478 11.25v-.574l-.07-.788-.068-.502v-.573l.138-.932c.2-.88.385-1.765.554-2.653l.485-1.003c.07-.072.07-.144-.138-.144L4.17 4.01h-.485l-.623-.072h-.485c-.085 1.393.008 2.79.277 4.158.12.736.213 1.478.277 2.222.07.143.138.215.138.573l.07.502c.069.144.138.144.138-.143z" fill="#816859"/>
    <path d="M3.478 11.249v-.574l-.07-.788-.068-.502v-.573l.138-.932c.2-.88.385-1.765.554-2.653l.485-1.003c.07-.072.07-.144-.138-.144L4.17 4.01h-.485l-.623-.072h-.485c-.085 1.393.008 2.79.277 4.158.12.736.213 1.478.277 2.222.07.143.138.215.138.573l.07.502c.069.144.138.144.138-.143z" fill="#816859"/>
    <path fill-rule="evenodd" clip-rule="evenodd" d="M1.608 12.647s-.407-1.434-.56-2.357a32.64 32.64 0 0 0-.133-.762 58.1 58.1 0 0 1-.762-7.67c.12-.372.614-.573.97-.573l2.009.573c1.165.354 2.288.332 3.463.072.324-.098.658-.206.998-.316 1.729-.557 3.64-1.174 5.374-.903.848.188 1.682.428 2.515.668 1.471.423 2.94.846 4.481.98l1.316-.142c.1-.03.238-.085.394-.148.452-.182 1.06-.427 1.338-.283.093.097.195.167.297.236.174.12.347.237.465.481.057 1.707-.109 3.35-.416 5.018-.533 3.871-1.945 9.293-4.71 12.473-.476.493-.982.86-1.51 1.242-.119.087-.239.174-.36.264l-1.524 1.04c-.733.466-2.01 1.643-2.91 1.684-.825 0-1.643-.595-2.354-1.004-1.31-.913-2.482-1.501-3.81-2.796-1.516-1.478-2.27-2.79-3.255-4.372-.526-.9-1.316-3.405-1.316-3.405zm1.42-.61s-.146-.744-.22-1.109c-.431-2.162-.835-4.183-.784-6.49.013-.616.069-1.576.069-1.576.41.108.829.19 1.246.273.255.05.51.1.762.157 2.1.335 4.364.022 6.304-.86.518-.268 1.027-.357 1.593-.43 0 0 .55-.04.9 0 .274.031.693.143.693.143.482.125.949.324 1.421.526.483.207.972.416 1.488.55 1.766.365 3.442-.13 5.156-.02.112.008.201.013.246.02.155 2.722-1.177 8.243-1.177 8.243s-.906 4.055-2.424 6.093c-1.006 1.35-2.476 2.478-3.602 3.37l-2.355 1.433c-.349.36-2.766-1.39-3.117-1.649-.808-.597-1.484-1.034-2.493-2.079-1.01-1.044-2.222-1.95-2.771-3.369-.388-.877-.935-3.226-.935-3.226z" fill="url(#b)"/>
    <path fill-rule="evenodd" clip-rule="evenodd" d="M1.608 12.647s-.407-1.434-.56-2.357a32.64 32.64 0 0 0-.133-.762 58.1 58.1 0 0 1-.762-7.67c.12-.372.614-.573.97-.573l2.009.573c1.165.354 2.288.332 3.463.072.324-.098.658-.206.998-.316 1.729-.557 3.64-1.174 5.374-.903.848.188 1.682.428 2.515.668 1.471.423 2.94.846 4.481.98l1.316-.142c.1-.03.238-.085.394-.148.452-.182 1.06-.427 1.338-.283.093.097.195.167.297.236.174.12.347.237.465.481.057 1.707-.109 3.35-.416 5.018-.533 3.871-1.945 9.293-4.71 12.473-.476.493-.982.86-1.51 1.242-.119.087-.239.174-.36.264l-1.524 1.04c-.733.466-2.01 1.643-2.91 1.684-.825 0-1.643-.595-2.354-1.004-1.31-.913-2.482-1.501-3.81-2.796-1.516-1.478-2.27-2.79-3.255-4.372-.526-.9-1.316-3.405-1.316-3.405zm1.42-.61s-.146-.744-.22-1.109c-.431-2.162-.835-4.183-.784-6.49.013-.616.069-1.576.069-1.576.41.108.829.19 1.246.273.255.05.51.1.762.157 2.1.335 4.364.022 6.304-.86.518-.268 1.027-.357 1.593-.43 0 0 .55-.04.9 0 .274.031.693.143.693.143.482.125.949.324 1.421.526.483.207.972.416 1.488.55 1.766.365 3.442-.13 5.156-.02.112.008.201.013.246.02.155 2.722-1.177 8.243-1.177 8.243s-.906 4.055-2.424 6.093c-1.006 1.35-2.476 2.478-3.602 3.37l-2.355 1.433c-.349.36-2.766-1.39-3.117-1.649-.808-.597-1.484-1.034-2.493-2.079-1.01-1.044-2.222-1.95-2.771-3.369-.388-.877-.935-3.226-.935-3.226z" fill="url(#c)" style="mix-blend-mode:overlay"/>
    <path d="M4.17 14.905c-.276-.631-.539-1.17-.623-1.864 0 0-.026-.227.07-.287.259-.16.351.347.415.502.21.596.454 1.183.624 1.792.104.251.138.287.069.358-.246.255-.484-.373-.554-.501zM2.925 9.528c-.248-1.952-.583-3.743-.416-5.734.208 0 .416-.01.624 0 .34.017 1.776.051 1.524.573-1.218 2.192-1.04 4.47-1.04 6.882 0 0 .054.293-.069.358-.422.226-.593-1.841-.623-2.079z" fill="#A89274"/>
  </g>
  <defs>
    <radialGradient id="c" cx="0" cy="0" r="1" gradientUnits="userSpaceOnUse" gradientTransform="rotate(60.137 1.283 -.566) scale(21.7607 23.0077)">
      <stop stop-color="#fff"/>
      <stop offset="1" stop-color="#fff" stop-opacity="0"/>
    </radialGradient>
    <linearGradient id="b" x1=".153" y1="16.267" x2="24.92" y2="9.229" gradientUnits="userSpaceOnUse">
      <stop offset=".068" stop-color="#576265"/>
      <stop offset=".219" stop-color="#9EA1A1"/>
      <stop offset=".453" stop-color="#848B8A"/>
      <stop offset=".524" stop-color="#576265"/>
      <stop offset=".797" stop-color="#576265"/>
      <stop offset=".896" stop-color="#757A7B"/>
      <stop offset="1" stop-color="#576265"/>
    </linearGradient>
    <clipPath id="a">
      <path fill="#fff" transform="translate(0 .382)" d="M0 0h24v24H0z"/>
    </clipPath>
  </defs>
</svg>