<svg width="200" height="300" viewBox="0 0 200 300" fill="none" xmlns="http://www.w3.org/2000/svg">
<g filter="url(#filter0_ii_162_48)">
<path fill-rule="evenodd" clip-rule="evenodd" d="M0.000854492 -6.10352e-05H200.001V300H0.000858307L0.000854492 -6.10352e-05ZM48.0009 8.57137H152.001V52.9999L162.001 67.9999H192.001V252H162.001L152.001 262V291.428H48.0009V262L38.0009 252H8.00085V67.9999H36.001L48.0009 52.9999V8.57137Z" fill="url(#paint0_linear_162_48)" fill-opacity="0.2"/>
<path fill-rule="evenodd" clip-rule="evenodd" d="M0.000854492 -6.10352e-05H200.001V300H0.000858307L0.000854492 -6.10352e-05ZM48.0009 8.57137H152.001V52.9999L162.001 67.9999H192.001V252H162.001L152.001 262V291.428H48.0009V262L38.0009 252H8.00085V67.9999H36.001L48.0009 52.9999V8.57137Z" fill="url(#paint1_radial_162_48)" fill-opacity="0.2" style="mix-blend-mode:overlay"/>
<path fill-rule="evenodd" clip-rule="evenodd" d="M0.000854492 -6.10352e-05H200.001V300H0.000858307L0.000854492 -6.10352e-05ZM48.0009 8.57137H152.001V52.9999L162.001 67.9999H192.001V252H162.001L152.001 262V291.428H48.0009V262L38.0009 252H8.00085V67.9999H36.001L48.0009 52.9999V8.57137Z" fill="#AD800C" fill-opacity="0.2" style="mix-blend-mode:color"/>
</g>
<defs>
<filter id="filter0_ii_162_48" x="-0.999146" y="-1.00006" width="202" height="302" filterUnits="userSpaceOnUse" color-interpolation-filters="sRGB">
<feFlood flood-opacity="0" result="BackgroundImageFix"/>
<feBlend mode="normal" in="SourceGraphic" in2="BackgroundImageFix" result="shape"/>
<feColorMatrix in="SourceAlpha" type="matrix" values="0 0 0 0 0 0 0 0 0 0 0 0 0 0 0 0 0 0 127 0" result="hardAlpha"/>
<feOffset dx="-1" dy="1"/>
<feGaussianBlur stdDeviation="0.5"/>
<feComposite in2="hardAlpha" operator="arithmetic" k2="-1" k3="1"/>
<feColorMatrix type="matrix" values="0 0 0 0 1 0 0 0 0 1 0 0 0 0 1 0 0 0 0.6 0"/>
<feBlend mode="normal" in2="shape" result="effect1_innerShadow_162_48"/>
<feColorMatrix in="SourceAlpha" type="matrix" values="0 0 0 0 0 0 0 0 0 0 0 0 0 0 0 0 0 0 127 0" result="hardAlpha"/>
<feOffset dx="1" dy="-1"/>
<feGaussianBlur stdDeviation="0.5"/>
<feComposite in2="hardAlpha" operator="arithmetic" k2="-1" k3="1"/>
<feColorMatrix type="matrix" values="0 0 0 0 0.569882 0 0 0 0 0.421647 0 0 0 0 0.0395294 0 0 0 0.6 0"/>
<feBlend mode="normal" in2="effect1_innerShadow_162_48" result="effect2_innerShadow_162_48"/>
</filter>
<linearGradient id="paint0_linear_162_48" x1="200.252" y1="150" x2="0.251533" y2="150" gradientUnits="userSpaceOnUse">
<stop stop-color="#729AA5"/>
<stop offset="0.198493" stop-color="#BFC6C5"/>
<stop offset="0.453125" stop-color="#848B8A"/>
<stop offset="0.524381" stop-color="#96A5A9"/>
<stop offset="0.796875" stop-color="#9CADB1"/>
<stop offset="0.895833" stop-color="#A5ABAD"/>
<stop offset="1" stop-color="#6E8186"/>
</linearGradient>
<radialGradient id="paint1_radial_162_48" cx="0" cy="0" r="1" gradientUnits="userSpaceOnUse" gradientTransform="translate(0.0014682 -25.5413) rotate(73.321) scale(250.651 168.734)">
<stop stop-color="white"/>
<stop offset="1" stop-color="white" stop-opacity="0"/>
</radialGradient>
</defs>
</svg>
