<svg width="200" height="300" viewBox="0 0 200 300" fill="none" xmlns="http://www.w3.org/2000/svg">
<path fill-rule="evenodd" clip-rule="evenodd" d="M0.0174957 7.99994C0.291941 3.53249 3.76094 -6.10352e-05 8 -6.10352e-05H192C196.418 -6.10352e-05 200 3.8375 200 8.57137V291.428C200 296.162 196.418 300 192 300H8C3.58173 300 0 296.162 0 291.428V8.57137C0 8.53104 0.000259965 8.49077 0.000778198 8.45057V7.99994H0.0174957ZM48 8.57137H152V47.9999C152 59.0456 160.954 67.9999 172 67.9999H192V252H172C160.954 252 152 260.954 152 272V291.428H48V272C48 260.954 39.0457 252 28 252H8V67.9999H28C39.0457 67.9999 48 59.0456 48 47.9999V8.57137Z" fill="white"/>
</svg>
